<mxfile host="app.diagrams.net" modified="2021-10-22T03:01:39.619Z" agent="5.0 (Windows NT 10.0; Win64; x64) AppleWebKit/537.36 (KHTML, like Gecko) Chrome/92.0.4515.159 Safari/537.36" etag="HuZ3HEMZDl19qgtuiEt-" version="15.3.7" type="github">
  <diagram id="0XMDq89LEp5H6GdOoe-8" name="Page-1">
    <mxGraphModel dx="1865" dy="-622" grid="1" gridSize="10" guides="1" tooltips="1" connect="1" arrows="1" fold="1" page="1" pageScale="1" pageWidth="827" pageHeight="1169" math="1" shadow="0">
      <root>
        <mxCell id="0" />
        <mxCell id="1" parent="0" />
        <mxCell id="SCrkmm0jVP4aJ3ksJmY2-239" value="" style="rounded=0;whiteSpace=wrap;html=1;strokeColor=#8C8C8C;" vertex="1" parent="1">
          <mxGeometry x="302.59" y="1676.4700000000003" width="122.91" height="50" as="geometry" />
        </mxCell>
        <mxCell id="SCrkmm0jVP4aJ3ksJmY2-240" value="" style="shape=image;verticalLabelPosition=bottom;labelBackgroundColor=#ffffff;verticalAlign=top;aspect=fixed;imageAspect=0;image=data:image/png,iVBORw0KGgoAAAANSUhEUgAAAOYAAABYCAIAAABuyBzpAAAAAXNSR0IArs4c6QAAAARnQU1BAACxjwv8YQUAAAAJcEhZcwAADsMAAA7DAcdvqGQAACu3SURBVHhe7Z13fBXFFseDSJFelE4A6R0iItJ76CWhCtIDBEPvXUAQkKb03qV3pPfeJYC0gGDoHcVIUV/e13sm81l27725CQTJe/f3RzIzOzs7c+bUmdm9MUJDQz3ccCP64B313w03ogncLOtGNIObZd2IZnCzrBvRDG6WdSOawT7Lnj9/PnHixO+++27+/Pnz5Mlz//59dcGC58+fN2nS5PPPPz958qQqeuvx6NGjTZs2/f333yr/f4yHDx/279//8uXLKu/h8eTJk6tXr/7nP/9ReRtCQ0M1uXx8fGLEiJEjR45IEBBGMrU8a9asb775JmLLVtS2gt5UrVpV1fDwmDx5Mk+6c+eOXL127VrdunV/+OEH0kuXLlWVPDySJEmSMWPGIUOG/Pnnn0+fPpXKbw9+/fXXc+fOMbQqVarQW8SMtLrmMm7evKlSbwdQGVOnTvXz87t9+7YqigiaN28OKTJlyvTgwQOymzdvjhcvHiXZs2c/duwYJatXry5btmyiRInix49/6NChVatW/TPTNowaNcrWRuitW7fWrVu3ZcsWdIGUgJ07d3bu3PnKlSuSPXLkyGeffcZdZcqU+e2336RQqzmeIiWuwD7LAuSPfkuLJUuWpN8khE3r168v5e3bt//www8lbcR7773HyE+fPi1NRQ4ICeN89uyZykcQf/zxx19//aUyNiH08vJS/QtD69ateYqq4QK6du3KXT179rx3757pRrp64sQJSSPSO3bs2L17d8uWLU+dOoWoSLkTWLsREhIyduzY69evq3wYTDVbtWolYyGhikJDX7x4gRm5ceOGyoeG0rdFixbBW6Tp/Pbt2+/evdu9e3e5V1C+fPm4ceOqjIcHPDpgwAAUqspbwKVvv/0WltB3pUqVCiXNI1auXBkrVixKaGTmzJlCN43MmTOPGDEC7vf29pYSOM11XeCQZQHssmfPHmlU0LRpU2ihMgYwMfv370dW0L6qyMMjbdq0bdu2FWEVwEPDhg1DOgHqmYFNnDjx4MGD6nIYjh8/jiIMCAigkUaNGjHmSZMmMXncTn9++uknqYZko9FR5xs2bKhQoYKnp+f69evlEnSEWKlTp547dy7GCBVC36RXgrx588pkdOzYESZ4/PhxuLxLm3KvIFeuXCgS7mLsAwcOpDXAuCjBm1KVwrBw4UJphKsYq48++qhDhw5SAjMVKVIkZcqUMKixDw0bNuTG6tWrq7xtOvLly/fpp5/CkUgFVGKacd7kEQBCwej0IV26dFICEdKkSVO8eHEZLHoEzff+++/LVQ25KqhWrRqcXbRoUZX38GjRosXGjRtVxqanfv/99y+++ELlbYDUkhg/fjwzGzNmTMka0aBBAwxCsmTJVP5lJE2a9OLFi2qoTuGMZQFExNbTIq6tNC2oV6/evHnzatasSRoiqtqhocHBwVJBA3IsWLBAri5ZskSVGoA4ii5BUcHQEyZMsNLUiDhx4kyZMgVWVvmXUaBAAc2OGsxr7NixScCgSBETHxQUhBclVxEzSFy6dGm8OipYRQggeAkSJJD6GpTwOJUJg7+/v0oZ8Mknn6B+0Lvp06dXRTbHjrk3TmGPHj1w7GDidu3aqSIPDxQSBpQ+oLmlZNq0acgnCRkU7FWoUCHbFQ8YVBJWpjFqUAG34xjgyGJREUjIjp8qZg36YCqpQ5fEfRozZgxdRSr+IYeNMShBJKhTu3Zt7kL7kNZPQbvhtPTr1w85AQik3IjtZYKQUrqKQ4wqCQwMZEbkLmYBVY08G02ECeGwLNi6dWunTp2MvEhvtLFjbEYPBowcORJJJWhTtT08EiZMiBtElKZ7Bq9jHbJlyyZZjFrFihUlHTkg9EJiDbyXwoULq4wNuNomhw+iq2svg3li1Pz19fVFlaJEceYoL1euHHPDkNGU4ikBRIhx9e7dm+mREgETc+bMmbNnz6q8BRAKK0ECVxIKS6FdoIMRe21GTVi8ePG+fft4nMrbuBx56NatG4xy4MAB+GzXrl0oYBw82LRv377cwtDoniKEDUY/CmDNaFZlbLC6/lADqZM0Ca1r0GK6MsxNbCNpR0BsTNOHalfXLAifZTWgrDQXbg8AUrJixQqGVKxYMblLw+hrY8VUqU0xVKpUyagMmCR4BU8IFiHNMKBj8uTJ33nnHdJ79+4tVaoU1YYPH05TXKpVqxZ8gHuA3aRk7dq10g7AVoiuMgKyGo04nGfUgiZkyJDB6JWimVDJMD3MISXMDSpcKhvHiI8ohQIkR6XCABHgJ60gBUYWtAsog/KePn26difk6ciVLjGB8eLiq0wU4PDhw2hiZBinRRW5DFzbxo0bY2QgHbrWiZMQAZYlJIRGmG+Vdw0MQ0isIcGpQC+vEBv9/PPPlKDDhg4dinMp0b2V+nhaV69elTQ85IQ63I6CxA8mAVTpy8AFx8jOmDEDn5hnIRu5c+eWLhmBDkDdqnscgxbwN/r06WPUWGg4wgsU3tGjR5Fh6tBn1a6HB3MsTI/OQwC4hHdEhEQJmltVMoBuYEDQkdY1GRrHW0OWVP7fABP3yy+/qEzUIAIsG2ngGCh626BKw4BXnjNnTtGLbwkQHpQ9Wr9gwYIffvjhlStXXvua3ffff798+XJkz0mkzPS3adNm/vz5KGbsT4oUKXBb1bX/Y7gPH7oRzeDesHUjmsHNspHHokWLYsSIQayg8hYQOFJh5cqVKv/WAD/n0KFDkTOwo0ePZlA9e/ZUeRsIBhYvXqwyHh7463jzKmPDixcvqIMXpPIv4/nz53hBKhMubO5BNAbU0essbxKPHj1SFLTNhyo1gBBKrhKzqqIoAAGo3YVk5/Dz86Njer1cQFybJUuWli1bqrwDyKCAyoeGEihLCZ73nDlzmBHaJ2AdN24caakzcuRIKhAYwJpSQrAoMTF1ypcvnyBBAmJxueQcb4JlTQt+rxeyotmoUSNZiDh9+nS4oRKUunPnDnE6MdCTJ0/sMly4+Oabb2zT9A9OnTqlSg0YOHCgXIUPVJFteng6UT9hNTxtWtKOBGSTDA0H4xYuXHjTpk3qgg08q3///t9++y1pzT0USsdSpUqF2vP392/WrNnhw4cHDRok5T/99BP89OWXX9avX3/jxo3ciBbkRlizcePGUgdoTTF+/HhVZAOcqlIeHgMGDKACLegV0s8+++z69ev79+9PkyYNhTwXfS+X+vTpIw06RwRY9sSJE3Xq1DEuYdAVaBQUFESiS5cunTt31nTRmDt3LnaEsFflXcbRo0fr1q3L7bpNpLBt27YMTEpgtWnTpsloQa5cub766isSiHK3bt0GDx5Mh+EJouwKFSqI2GzduhUFkCNHDrlFY9iwYVy1dh7A3Hpdb9asWcmSJfvoo492796tD2AA4+ior89gaNy9e5dLsAK3v/POP85YrFix0CvMWbiL3KKKTAgMDETetJ1NlCiR3gBjOlSl0NAJEyZIYfr06SHLxYsXEWxdmCRJkjJlykjatJJvBfytUgYw6RCtdu3aKm8PTJnpjIER8ePHZ4JUxsOjSJEix48fR5s4OZjhjGXR4cHBwSoTGiqjQodLFlmBMyhhMJs3b7Y90WPv3r1cQuyqVKmC9GAO4tlOBgGos27dOq4yyA0bNjB/pGfOnNm8efPJkyczMTwOVcFVyIqJkXMVoFixYjxo0qRJxsUy5kB2CwHMalqHF8AcsqUJ0Ea+vr6mjVwjMmfOHDdu3BYtWjAuGOKPP/5Ad6KiZN+Lflq3iBna559/ToLu/UMRmxQZl3WZS/pGonLlytSB16XcCEgHl6OxEMhVq1a1atXKuFeJMCRNmhTOgLP79evXvn374cOHd+zY0e4mvqB69eroDhxH3M04ceKoUhv0XJiAIKmUBZqAjpA8eXJJ7Nq1Cz7LmTOnZJcsWSIaRANaNWnSRGU8PNKlS6e3P62g/4oEFjhkWR7PLDLHqCXswsOHD6UtOImra9eudTT9JUuWVCkL4DM4EotDGv5bs2aNlANvb+8MGTKQgMshuhTCrCaim8B0Qgj6pt0p0K5du4CAgHLlyqn8yyBaGjt2LIpz6tSpdMBJb+0ClaC3nVEeNCJpFDkqvGDBgqQTJ06MyHXo0AEdT0IqaEyZMsU0l6hb4WwBWViTKKdv376qyDZSlXIMzT0RAv357bffevfujZbBjNSoUQPZRr8gZrhY6CzcmGvXrkFST0/P7du3nzx58uuvv1Y3hwGmF3OB3kEB4RuIcYDCNWvWxD9mWtGdSCOEggFI43ucP39e5pcGGbLxiA/9+YcL7cEhy4qHLkCs582bpzIeHgixSjllUA3jeQPNjs5B71E/8DckQ9XJ9jpTggqkM5AVCtIN2SUSyIGBIUOGSJZ7oS+eA96SqGfU5MKFC6129syZM/QQ9Wbd96pYsaJxZ59HIL2YYxzoZcuW0dSPP/6orhkwceJE1bTNFsG7cINoOAwfhbCCj49PuArMihIlSuB3IsnwEw6AFPI4/NFPP/0URyhFihRSCPLnz49mCQkJQVNgCWEXhi8bbEga6bRp05KQfkYIsHj37t3hXSwD00Sb+KbqWgQBAffs2SNp6All9u3bZ9wftcI+y6K0RInCHzJ+fZ5Ng6hCNqzx/bGeXl5eqDek84svvsDdJPhASfP4Y8eO4Udu2bIFWqs7bd6FJOBCOID6sAuOsj4co02tBpxn9FLsAmUAp6qMARcuXMDWq4xj4NXwaDw8HrRo0SImldb0ygCKUNV7GfCuUUeiVu3Gc0wz2t3oaOIaqXtsmD17NrEjw4RQeAJyfILWMHfY06pVq9IldWcYEDb41SiECLO0hqehSYHm+3d3cV8vHGrZHTt2SFAiDivA3gnbwWdwp/EEN0Yh3Dj90qVL4rvUq1cPKqMC0dxy6FgDKjNnK1ascOXkTVQA0Tp79qzKhEEULayp8hag7N9//300GV6pKnIBDBYOQ8ixjwcOHFClBkRiPQFdg/DD/Sr/vwhn4ZcAnVG8eHHmDEKgKghUX2VpJnIrSv8uiPfDPRMD1zo3Z268LrjPGLgRzeDesHUjmsEZyxIY4bCqjBtuRARDhgxJlixZ3rx533vvvbJlyxLNC+LHj79q1arJkyc3bdpUdhAPHjwol+T1oaFDh8aMGXPw4MG2ZuxB/AMrNm7cmChRonfffVfW/DWidPf1DYBQev369dAlSs/ng9GjRxOnEmteD3tLlphyypQp1vAuSrFr1y4iWpV5Hdi0aROMMWHCBJU3ICQkRI4Q3Lhxw7qgDkcmsLw/t2DBgo8//ljSsWPH1m+pEDJJm1bYZ1nYVPYVQdGiRadNmzZmzJjChQs3adKE7o4fP16qESDL7jP46quv+vXr9+8yNDH43r17TWsXv/76q7ypzFXjVqpsf0catLZixQpHJ9ORB/3CTPbs2WX9eNiwYWTTpEkzf/58KLx582a9JCkgrt22bRstk4aS69atk55HFIGBgXAPiUuXLjGPKDBZmYEUJoF59uzZokWLTPE0bCT7lICAm1v0OhoJvXOrdRld9ff3L1WqVMKECRMnTkyDcvIBBmWkskmZJ08e7pXDMUCzqSBevHjGkiJFiggR7MKhlu3cubOjF6EgQZcuXSZNmhQrVqwPPviAvlauXFku0ePGjRsLHxNlN2/eXK/7QDVhaHrDvRs2bJByI44ePdq6dWv00/79+2/fvt2xY8cff/xRXXMKeAKh6tOnD32Aprly5apVq1amTJnonnRME9qI3r1769NDzpfVUB7oZhgIjcUo7t69u2zZMlqA/wICAhhyvnz5ypUr17dvX+i2cOFC2eYFadOm5W+NGjUYl5QIZGcBIwZ/IGY9e/bMkSOHFCJLMJy8/Ojr66t64ABHjhxp1KjRJ598kiJFirVr11Iyc+ZMbsyWLRt+nfENSnooe+AwBJ1HESJy6CNKvL29kTEo8N1338l2Hab51KlTDx48kHfjPD09ly5dqrf6BBSip2A1ed3Xii1bttCf8+fPt2jR4sKFC6QhY926ddGApK9evSrv+VWtWvXMmTNYP4ggL7E6n3SHLItMAHnp2ajPtfJwAj8/P/kiC2AKaQ09T7pbt27MNzMql8aNG4c+GD58OGSCy5F441kTAYR2InAa8iUSVzBixAimR3MwTAPRkQ2MeLNmzRCkc+fOSZtQfMaMGVu3bqWHTLPUjxCYUdOHIAACr1Iuo3v37nDV559/PmfOHIT5xYsXKD/pJMyqKlmgxfW1A3JlyZJFZcKQLl06Zhk7hlqF81auXCk9dAI41fiZCxcRzrrs/fv3aReDcvz4cURk+fLlaBomUlZqUQzoNv3BGHqcMmVKSUcaSZMmlc8jaMBeckgCEYJ75CgdaR6NAcKRN24+CbCGyAx8nDNnTiwAGpcO49HPnj2bG7kdQXd0RgSgO4HKuAA6jBI1bpHTJcILcezk4AGAgzE1QUFBskWcO3du4y2Abjv/hoMGkQ2RMa1JljhGf/wCcFUf9oOePj4+PAuZhKswfahe4WZMAR5nuJyNnIj5AmgQtCZKhEejmMqUKSOb4RDTuHkepQiHZR2Bid+3b594Wgg9njUMQRo7JWMDgwYNMk2JBlGkWEwrmFfaWb16tZeXl1EAUCeyhwmsXjxAuLG/hJ9YNBT2P70MD6h8jLJsboV77oTpYYw4Z8aXvLFl+v1vvAUm8pdffjG9/o+00/Pt27ervA1iOjCXVM6YMSOEgnTBwcGUY7Ip7NChw4EDB4y73I6AlaApvOpevXoRjGPE4B7UMOLdv39/o5EVcQXQR74VRxoiLFmyBLenZcuWixcvZhTcS/BNO3jbNCjV8CJQAfrdZg2uoggI8lQ+6hFJlnUEBiDHz+TrXShCvKLSpUszWnHm4EJoISOnMoEnPCr+ABXGjh2r4znA5KEstRZ3ApqNNNXw4fAHHj58iA+A/sN7adCgQd68eRESfAN4FOBTGrUI/Ud5M50q/2qAS1BdKmMBPn3FihXl00mwGsobp9nonumTQP8neM0sC1AzcmpWoNeSEHHm3m6IDTc4X/phRolDcUPnzp0rR0XxgzG7PIgQ6lU2kKMpGLJ8gAevMaq/G/C2wb1h60Y0g3vD1o1ohreRZX/99VecfdxKWZeVwuvXr48cOZLwlhCVcLtEiRI4CeIVcLVHjx4xYsSgPrEzoYOnp6fxSP9rAbHm1KlTO3funCZNGp7lZMHBjaiF+AeRBjHBlClTZF+AdKNGjQoWLEh0cvToUbJSR4DvVb169XTp0jVs2HDPnj1Pnz797rvvAgICTHsKx44d0ws0AOYLCQkhgnbyPh3+nEq9DOPWUZ8+ferWrYtj/eDBA7uHUzXoNg63XvgUUGL9rhvx9f2wb8i58cbwqiwLw8n8xY0b17SkJW+n3Lp1C61JcO1kCX39+vXUhFN79uxpfb3E29s7ue2tJoRh+PDh6Ffj1xGdoFChQlu3bqWT+vx/hQoVZP1SFnc1iGBKlSo1dOhQHx8f2bhKnz49vVq2bJnIpOyYW/uGRMm+JcHlX3/9NXny5K+++gpRcfGVfDcigciwLLOI2gsODl6wYIGaOtfg6+s7f/58+Mb5S4g1a9YMCgpi+oEqsvGffnEenD59eunSpSIM0pos1ubKlcvE0MYffdDgFr3LdeTIEetejka1atXkuEXRokUvXbqEDCCKn376qVwVVKxY0WgZBAihozc1MDiyIE8aMtr9MCUysHPnTrsLzCdPnnwD66C3b9+2rsJGGli2Fi1aIM/Hjx8vXLgwjpy6EHE4Y9nnz5/DEypjAA9W0xIGLy8vJpIEOixHjhzMcevWrU2bnBkyZNALXvfu3WvQoEGnTp3gQv2qNGoYbhs9erTRozh8+DDVJk6cqO+1Asp+/fXXmPILFy5w74sXL65cuWJ90RkdCadCOOlY8+bN//zzT9PLotTZvHkz+lXlw1CjRg1jr+g/7g2qGj52Yj2KFy8+adKkbt26LVmyBMF4+PAhChu5lasYJTkyEjNmTGaxQIECuEnFihULDAycPn36GNvbl1WqVLl58yb6W55LAoqJCOlTKa8CBoUndurUqWbNmq1du5bpbtu2LelFixalSpUKchE/jBo1ilFg35gLOSogNyI5WongIMlSI+WYLMKJlStXEmwwF7A+kck/A34ZNEjswbMgjjTiIuyzLHM5bdq0lClTEmTMmDGja9euaC/Z1CEe0g4AbJE/f369lE3/GDO91woMby9fvnzMRO3atR19h4dnQbK7to9T0IIUvjpo9uzZs/Sf3pYvX37QoEHMt7SPxEv/NRjdunXrcAz0HhUKHpoycIKtjz/+WB8gtIKZy549e8mSJWkBbmvZsiVDxk13bkkiBGSMQBNiGr12VADcz+OIOGHxtGnTrlmzxu5riSh7ADPRPe3HY52yZs1q3MkDIgzOMXjwYBqRQx30Yfbs2ZQQaUDnJEmSmJxDIxBL/ZUDEyA7PACjt2nTJtxVdvssiyumv3yhkThxYoIq5oM0LHjjxg3jTtXbCVjNSgImz3jUrX79+pSoa5GC3dsx61CpUqVKfn5+WCFxx1Fd8NnChQvRPRCZSADdJm8vO9rBjijKli2LUqRxTBPmAnMHP+GaEwNIBXTQtm3bHK14wHZ4bipjMwU0iHMFrCzhCFha054l9+LiYyrpG85VxowZP/jgA4J166jbt28P9ZzMiEPH4Msvv8RGDxgwwHpQg5IIvUr6FuLMmTP+/v7MHPL9ZgQPHY/xseveoBoxuFzSK3oauOwzZ86UDT8rsKr6y1+RBn45hoI+4F+isJlZ2AVTvnr1arpkegdTvm0PW9eqVQt569WrF5KA90InUWe7d+9GVNBlUhnaYgTk80eYHSnUEKbkLlsvXgJhyaxZs6SaFeGHX1hY3ER0lehXmpPzA25EBfr37w+R5Sg6zokUYitwgv+ZTNvxq2zZsu3fvx8/QWYde0pggK+MikGDmj6Tg4rVP981YcIEY6BZr149vEn53r+L4InIlYunjjScLwUiBogNlgf3XZ98chKfuTds3YhmcG/YuhHNECUsS2B+08H3ml3HvXv3vv3222vXrpEmWMmUKROuOgZOg4AGA4qzJfU1cGNw4TGXKv86cPfuXUxzw4YNkyZN+sknnxD8LjX8eK8bbxTiH7wKmE5jVPH06dOiRYsSae7YsUMVhQE+Ll68OOFkly5dQkJCjh8/fiLsd181Hj9+PGjQIP2iS65cuU6dOuXkh+xix45Na/Pnz69Tpw5PHD58uP7SqnHDdurUqd26dZs+fToRtLwsYIWEHVu2bPnoo4/oJ32T1wkp1z6WCU4+0OeGXcAqX3/9tbwWFjm8KsvCJXHixMmaNatsOqAXjWv4uNX6IGxgYGCZsA/warzzzjvz5s3j6t+278vqFzacgGcVLFiQ0EHlncLX15c2jZ81BRSaVr6IW2lWXX4ZlSpV0r/62apVq8GDB5u20+gJsXP37t1lMWjkyJFz5szx8/OTleZw8fvvv0f0oIJ+9zqKsG3bNkbh4+NDVIcCQvKJ/fv27Xvp0iVVw4LTp08fOHBAwjJGZDrC+/z589WrV0PzvXv3YqCEbl5eXugmgntVyWVEnmV5GCpNv0oqy/WSNsLT03PXrl3ykQUBSjHly6+IodWMb/MmSJAAzjh8+DBRJA5A3LhxEyZM2KZNG8JkSMOjJVIGdMD6SUYXIZ/ZkoPnrrzZ17NnT3kowPcYOnSo89clcufOfebMGeJxpp/Yf9KkSUgv6X379hEj42N8/PHHGTNmRGgZII3PnDmTKZc9CwZ44cKF6tWrEzijk4zn3//666+8efPS4eXLl0OlI0eOGGfd7laCXVy9ehUTgbRwi9ATlsIEWd8Y1WAu8uTJc8j2uyCwMh3YunXrsWPHsGCyDJc4ceIaNWrIqiiSvGnTJtpHJWk2taJYsWLGFwJcgTOWhYKOVAXeqvEDtEbUrFkTuqO3WrRooYoMkMWLoKCg/Pnzw+UdOnQwLVCbVjeCg4PllXwngHzQEf5AmyLrPJ3ujRkzRpbE9Y7OrFmz1qxZ06tXL8niB6Or9Mf/cVKRJQwWrIxgjB8/HoagTubMmRlIx44djW6GABvXuXPnatWq4QWlSJECC9OvXz9Ha6guAraoXLmy6UW01KlT480jXf7+/rIxbgRmDfVfsmRJuaQJiLZzosOMmylpbL+ArDI25MyZk56ojA1664HBNmvWTL5fHVHQZsuWLc+dO9e1a9cqVaroDUJUGAaZSWSCGKbqogM4ZFl4n4aQm8uXL5v2UX/88Uc5DwU3oD+4evDgQSYPKkBuI4ehF/ECk9heVEJnGHuDZItwE2CNGzcO9YMyXrJkid5Pfy1Yv349TEyohCpVRZbla+j45Zdf2j1N4SLu3LmjDytCN/QlOkyW0AHcwNhNKtnb2/u7777jufgtxt0mE/QlBNvubqfdbWE4e8aMGZgmIlQmRXZB0Q7oZkJYZMzRThtP4ap80hlrTs8pWbZsmewcMShjH+LHj48JxcqhmJET2AAvceDAgaNHj4bm9EFv3mJGGClsKpZNgwbhfqmjgcHBy7IqCA37LPvTTz/p5wEeGRAQwMQjtag0QiIKYWgjHzgB4o6N4EaV/7eBqGhPABUVdV9jvXXrFuItggrpcHnxE5g5dIlUMAKHAfbVZIer5BvIWA+7b6ijztEIWEI5Z0OcwO3WH9t3BfDZggUL1q5dazKqMLrpXT2cVAwODErfnHCVANcOswMRVN4BcDCwEqorYcDiqcsW2GdZJpVW5BV1u0BxRus9W4wDo4vcZ9ejFPimmE7xaDVgdzk9h5cPXxIYwAf6JBeTpbdV0Q442bLAki9fPhQk5kubRNQndgwXVrSs7JPpPbZ/F8g2Zke+JIIuN336yQiHjgF6HhstClWOd5AQMNlIhqoXbSFuSTQCQTcMrTLhAXWot1XxuXXkKmByT548CQW0P/OWAM29ceNG56c+3Bu2bkQzuDds3YhmiBKWvXDhwty5c1HvKm/D/fv38bSI2EaNGoWbQVR46NAhLJ26bAOmKjg4WNKEk9Qh+CBNBDNmzBiihESJEhHgE2r4+fkRz0lNE3hK3759f/jhB5U3gFtkB9gRsKE8S2UcQ07oqYwNDJnQSmVeE2S/QGXeLHjuzJkz5Q05VeQCqIzbrTIOwLQWKlSoevXqNL5jxw5VGiHwmNcLZk42wAjRihcvvnfvXmZ32rRppnU+AYVNmjQhXA0JCaFanTp1KCxatCgcKe9yAScr9lWqVBk7dqy/v//u3bvXr18Pw23atEmvLhHHHDhwgChYFti5CrEIybdt2yZdNYEIgD4TntevXx+Czp49e9iwYbK0efDgQSLlgIAA4oOMGTPSeIYMGVq3bs0txM6EqgQ3sWPHJkDevn07dzVo0MB40pSoQG8OCRjsunXrrHvalCNysk0AcTJlyoT43bx5U11+GVSW7gEesWHDBvpGP2mBEp7o5GAhrMMj0CPacURWISNO8Jo1a2QiwL59+2gZAu7atQuHWC8Fom4gxWeffVazZs0OHTpArgEDBmTOnNnT05PpaNSokf4eFJ2UBDh79qzxJyYZINEhoeSjR4/0Kdtw8Uosi/NuXGoFM2bMcP7tPkI3CelMgMuNi9uOAEtZX87WcLSJBZuaXifMnz+/fAYLvfv999/36NFDn2qwwskGm5ONg5IlSwYFBcEQq1atKlu2LCVQBrsxaNAgHx8f/VuYvr6+48eP37x5M1LN9MvLCyakT59+586desUaIbxy5cro0aNlKQDhMf3UKB1u3769pGEj+A/bxXiZHSxVp06djEcmGEL27Nnz5Mlj2pLUQBqBpKEkDDp06FAn7+hr0GDhwoW5l/aB8Wf05KU3DSEjw4RoyEb//v2d7EhHnmVXrFgRJ06cLFmytGvXbunSpVjG3r17Sw/oX2BgIKqidOnSUgJQXefOnZPVWSRvwoQJOA+dO3dmOhFNVcnDAz1Btm3btsuWLaMFVBeMiDadOHEiKkFLOXyGKKOAkVT9NUwN9N+WLVuMP2ttF6IvjYAJmA90pJ4kI3BI0KM1atRg7EBWZAA9pDOwI1YlceLEUihwtGjvCjA1ixcv1sxdoECBZs2aQUa9SW4XdhdxIwQY6IsvvkAkVN4GZN4kujlz5mTqu3btygxCGeSNvpmGbwVTKWeh4AGcPS8vL3XhZUBnmWgrIsOyaA6mx7TRqoFh0taKbl2+fBkRP3nypFYSVnBp9erV2CnMutGOAKTNVGIEl0Qc+YtjwKTiK6P79S0YbrQL1g3uh1IYyosXL8qHqjVQGKg6lByaTJszOozt27hx45AhQxYuXDhu3DjrVgjODNbQ9I4G7gcuAfOtJxjLgOeAhsudO3etWrUQYyQKT/H06dPTp09v3rw55ShgNCX8Xa9ePeojrnRVRoHFrFatmjRlQpcuXXDNmzZtyhAwFKgARJoOQEncqrp160ITeihMTAn6BfYiW6JEiWLFiiHSSCa3o3GgPFTidvn8I8/l6RUrVkQ14m9oq800wZ34V1gGk4EVQPzr16/TeXQKQF9C1VmzZqHOsmbNijqwziY0h0PwEPSr9qh8HqouWxAZloUK0jQSw4yik5BLtB2EoE92R/K2Afef/qNToanxRzpfL/BrMRfYH5V3DXYJSEgQN25cOBsPCjZCABBOPf1aR2jQiL5K2tF2tKNyAS2Y9uqjGugFNIUT7QZcYlkGhk1H8aBX0EbCr5MnT9ZEEVUq6WgBJHvOnDkoJJWPDrh9+/YT20uqzvnsfx72txIgDZYL5QxTItzWBaN8+fJhc+06fG64EaWwz7K///47oStGQeVtZ3xkyY2Et7c3voErAb4bbrx22FeTuOq49oSNspZBlAD74k4RN+AerFu3zs2vbvxbcJ8xcCOawe2MuhHN8PpZFrcBf1dW+JctWyYesBGEdOPHjyek27lz58aNG1Hzd+7cuX79OpcIh+W3y0gT3lWtWpXWcEU2bdpEqEebRlSsWLFhw4anT58+cuTI06dPt27dOn/+/CRJkqjLMWLEiRMnODj4wIED3bp1k+3yW7duHTp0yNYLh/jtt9/8/Pzwi/CFiM1V6evG33//3bZt2549e6r8W4Y5c+YIDQ8ePKiKXh9khVtlIgFujhwI0YYNG7Z8+XLjOuLYsWMZp2raBh8fn/Pnz48aNapUqVJLly5dsmSJ/vVQgbjLsNeZM2fke3p169adO3eu8z0eExxt1cY1fGsWLpQ2kYR+/frJRjx48uTJhg0bBg8ePHHixHLlyhlfx0AA2rRpU7t27alTp9LzoKCgadOmIUuwGq3pE6jPnj3r2rUrIamQApmk5P79+5s3b6YEaVyzZg2UMR4VmDRpkjzi8OHDeq3QCG6nwcmTJ4d7+B/QgunjWU5ATfSFk7XPc+fO6c1b/XvFJtDtrFmzDh8+XOVtoBs0C5cT/NgdFAgMDEyaNGnevHlXrVrlytCsiCTLXrp0Sb82CR8wf3Tx2rVrMt8tW7bcvn17lbDfBHURjr4VYMK2bduOHz8u73A72g6tU6fOvn37VMYB6tev365dO4irz99EFAkTJtyzZw8KSW/xx4sXr2zZso7O8RQvXhxWZp46duxo3GRPnTo1naEQNv355593795tjG6hM3dZOYASbIjMunyMFiNDifAi4kE3atasuXjxYn34BruBXpBtah5KeH3ixAmuNm7cuK8Nvr6+1atXN75PRgsYQ/js8ePH2Ch504aJ1huz2Lrvv/9+4cKFvXr1YlL0W41Dhw5FBZh2Iuib3uUG9MT1V4I1IsaykOns2bPIqPUtuRYtWsjxn5IlS6raoaHz5s1LlSoVfkKxYsWkGmC0zZs3L1OmTL169W7fvg051q5dq67ZQOX8+fP36dMHrdahQwfI4e/vj5JD5aDUpWUoeMH2tcBTp06hI5nyvXv3osxCQkK4S85M4VQw3zzl3r17coKkR48eTZs2lacYkT59elQpgypSpAiqET1UoEABI1dly5ZNsvI3S5YsuXPnJuHkWIwRKBXrORKjBQgXnrbfOMbLYgpGjBiB7heVQSMzZsyQOgK6qq9qZM+eHYExHkxxDmTG1KwGc1GrVi2VCQ/YYYyMbKrjcelP3DH7ksB7XL16tUnlO9/iiRjLGj8NWbp0aXQtYmT6ELb1XTzREPiFQ4YMsfthZCrIl7Xh5kj8Dq8rQEPI0S2ASyBdFaAsRVfhY0lXAQnoiEQdPXpUShAGOs9f1Dx/ISvCKS0EBARgTFeuXIn/g8IbOXIkFrNZs2ZyNkA+GY3jIZVBsmTJoBL8Bxcivd7e3tavvcq5zRUrVhgdLThPfrr7VYC3w0PhbDndhmEsX748+rVVq1aoRmSVNARBYUt9wC38NfaENJqCG6URBBJ/r0mTJqYjWgIqN2rUSJQFFXAJIAhmUDeYPHlybDKMhNbDB8N47t+/30Z1O3CVZZkktJ08AHh5eeljIszuggUL0LLYCGyN0bV1HShCfIlImInIQRgIbYRGd3R8NlzQW1rA7VZ5C6CMfqkTASAYxQ/GRtnd3MY7pFcwJR3r37+/KrW9xUX92bNnm5x7WI2oFGuu8jbAcBMmTKhRowZpTPCNGzcePXqEp4HKnDVrFtPErBknCP1nst0adF5O2C1atIg0DMCN69evl4+kwN+qns33RbYlzXgvXrw4evRodJBdM2L8tBERc+vWre2et0QLqEoWOGTZ58+fIwcwOz3ATRHDCpBOQhB94imagjnAcVSZtwn4JLikdtkI5kNr4C/BfBhZzfdwJNEk9hffUWSe0eFuvfpRBBxf3CSVCQOMgbWxHsSxArOGRF2+fBlLJVYUJ01dMwB7RUhQtGhRYTBAZX3w3Ar7LIusaFOlnTCkAcFFT6hKbrjhMtDQJ0+edKTRAWIG78LcXbt2xYtTpfbgcPcLH+Xq1auShutxuglxrFGXG268Ybg3bN2IZnBv2LoRzeBmWTeiGdws60Y0g5tl3YhW8PD4L8Z5ViSQWOpwAAAAAElFTkSuQmCC;" vertex="1" parent="1">
          <mxGeometry x="303.25999999999993" y="1678.6000000000004" width="119.57" height="45.75" as="geometry" />
        </mxCell>
        <mxCell id="SCrkmm0jVP4aJ3ksJmY2-235" value="" style="rounded=0;whiteSpace=wrap;html=1;strokeColor=#8C8C8C;" vertex="1" parent="1">
          <mxGeometry x="289.88" y="1687.4700000000003" width="122.91" height="50" as="geometry" />
        </mxCell>
        <mxCell id="SCrkmm0jVP4aJ3ksJmY2-236" value="" style="shape=image;verticalLabelPosition=bottom;labelBackgroundColor=#ffffff;verticalAlign=top;aspect=fixed;imageAspect=0;image=data:image/png,iVBORw0KGgoAAAANSUhEUgAAAOYAAABYCAIAAABuyBzpAAAAAXNSR0IArs4c6QAAAARnQU1BAACxjwv8YQUAAAAJcEhZcwAADsMAAA7DAcdvqGQAACu3SURBVHhe7Z13fBXFFseDSJFelE4A6R0iItJ76CWhCtIDBEPvXUAQkKb03qV3pPfeJYC0gGDoHcVIUV/e13sm81l27725CQTJe/f3RzIzOzs7c+bUmdm9MUJDQz3ccCP64B313w03ogncLOtGNIObZd2IZnCzrBvRDG6WdSOawT7Lnj9/PnHixO+++27+/Pnz5Mlz//59dcGC58+fN2nS5PPPPz958qQqeuvx6NGjTZs2/f333yr/f4yHDx/279//8uXLKu/h8eTJk6tXr/7nP/9ReRtCQ0M1uXx8fGLEiJEjR45IEBBGMrU8a9asb775JmLLVtS2gt5UrVpV1fDwmDx5Mk+6c+eOXL127VrdunV/+OEH0kuXLlWVPDySJEmSMWPGIUOG/Pnnn0+fPpXKbw9+/fXXc+fOMbQqVarQW8SMtLrmMm7evKlSbwdQGVOnTvXz87t9+7YqigiaN28OKTJlyvTgwQOymzdvjhcvHiXZs2c/duwYJatXry5btmyiRInix49/6NChVatW/TPTNowaNcrWRuitW7fWrVu3ZcsWdIGUgJ07d3bu3PnKlSuSPXLkyGeffcZdZcqU+e2336RQqzmeIiWuwD7LAuSPfkuLJUuWpN8khE3r168v5e3bt//www8lbcR7773HyE+fPi1NRQ4ICeN89uyZykcQf/zxx19//aUyNiH08vJS/QtD69ateYqq4QK6du3KXT179rx3757pRrp64sQJSSPSO3bs2L17d8uWLU+dOoWoSLkTWLsREhIyduzY69evq3wYTDVbtWolYyGhikJDX7x4gRm5ceOGyoeG0rdFixbBW6Tp/Pbt2+/evdu9e3e5V1C+fPm4ceOqjIcHPDpgwAAUqspbwKVvv/0WltB3pUqVCiXNI1auXBkrVixKaGTmzJlCN43MmTOPGDEC7vf29pYSOM11XeCQZQHssmfPHmlU0LRpU2ihMgYwMfv370dW0L6qyMMjbdq0bdu2FWEVwEPDhg1DOgHqmYFNnDjx4MGD6nIYjh8/jiIMCAigkUaNGjHmSZMmMXncTn9++uknqYZko9FR5xs2bKhQoYKnp+f69evlEnSEWKlTp547dy7GCBVC36RXgrx588pkdOzYESZ4/PhxuLxLm3KvIFeuXCgS7mLsAwcOpDXAuCjBm1KVwrBw4UJphKsYq48++qhDhw5SAjMVKVIkZcqUMKixDw0bNuTG6tWrq7xtOvLly/fpp5/CkUgFVGKacd7kEQBCwej0IV26dFICEdKkSVO8eHEZLHoEzff+++/LVQ25KqhWrRqcXbRoUZX38GjRosXGjRtVxqanfv/99y+++ELlbYDUkhg/fjwzGzNmTMka0aBBAwxCsmTJVP5lJE2a9OLFi2qoTuGMZQFExNbTIq6tNC2oV6/evHnzatasSRoiqtqhocHBwVJBA3IsWLBAri5ZskSVGoA4ii5BUcHQEyZMsNLUiDhx4kyZMgVWVvmXUaBAAc2OGsxr7NixScCgSBETHxQUhBclVxEzSFy6dGm8OipYRQggeAkSJJD6GpTwOJUJg7+/v0oZ8Mknn6B+0Lvp06dXRTbHjrk3TmGPHj1w7GDidu3aqSIPDxQSBpQ+oLmlZNq0acgnCRkU7FWoUCHbFQ8YVBJWpjFqUAG34xjgyGJREUjIjp8qZg36YCqpQ5fEfRozZgxdRSr+IYeNMShBJKhTu3Zt7kL7kNZPQbvhtPTr1w85AQik3IjtZYKQUrqKQ4wqCQwMZEbkLmYBVY08G02ECeGwLNi6dWunTp2MvEhvtLFjbEYPBowcORJJJWhTtT08EiZMiBtElKZ7Bq9jHbJlyyZZjFrFihUlHTkg9EJiDbyXwoULq4wNuNomhw+iq2svg3li1Pz19fVFlaJEceYoL1euHHPDkNGU4ikBRIhx9e7dm+mREgETc+bMmbNnz6q8BRAKK0ECVxIKS6FdoIMRe21GTVi8ePG+fft4nMrbuBx56NatG4xy4MAB+GzXrl0oYBw82LRv377cwtDoniKEDUY/CmDNaFZlbLC6/lADqZM0Ca1r0GK6MsxNbCNpR0BsTNOHalfXLAifZTWgrDQXbg8AUrJixQqGVKxYMblLw+hrY8VUqU0xVKpUyagMmCR4BU8IFiHNMKBj8uTJ33nnHdJ79+4tVaoU1YYPH05TXKpVqxZ8gHuA3aRk7dq10g7AVoiuMgKyGo04nGfUgiZkyJDB6JWimVDJMD3MISXMDSpcKhvHiI8ohQIkR6XCABHgJ60gBUYWtAsog/KePn26difk6ciVLjGB8eLiq0wU4PDhw2hiZBinRRW5DFzbxo0bY2QgHbrWiZMQAZYlJIRGmG+Vdw0MQ0isIcGpQC+vEBv9/PPPlKDDhg4dinMp0b2V+nhaV69elTQ85IQ63I6CxA8mAVTpy8AFx8jOmDEDn5hnIRu5c+eWLhmBDkDdqnscgxbwN/r06WPUWGg4wgsU3tGjR5Fh6tBn1a6HB3MsTI/OQwC4hHdEhEQJmltVMoBuYEDQkdY1GRrHW0OWVP7fABP3yy+/qEzUIAIsG2ngGCh626BKw4BXnjNnTtGLbwkQHpQ9Wr9gwYIffvjhlStXXvua3ffff798+XJkz0mkzPS3adNm/vz5KGbsT4oUKXBb1bX/Y7gPH7oRzeDesHUjmsHNspHHokWLYsSIQayg8hYQOFJh5cqVKv/WAD/n0KFDkTOwo0ePZlA9e/ZUeRsIBhYvXqwyHh7463jzKmPDixcvqIMXpPIv4/nz53hBKhMubO5BNAbU0essbxKPHj1SFLTNhyo1gBBKrhKzqqIoAAGo3YVk5/Dz86Njer1cQFybJUuWli1bqrwDyKCAyoeGEihLCZ73nDlzmBHaJ2AdN24caakzcuRIKhAYwJpSQrAoMTF1ypcvnyBBAmJxueQcb4JlTQt+rxeyotmoUSNZiDh9+nS4oRKUunPnDnE6MdCTJ0/sMly4+Oabb2zT9A9OnTqlSg0YOHCgXIUPVJFteng6UT9hNTxtWtKOBGSTDA0H4xYuXHjTpk3qgg08q3///t9++y1pzT0USsdSpUqF2vP392/WrNnhw4cHDRok5T/99BP89OWXX9avX3/jxo3ciBbkRlizcePGUgdoTTF+/HhVZAOcqlIeHgMGDKACLegV0s8+++z69ev79+9PkyYNhTwXfS+X+vTpIw06RwRY9sSJE3Xq1DEuYdAVaBQUFESiS5cunTt31nTRmDt3LnaEsFflXcbRo0fr1q3L7bpNpLBt27YMTEpgtWnTpsloQa5cub766isSiHK3bt0GDx5Mh+EJouwKFSqI2GzduhUFkCNHDrlFY9iwYVy1dh7A3Hpdb9asWcmSJfvoo492796tD2AA4+ior89gaNy9e5dLsAK3v/POP85YrFix0CvMWbiL3KKKTAgMDETetJ1NlCiR3gBjOlSl0NAJEyZIYfr06SHLxYsXEWxdmCRJkjJlykjatJJvBfytUgYw6RCtdu3aKm8PTJnpjIER8ePHZ4JUxsOjSJEix48fR5s4OZjhjGXR4cHBwSoTGiqjQodLFlmBMyhhMJs3b7Y90WPv3r1cQuyqVKmC9GAO4tlOBgGos27dOq4yyA0bNjB/pGfOnNm8efPJkyczMTwOVcFVyIqJkXMVoFixYjxo0qRJxsUy5kB2CwHMalqHF8AcsqUJ0Ea+vr6mjVwjMmfOHDdu3BYtWjAuGOKPP/5Ad6KiZN+Lflq3iBna559/ToLu/UMRmxQZl3WZS/pGonLlytSB16XcCEgHl6OxEMhVq1a1atXKuFeJMCRNmhTOgLP79evXvn374cOHd+zY0e4mvqB69eroDhxH3M04ceKoUhv0XJiAIKmUBZqAjpA8eXJJ7Nq1Cz7LmTOnZJcsWSIaRANaNWnSRGU8PNKlS6e3P62g/4oEFjhkWR7PLDLHqCXswsOHD6UtOImra9eudTT9JUuWVCkL4DM4EotDGv5bs2aNlANvb+8MGTKQgMshuhTCrCaim8B0Qgj6pt0p0K5du4CAgHLlyqn8yyBaGjt2LIpz6tSpdMBJb+0ClaC3nVEeNCJpFDkqvGDBgqQTJ06MyHXo0AEdT0IqaEyZMsU0l6hb4WwBWViTKKdv376qyDZSlXIMzT0RAv357bffevfujZbBjNSoUQPZRr8gZrhY6CzcmGvXrkFST0/P7du3nzx58uuvv1Y3hwGmF3OB3kEB4RuIcYDCNWvWxD9mWtGdSCOEggFI43ucP39e5pcGGbLxiA/9+YcL7cEhy4qHLkCs582bpzIeHgixSjllUA3jeQPNjs5B71E/8DckQ9XJ9jpTggqkM5AVCtIN2SUSyIGBIUOGSJZ7oS+eA96SqGfU5MKFC6129syZM/QQ9Wbd96pYsaJxZ59HIL2YYxzoZcuW0dSPP/6orhkwceJE1bTNFsG7cINoOAwfhbCCj49PuArMihIlSuB3IsnwEw6AFPI4/NFPP/0URyhFihRSCPLnz49mCQkJQVNgCWEXhi8bbEga6bRp05KQfkYIsHj37t3hXSwD00Sb+KbqWgQBAffs2SNp6All9u3bZ9wftcI+y6K0RInCHzJ+fZ5Ng6hCNqzx/bGeXl5eqDek84svvsDdJPhASfP4Y8eO4Udu2bIFWqs7bd6FJOBCOID6sAuOsj4co02tBpxn9FLsAmUAp6qMARcuXMDWq4xj4NXwaDw8HrRo0SImldb0ygCKUNV7GfCuUUeiVu3Gc0wz2t3oaOIaqXtsmD17NrEjw4RQeAJyfILWMHfY06pVq9IldWcYEDb41SiECLO0hqehSYHm+3d3cV8vHGrZHTt2SFAiDivA3gnbwWdwp/EEN0Yh3Dj90qVL4rvUq1cPKqMC0dxy6FgDKjNnK1ascOXkTVQA0Tp79qzKhEEULayp8hag7N9//300GV6pKnIBDBYOQ8ixjwcOHFClBkRiPQFdg/DD/Sr/vwhn4ZcAnVG8eHHmDEKgKghUX2VpJnIrSv8uiPfDPRMD1zo3Z268LrjPGLgRzeDesHUjmsEZyxIY4bCqjBtuRARDhgxJlixZ3rx533vvvbJlyxLNC+LHj79q1arJkyc3bdpUdhAPHjwol+T1oaFDh8aMGXPw4MG2ZuxB/AMrNm7cmChRonfffVfW/DWidPf1DYBQev369dAlSs/ng9GjRxOnEmteD3tLlphyypQp1vAuSrFr1y4iWpV5Hdi0aROMMWHCBJU3ICQkRI4Q3Lhxw7qgDkcmsLw/t2DBgo8//ljSsWPH1m+pEDJJm1bYZ1nYVPYVQdGiRadNmzZmzJjChQs3adKE7o4fP16qESDL7jP46quv+vXr9+8yNDH43r17TWsXv/76q7ypzFXjVqpsf0catLZixQpHJ9ORB/3CTPbs2WX9eNiwYWTTpEkzf/58KLx582a9JCkgrt22bRstk4aS69atk55HFIGBgXAPiUuXLjGPKDBZmYEUJoF59uzZokWLTPE0bCT7lICAm1v0OhoJvXOrdRld9ff3L1WqVMKECRMnTkyDcvIBBmWkskmZJ08e7pXDMUCzqSBevHjGkiJFiggR7MKhlu3cubOjF6EgQZcuXSZNmhQrVqwPPviAvlauXFku0ePGjRsLHxNlN2/eXK/7QDVhaHrDvRs2bJByI44ePdq6dWv00/79+2/fvt2xY8cff/xRXXMKeAKh6tOnD32Aprly5apVq1amTJnonnRME9qI3r1769NDzpfVUB7oZhgIjcUo7t69u2zZMlqA/wICAhhyvnz5ypUr17dvX+i2cOFC2eYFadOm5W+NGjUYl5QIZGcBIwZ/IGY9e/bMkSOHFCJLMJy8/Ojr66t64ABHjhxp1KjRJ598kiJFirVr11Iyc+ZMbsyWLRt+nfENSnooe+AwBJ1HESJy6CNKvL29kTEo8N1338l2Hab51KlTDx48kHfjPD09ly5dqrf6BBSip2A1ed3Xii1bttCf8+fPt2jR4sKFC6QhY926ddGApK9evSrv+VWtWvXMmTNYP4ggL7E6n3SHLItMAHnp2ajPtfJwAj8/P/kiC2AKaQ09T7pbt27MNzMql8aNG4c+GD58OGSCy5F441kTAYR2InAa8iUSVzBixAimR3MwTAPRkQ2MeLNmzRCkc+fOSZtQfMaMGVu3bqWHTLPUjxCYUdOHIAACr1Iuo3v37nDV559/PmfOHIT5xYsXKD/pJMyqKlmgxfW1A3JlyZJFZcKQLl06Zhk7hlqF81auXCk9dAI41fiZCxcRzrrs/fv3aReDcvz4cURk+fLlaBomUlZqUQzoNv3BGHqcMmVKSUcaSZMmlc8jaMBeckgCEYJ75CgdaR6NAcKRN24+CbCGyAx8nDNnTiwAGpcO49HPnj2bG7kdQXd0RgSgO4HKuAA6jBI1bpHTJcILcezk4AGAgzE1QUFBskWcO3du4y2Abjv/hoMGkQ2RMa1JljhGf/wCcFUf9oOePj4+PAuZhKswfahe4WZMAR5nuJyNnIj5AmgQtCZKhEejmMqUKSOb4RDTuHkepQiHZR2Bid+3b594Wgg9njUMQRo7JWMDgwYNMk2JBlGkWEwrmFfaWb16tZeXl1EAUCeyhwmsXjxAuLG/hJ9YNBT2P70MD6h8jLJsboV77oTpYYw4Z8aXvLFl+v1vvAUm8pdffjG9/o+00/Pt27ervA1iOjCXVM6YMSOEgnTBwcGUY7Ip7NChw4EDB4y73I6AlaApvOpevXoRjGPE4B7UMOLdv39/o5EVcQXQR74VRxoiLFmyBLenZcuWixcvZhTcS/BNO3jbNCjV8CJQAfrdZg2uoggI8lQ+6hFJlnUEBiDHz+TrXShCvKLSpUszWnHm4EJoISOnMoEnPCr+ABXGjh2r4znA5KEstRZ3ApqNNNXw4fAHHj58iA+A/sN7adCgQd68eRESfAN4FOBTGrUI/Ud5M50q/2qAS1BdKmMBPn3FihXl00mwGsobp9nonumTQP8neM0sC1AzcmpWoNeSEHHm3m6IDTc4X/phRolDcUPnzp0rR0XxgzG7PIgQ6lU2kKMpGLJ8gAevMaq/G/C2wb1h60Y0g3vD1o1ohreRZX/99VecfdxKWZeVwuvXr48cOZLwlhCVcLtEiRI4CeIVcLVHjx4xYsSgPrEzoYOnp6fxSP9rAbHm1KlTO3funCZNGp7lZMHBjaiF+AeRBjHBlClTZF+AdKNGjQoWLEh0cvToUbJSR4DvVb169XTp0jVs2HDPnj1Pnz797rvvAgICTHsKx44d0ws0AOYLCQkhgnbyPh3+nEq9DOPWUZ8+ferWrYtj/eDBA7uHUzXoNg63XvgUUGL9rhvx9f2wb8i58cbwqiwLw8n8xY0b17SkJW+n3Lp1C61JcO1kCX39+vXUhFN79uxpfb3E29s7ue2tJoRh+PDh6Ffj1xGdoFChQlu3bqWT+vx/hQoVZP1SFnc1iGBKlSo1dOhQHx8f2bhKnz49vVq2bJnIpOyYW/uGRMm+JcHlX3/9NXny5K+++gpRcfGVfDcigciwLLOI2gsODl6wYIGaOtfg6+s7f/58+Mb5S4g1a9YMCgpi+oEqsvGffnEenD59eunSpSIM0pos1ubKlcvE0MYffdDgFr3LdeTIEetejka1atXkuEXRokUvXbqEDCCKn376qVwVVKxY0WgZBAihozc1MDiyIE8aMtr9MCUysHPnTrsLzCdPnnwD66C3b9+2rsJGGli2Fi1aIM/Hjx8vXLgwjpy6EHE4Y9nnz5/DEypjAA9W0xIGLy8vJpIEOixHjhzMcevWrU2bnBkyZNALXvfu3WvQoEGnTp3gQv2qNGoYbhs9erTRozh8+DDVJk6cqO+1Asp+/fXXmPILFy5w74sXL65cuWJ90RkdCadCOOlY8+bN//zzT9PLotTZvHkz+lXlw1CjRg1jr+g/7g2qGj52Yj2KFy8+adKkbt26LVmyBMF4+PAhChu5lasYJTkyEjNmTGaxQIECuEnFihULDAycPn36GNvbl1WqVLl58yb6W55LAoqJCOlTKa8CBoUndurUqWbNmq1du5bpbtu2LelFixalSpUKchE/jBo1ilFg35gLOSogNyI5WongIMlSI+WYLMKJlStXEmwwF7A+kck/A34ZNEjswbMgjjTiIuyzLHM5bdq0lClTEmTMmDGja9euaC/Z1CEe0g4AbJE/f369lE3/GDO91woMby9fvnzMRO3atR19h4dnQbK7to9T0IIUvjpo9uzZs/Sf3pYvX37QoEHMt7SPxEv/NRjdunXrcAz0HhUKHpoycIKtjz/+WB8gtIKZy549e8mSJWkBbmvZsiVDxk13bkkiBGSMQBNiGr12VADcz+OIOGHxtGnTrlmzxu5riSh7ADPRPe3HY52yZs1q3MkDIgzOMXjwYBqRQx30Yfbs2ZQQaUDnJEmSmJxDIxBL/ZUDEyA7PACjt2nTJtxVdvssiyumv3yhkThxYoIq5oM0LHjjxg3jTtXbCVjNSgImz3jUrX79+pSoa5GC3dsx61CpUqVKfn5+WCFxx1Fd8NnChQvRPRCZSADdJm8vO9rBjijKli2LUqRxTBPmAnMHP+GaEwNIBXTQtm3bHK14wHZ4bipjMwU0iHMFrCzhCFha054l9+LiYyrpG85VxowZP/jgA4J166jbt28P9ZzMiEPH4Msvv8RGDxgwwHpQg5IIvUr6FuLMmTP+/v7MHPL9ZgQPHY/xseveoBoxuFzSK3oauOwzZ86UDT8rsKr6y1+RBn45hoI+4F+isJlZ2AVTvnr1arpkegdTvm0PW9eqVQt569WrF5KA90InUWe7d+9GVNBlUhnaYgTk80eYHSnUEKbkLlsvXgJhyaxZs6SaFeGHX1hY3ER0lehXmpPzA25EBfr37w+R5Sg6zokUYitwgv+ZTNvxq2zZsu3fvx8/QWYde0pggK+MikGDmj6Tg4rVP981YcIEY6BZr149vEn53r+L4InIlYunjjScLwUiBogNlgf3XZ98chKfuTds3YhmcG/YuhHNECUsS2B+08H3ml3HvXv3vv3222vXrpEmWMmUKROuOgZOg4AGA4qzJfU1cGNw4TGXKv86cPfuXUxzw4YNkyZN+sknnxD8LjX8eK8bbxTiH7wKmE5jVPH06dOiRYsSae7YsUMVhQE+Ll68OOFkly5dQkJCjh8/fiLsd181Hj9+PGjQIP2iS65cuU6dOuXkh+xix45Na/Pnz69Tpw5PHD58uP7SqnHDdurUqd26dZs+fToRtLwsYIWEHVu2bPnoo4/oJ32T1wkp1z6WCU4+0OeGXcAqX3/9tbwWFjm8KsvCJXHixMmaNatsOqAXjWv4uNX6IGxgYGCZsA/warzzzjvz5s3j6t+278vqFzacgGcVLFiQ0EHlncLX15c2jZ81BRSaVr6IW2lWXX4ZlSpV0r/62apVq8GDB5u20+gJsXP37t1lMWjkyJFz5szx8/OTleZw8fvvv0f0oIJ+9zqKsG3bNkbh4+NDVIcCQvKJ/fv27Xvp0iVVw4LTp08fOHBAwjJGZDrC+/z589WrV0PzvXv3YqCEbl5eXugmgntVyWVEnmV5GCpNv0oqy/WSNsLT03PXrl3ykQUBSjHly6+IodWMb/MmSJAAzjh8+DBRJA5A3LhxEyZM2KZNG8JkSMOjJVIGdMD6SUYXIZ/ZkoPnrrzZ17NnT3kowPcYOnSo89clcufOfebMGeJxpp/Yf9KkSUgv6X379hEj42N8/PHHGTNmRGgZII3PnDmTKZc9CwZ44cKF6tWrEzijk4zn3//666+8efPS4eXLl0OlI0eOGGfd7laCXVy9ehUTgbRwi9ATlsIEWd8Y1WAu8uTJc8j2uyCwMh3YunXrsWPHsGCyDJc4ceIaNWrIqiiSvGnTJtpHJWk2taJYsWLGFwJcgTOWhYKOVAXeqvEDtEbUrFkTuqO3WrRooYoMkMWLoKCg/Pnzw+UdOnQwLVCbVjeCg4PllXwngHzQEf5AmyLrPJ3ujRkzRpbE9Y7OrFmz1qxZ06tXL8niB6Or9Mf/cVKRJQwWrIxgjB8/HoagTubMmRlIx44djW6GABvXuXPnatWq4QWlSJECC9OvXz9Ha6guAraoXLmy6UW01KlT480jXf7+/rIxbgRmDfVfsmRJuaQJiLZzosOMmylpbL+ArDI25MyZk56ojA1664HBNmvWTL5fHVHQZsuWLc+dO9e1a9cqVaroDUJUGAaZSWSCGKbqogM4ZFl4n4aQm8uXL5v2UX/88Uc5DwU3oD+4evDgQSYPKkBuI4ehF/ECk9heVEJnGHuDZItwE2CNGzcO9YMyXrJkid5Pfy1Yv349TEyohCpVRZbla+j45Zdf2j1N4SLu3LmjDytCN/QlOkyW0AHcwNhNKtnb2/u7777jufgtxt0mE/QlBNvubqfdbWE4e8aMGZgmIlQmRXZB0Q7oZkJYZMzRThtP4ap80hlrTs8pWbZsmewcMShjH+LHj48JxcqhmJET2AAvceDAgaNHj4bm9EFv3mJGGClsKpZNgwbhfqmjgcHBy7IqCA37LPvTTz/p5wEeGRAQwMQjtag0QiIKYWgjHzgB4o6N4EaV/7eBqGhPABUVdV9jvXXrFuItggrpcHnxE5g5dIlUMAKHAfbVZIer5BvIWA+7b6ijztEIWEI5Z0OcwO3WH9t3BfDZggUL1q5dazKqMLrpXT2cVAwODErfnHCVANcOswMRVN4BcDCwEqorYcDiqcsW2GdZJpVW5BV1u0BxRus9W4wDo4vcZ9ejFPimmE7xaDVgdzk9h5cPXxIYwAf6JBeTpbdV0Q442bLAki9fPhQk5kubRNQndgwXVrSs7JPpPbZ/F8g2Zke+JIIuN336yQiHjgF6HhstClWOd5AQMNlIhqoXbSFuSTQCQTcMrTLhAXWot1XxuXXkKmByT548CQW0P/OWAM29ceNG56c+3Bu2bkQzuDds3YhmiBKWvXDhwty5c1HvKm/D/fv38bSI2EaNGoWbQVR46NAhLJ26bAOmKjg4WNKEk9Qh+CBNBDNmzBiihESJEhHgE2r4+fkRz0lNE3hK3759f/jhB5U3gFtkB9gRsKE8S2UcQ07oqYwNDJnQSmVeE2S/QGXeLHjuzJkz5Q05VeQCqIzbrTIOwLQWKlSoevXqNL5jxw5VGiHwmNcLZk42wAjRihcvvnfvXmZ32rRppnU+AYVNmjQhXA0JCaFanTp1KCxatCgcKe9yAScr9lWqVBk7dqy/v//u3bvXr18Pw23atEmvLhHHHDhwgChYFti5CrEIybdt2yZdNYEIgD4TntevXx+Czp49e9iwYbK0efDgQSLlgIAA4oOMGTPSeIYMGVq3bs0txM6EqgQ3sWPHJkDevn07dzVo0MB40pSoQG8OCRjsunXrrHvalCNysk0AcTJlyoT43bx5U11+GVSW7gEesWHDBvpGP2mBEp7o5GAhrMMj0CPacURWISNO8Jo1a2QiwL59+2gZAu7atQuHWC8Fom4gxWeffVazZs0OHTpArgEDBmTOnNnT05PpaNSokf4eFJ2UBDh79qzxJyYZINEhoeSjR4/0Kdtw8Uosi/NuXGoFM2bMcP7tPkI3CelMgMuNi9uOAEtZX87WcLSJBZuaXifMnz+/fAYLvfv999/36NFDn2qwwskGm5ONg5IlSwYFBcEQq1atKlu2LCVQBrsxaNAgHx8f/VuYvr6+48eP37x5M1LN9MvLCyakT59+586desUaIbxy5cro0aNlKQDhMf3UKB1u3769pGEj+A/bxXiZHSxVp06djEcmGEL27Nnz5Mlj2pLUQBqBpKEkDDp06FAn7+hr0GDhwoW5l/aB8Wf05KU3DSEjw4RoyEb//v2d7EhHnmVXrFgRJ06cLFmytGvXbunSpVjG3r17Sw/oX2BgIKqidOnSUgJQXefOnZPVWSRvwoQJOA+dO3dmOhFNVcnDAz1Btm3btsuWLaMFVBeMiDadOHEiKkFLOXyGKKOAkVT9NUwN9N+WLVuMP2ttF6IvjYAJmA90pJ4kI3BI0KM1atRg7EBWZAA9pDOwI1YlceLEUihwtGjvCjA1ixcv1sxdoECBZs2aQUa9SW4XdhdxIwQY6IsvvkAkVN4GZN4kujlz5mTqu3btygxCGeSNvpmGbwVTKWeh4AGcPS8vL3XhZUBnmWgrIsOyaA6mx7TRqoFh0taKbl2+fBkRP3nypFYSVnBp9erV2CnMutGOAKTNVGIEl0Qc+YtjwKTiK6P79S0YbrQL1g3uh1IYyosXL8qHqjVQGKg6lByaTJszOozt27hx45AhQxYuXDhu3DjrVgjODNbQ9I4G7gcuAfOtJxjLgOeAhsudO3etWrUQYyQKT/H06dPTp09v3rw55ShgNCX8Xa9ePeojrnRVRoHFrFatmjRlQpcuXXDNmzZtyhAwFKgARJoOQEncqrp160ITeihMTAn6BfYiW6JEiWLFiiHSSCa3o3GgPFTidvn8I8/l6RUrVkQ14m9oq800wZ34V1gGk4EVQPzr16/TeXQKQF9C1VmzZqHOsmbNijqwziY0h0PwEPSr9qh8HqouWxAZloUK0jQSw4yik5BLtB2EoE92R/K2Afef/qNToanxRzpfL/BrMRfYH5V3DXYJSEgQN25cOBsPCjZCABBOPf1aR2jQiL5K2tF2tKNyAS2Y9uqjGugFNIUT7QZcYlkGhk1H8aBX0EbCr5MnT9ZEEVUq6WgBJHvOnDkoJJWPDrh9+/YT20uqzvnsfx72txIgDZYL5QxTItzWBaN8+fJhc+06fG64EaWwz7K///47oStGQeVtZ3xkyY2Et7c3voErAb4bbrx22FeTuOq49oSNspZBlAD74k4RN+AerFu3zs2vbvxbcJ8xcCOawe2MuhHN8PpZFrcBf1dW+JctWyYesBGEdOPHjyek27lz58aNG1Hzd+7cuX79OpcIh+W3y0gT3lWtWpXWcEU2bdpEqEebRlSsWLFhw4anT58+cuTI06dPt27dOn/+/CRJkqjLMWLEiRMnODj4wIED3bp1k+3yW7duHTp0yNYLh/jtt9/8/Pzwi/CFiM1V6evG33//3bZt2549e6r8W4Y5c+YIDQ8ePKiKXh9khVtlIgFujhwI0YYNG7Z8+XLjOuLYsWMZp2raBh8fn/Pnz48aNapUqVJLly5dsmSJ/vVQgbjLsNeZM2fke3p169adO3eu8z0eExxt1cY1fGsWLpQ2kYR+/frJRjx48uTJhg0bBg8ePHHixHLlyhlfx0AA2rRpU7t27alTp9LzoKCgadOmIUuwGq3pE6jPnj3r2rUrIamQApmk5P79+5s3b6YEaVyzZg2UMR4VmDRpkjzi8OHDeq3QCG6nwcmTJ4d7+B/QgunjWU5ATfSFk7XPc+fO6c1b/XvFJtDtrFmzDh8+XOVtoBs0C5cT/NgdFAgMDEyaNGnevHlXrVrlytCsiCTLXrp0Sb82CR8wf3Tx2rVrMt8tW7bcvn17lbDfBHURjr4VYMK2bduOHz8u73A72g6tU6fOvn37VMYB6tev365dO4irz99EFAkTJtyzZw8KSW/xx4sXr2zZso7O8RQvXhxWZp46duxo3GRPnTo1naEQNv355593795tjG6hM3dZOYASbIjMunyMFiNDifAi4kE3atasuXjxYn34BruBXpBtah5KeH3ixAmuNm7cuK8Nvr6+1atXN75PRgsYQ/js8ePH2Ch504aJ1huz2Lrvv/9+4cKFvXr1YlL0W41Dhw5FBZh2Iuib3uUG9MT1V4I1IsaykOns2bPIqPUtuRYtWsjxn5IlS6raoaHz5s1LlSoVfkKxYsWkGmC0zZs3L1OmTL169W7fvg051q5dq67ZQOX8+fP36dMHrdahQwfI4e/vj5JD5aDUpWUoeMH2tcBTp06hI5nyvXv3osxCQkK4S85M4VQw3zzl3r17coKkR48eTZs2lacYkT59elQpgypSpAiqET1UoEABI1dly5ZNsvI3S5YsuXPnJuHkWIwRKBXrORKjBQgXnrbfOMbLYgpGjBiB7heVQSMzZsyQOgK6qq9qZM+eHYExHkxxDmTG1KwGc1GrVi2VCQ/YYYyMbKrjcelP3DH7ksB7XL16tUnlO9/iiRjLGj8NWbp0aXQtYmT6ELb1XTzREPiFQ4YMsfthZCrIl7Xh5kj8Dq8rQEPI0S2ASyBdFaAsRVfhY0lXAQnoiEQdPXpUShAGOs9f1Dx/ISvCKS0EBARgTFeuXIn/g8IbOXIkFrNZs2ZyNkA+GY3jIZVBsmTJoBL8Bxcivd7e3tavvcq5zRUrVhgdLThPfrr7VYC3w0PhbDndhmEsX748+rVVq1aoRmSVNARBYUt9wC38NfaENJqCG6URBBJ/r0mTJqYjWgIqN2rUSJQFFXAJIAhmUDeYPHlybDKMhNbDB8N47t+/30Z1O3CVZZkktJ08AHh5eeljIszuggUL0LLYCGyN0bV1HShCfIlImInIQRgIbYRGd3R8NlzQW1rA7VZ5C6CMfqkTASAYxQ/GRtnd3MY7pFcwJR3r37+/KrW9xUX92bNnm5x7WI2oFGuu8jbAcBMmTKhRowZpTPCNGzcePXqEp4HKnDVrFtPErBknCP1nst0adF5O2C1atIg0DMCN69evl4+kwN+qns33RbYlzXgvXrw4evRodJBdM2L8tBERc+vWre2et0QLqEoWOGTZ58+fIwcwOz3ATRHDCpBOQhB94imagjnAcVSZtwn4JLikdtkI5kNr4C/BfBhZzfdwJNEk9hffUWSe0eFuvfpRBBxf3CSVCQOMgbWxHsSxArOGRF2+fBlLJVYUJ01dMwB7RUhQtGhRYTBAZX3w3Ar7LIusaFOlnTCkAcFFT6hKbrjhMtDQJ0+edKTRAWIG78LcXbt2xYtTpfbgcPcLH+Xq1auShutxuglxrFGXG268Ybg3bN2IZnBv2LoRzeBmWTeiGdws60Y0g5tl3YhW8PD4L8Z5ViSQWOpwAAAAAElFTkSuQmCC;" vertex="1" parent="1">
          <mxGeometry x="290.54999999999995" y="1689.6000000000004" width="119.57" height="45.75" as="geometry" />
        </mxCell>
        <mxCell id="SCrkmm0jVP4aJ3ksJmY2-226" value="" style="rounded=0;whiteSpace=wrap;html=1;strokeColor=#8C8C8C;" vertex="1" parent="1">
          <mxGeometry x="75.98999999999998" y="1620.13" width="122.91" height="50" as="geometry" />
        </mxCell>
        <mxCell id="SCrkmm0jVP4aJ3ksJmY2-211" value="" style="rounded=0;whiteSpace=wrap;html=1;" vertex="1" parent="1">
          <mxGeometry x="547" y="1664.13" width="188" height="90" as="geometry" />
        </mxCell>
        <mxCell id="SCrkmm0jVP4aJ3ksJmY2-1" value="" style="points=[[0.25,0,0],[0.5,0,0],[0.75,0,0],[1,0.25,0],[1,0.5,0],[1,0.75,0],[0.75,1,0],[0.5,1,0],[0.25,1,0],[0,0.75,0],[0,0.5,0],[0,0.25,0]];shape=mxgraph.bpmn.task;arcSize=10;taskMarker=abstract;outline=none;symbol=general;bpmnShapeType=subprocess;isLoopSub=0;verticalAlign=top;align=left;spacingLeft=5;strokeColor=#8D2FCC;strokeWidth=2;fillColor=#FFFFFF;" vertex="1" parent="1">
          <mxGeometry x="585.8399999999999" y="2349" width="160" height="301" as="geometry" />
        </mxCell>
        <mxCell id="SCrkmm0jVP4aJ3ksJmY2-2" value="" style="points=[[0.25,0,0],[0.5,0,0],[0.75,0,0],[1,0.25,0],[1,0.5,0],[1,0.75,0],[0.75,1,0],[0.5,1,0],[0.25,1,0],[0,0.75,0],[0,0.5,0],[0,0.25,0]];shape=mxgraph.bpmn.task;arcSize=10;taskMarker=abstract;outline=none;symbol=general;bpmnShapeType=subprocess;isLoopSub=0;verticalAlign=top;align=left;spacingLeft=5;strokeColor=#29CC70;strokeWidth=2;fillColor=#FFFFFF;" vertex="1" parent="1">
          <mxGeometry x="47" y="1870" width="823" height="470" as="geometry" />
        </mxCell>
        <mxCell id="SCrkmm0jVP4aJ3ksJmY2-3" value="" style="points=[[0.25,0,0],[0.5,0,0],[0.75,0,0],[1,0.25,0],[1,0.5,0],[1,0.75,0],[0.75,1,0],[0.5,1,0],[0.25,1,0],[0,0.75,0],[0,0.5,0],[0,0.25,0]];shape=mxgraph.bpmn.task;arcSize=10;taskMarker=abstract;outline=none;symbol=general;bpmnShapeType=subprocess;isLoopSub=0;verticalAlign=top;align=left;spacingLeft=5;fillColor=#FFFFFF;strokeColor=#1930FF;strokeWidth=2;" vertex="1" parent="1">
          <mxGeometry x="185" y="1903" width="525" height="430" as="geometry" />
        </mxCell>
        <mxCell id="SCrkmm0jVP4aJ3ksJmY2-4" value="" style="points=[[0.25,0,0],[0.5,0,0],[0.75,0,0],[1,0.25,0],[1,0.5,0],[1,0.75,0],[0.75,1,0],[0.5,1,0],[0.25,1,0],[0,0.75,0],[0,0.5,0],[0,0.25,0]];shape=mxgraph.bpmn.task;arcSize=10;taskMarker=abstract;outline=none;symbol=general;bpmnShapeType=subprocess;isLoopSub=0;verticalAlign=top;align=left;spacingLeft=5;strokeColor=#FF6038;strokeWidth=2;fillColor=#FFFFFF;" vertex="1" parent="1">
          <mxGeometry x="542" y="1956.5" width="70" height="258" as="geometry" />
        </mxCell>
        <mxCell id="SCrkmm0jVP4aJ3ksJmY2-5" value="" style="rounded=0;whiteSpace=wrap;html=1;fillColor=#009900;" vertex="1" parent="1">
          <mxGeometry x="75.66" y="2027.5" width="60" height="10" as="geometry" />
        </mxCell>
        <mxCell id="SCrkmm0jVP4aJ3ksJmY2-6" value="" style="rounded=0;whiteSpace=wrap;html=1;fillColor=#009900;" vertex="1" parent="1">
          <mxGeometry x="67.66" y="2033.5" width="60" height="10" as="geometry" />
        </mxCell>
        <mxCell id="SCrkmm0jVP4aJ3ksJmY2-7" value="" style="rounded=0;whiteSpace=wrap;html=1;fillColor=#009900;" vertex="1" parent="1">
          <mxGeometry x="58.66" y="2039.5" width="60" height="10" as="geometry" />
        </mxCell>
        <mxCell id="SCrkmm0jVP4aJ3ksJmY2-8" value="" style="rounded=0;whiteSpace=wrap;html=1;fillColor=#009900;" vertex="1" parent="1">
          <mxGeometry x="50.66" y="2044.5" width="60" height="10" as="geometry" />
        </mxCell>
        <mxCell id="SCrkmm0jVP4aJ3ksJmY2-9" value="&lt;b&gt;&lt;font style=&quot;font-size: 18px&quot; face=&quot;Times New Roman&quot;&gt;...&lt;/font&gt;&lt;/b&gt;" style="text;html=1;strokeColor=none;fillColor=none;align=center;verticalAlign=middle;whiteSpace=wrap;rounded=0;rotation=-45;" vertex="1" parent="1">
          <mxGeometry x="90.66" y="2005.5" width="40" height="20" as="geometry" />
        </mxCell>
        <mxCell id="SCrkmm0jVP4aJ3ksJmY2-10" value="" style="endArrow=classic;html=1;" edge="1" parent="1">
          <mxGeometry width="50" height="50" relative="1" as="geometry">
            <mxPoint x="143.65999999999985" y="2032" as="sourcePoint" />
            <mxPoint x="183.65999999999985" y="2032" as="targetPoint" />
          </mxGeometry>
        </mxCell>
        <mxCell id="SCrkmm0jVP4aJ3ksJmY2-11" value="" style="ellipse;whiteSpace=wrap;html=1;flipH=1;fillColor=#FF553B;" vertex="1" parent="1">
          <mxGeometry x="685.1599999999999" y="2369.25" width="50" height="27" as="geometry" />
        </mxCell>
        <mxCell id="SCrkmm0jVP4aJ3ksJmY2-12" value="$$h_1$$" style="text;html=1;strokeColor=none;fillColor=none;align=center;verticalAlign=middle;whiteSpace=wrap;rounded=0;flipH=1;" vertex="1" parent="1">
          <mxGeometry x="693.1599999999999" y="2374.25" width="40" height="20" as="geometry" />
        </mxCell>
        <mxCell id="SCrkmm0jVP4aJ3ksJmY2-13" value="" style="ellipse;whiteSpace=wrap;html=1;flipH=1;fillColor=#FF553B;" vertex="1" parent="1">
          <mxGeometry x="605.1599999999999" y="2369.25" width="50" height="27" as="geometry" />
        </mxCell>
        <mxCell id="SCrkmm0jVP4aJ3ksJmY2-14" value="$$h_{1}^{&#39;}$$" style="text;html=1;strokeColor=none;fillColor=none;align=center;verticalAlign=middle;whiteSpace=wrap;rounded=0;flipH=1;" vertex="1" parent="1">
          <mxGeometry x="610.1599999999999" y="2373.25" width="40" height="20" as="geometry" />
        </mxCell>
        <mxCell id="SCrkmm0jVP4aJ3ksJmY2-15" value="" style="endArrow=classic;html=1;flipH=1;" edge="1" parent="1">
          <mxGeometry width="50" height="50" relative="1" as="geometry">
            <mxPoint x="657.1599999999996" y="2383.25" as="sourcePoint" />
            <mxPoint x="683.1599999999996" y="2383.25" as="targetPoint" />
          </mxGeometry>
        </mxCell>
        <mxCell id="SCrkmm0jVP4aJ3ksJmY2-16" value="&lt;font face=&quot;Times New Roman&quot; style=&quot;font-size: 16px&quot;&gt;&lt;b&gt;FC&lt;/b&gt;&lt;/font&gt;" style="rounded=1;whiteSpace=wrap;html=1;flipH=1;fillColor=#FFE605;" vertex="1" parent="1">
          <mxGeometry x="471.1600000000001" y="2483.75" width="59" height="30" as="geometry" />
        </mxCell>
        <mxCell id="SCrkmm0jVP4aJ3ksJmY2-17" value="" style="rounded=0;whiteSpace=wrap;html=1;flipH=1;fillColor=#FFF826;" vertex="1" parent="1">
          <mxGeometry x="396.6600000000001" y="2461.5" width="30" height="80" as="geometry" />
        </mxCell>
        <mxCell id="SCrkmm0jVP4aJ3ksJmY2-18" value="" style="endArrow=classic;html=1;" edge="1" parent="1">
          <mxGeometry width="50" height="50" relative="1" as="geometry">
            <mxPoint y="2031" as="sourcePoint" />
            <mxPoint x="45.659999999999854" y="2031.5" as="targetPoint" />
          </mxGeometry>
        </mxCell>
        <mxCell id="SCrkmm0jVP4aJ3ksJmY2-19" value="&lt;font style=&quot;font-size: 18px&quot;&gt;&lt;b&gt;...&lt;/b&gt;&lt;/font&gt;" style="text;html=1;strokeColor=none;fillColor=none;align=center;verticalAlign=middle;whiteSpace=wrap;rounded=0;" vertex="1" parent="1">
          <mxGeometry x="679.25" y="2016.75" width="40" height="20" as="geometry" />
        </mxCell>
        <mxCell id="SCrkmm0jVP4aJ3ksJmY2-20" value="" style="rounded=0;whiteSpace=wrap;html=1;flipH=1;fillColor=#FFC847;" vertex="1" parent="1">
          <mxGeometry x="785" y="2023.9999999999998" width="60" height="10" as="geometry" />
        </mxCell>
        <mxCell id="SCrkmm0jVP4aJ3ksJmY2-21" value="" style="rounded=0;whiteSpace=wrap;html=1;flipH=1;fillColor=#FFC847;" vertex="1" parent="1">
          <mxGeometry x="777" y="2029.9999999999998" width="60" height="10" as="geometry" />
        </mxCell>
        <mxCell id="SCrkmm0jVP4aJ3ksJmY2-22" value="" style="rounded=0;whiteSpace=wrap;html=1;flipH=1;fillColor=#FFC847;" vertex="1" parent="1">
          <mxGeometry x="768" y="2035.9999999999998" width="60" height="10" as="geometry" />
        </mxCell>
        <mxCell id="SCrkmm0jVP4aJ3ksJmY2-23" value="" style="rounded=0;whiteSpace=wrap;html=1;flipH=1;fillColor=#FFC847;" vertex="1" parent="1">
          <mxGeometry x="760" y="2040.9999999999998" width="60" height="10" as="geometry" />
        </mxCell>
        <mxCell id="SCrkmm0jVP4aJ3ksJmY2-24" value="" style="rounded=0;whiteSpace=wrap;html=1;flipH=1;fillColor=#FFC847;" vertex="1" parent="1">
          <mxGeometry x="800" y="1998.9999999999998" width="60" height="10" as="geometry" />
        </mxCell>
        <mxCell id="SCrkmm0jVP4aJ3ksJmY2-25" value="&lt;b&gt;&lt;font style=&quot;font-size: 18px&quot; face=&quot;Times New Roman&quot;&gt;...&lt;/font&gt;&lt;/b&gt;" style="text;html=1;strokeColor=none;fillColor=none;align=center;verticalAlign=middle;whiteSpace=wrap;rounded=0;rotation=-45;flipH=1;" vertex="1" parent="1">
          <mxGeometry x="800" y="2003.36" width="40" height="20" as="geometry" />
        </mxCell>
        <mxCell id="SCrkmm0jVP4aJ3ksJmY2-27" value="" style="rounded=0;whiteSpace=wrap;html=1;fillColor=#009900;" vertex="1" parent="1">
          <mxGeometry x="75.66" y="2142" width="60" height="10" as="geometry" />
        </mxCell>
        <mxCell id="SCrkmm0jVP4aJ3ksJmY2-28" value="" style="rounded=0;whiteSpace=wrap;html=1;fillColor=#009900;" vertex="1" parent="1">
          <mxGeometry x="67.66" y="2148" width="60" height="10" as="geometry" />
        </mxCell>
        <mxCell id="SCrkmm0jVP4aJ3ksJmY2-29" value="" style="rounded=0;whiteSpace=wrap;html=1;fillColor=#009900;" vertex="1" parent="1">
          <mxGeometry x="58.66" y="2154" width="60" height="10" as="geometry" />
        </mxCell>
        <mxCell id="SCrkmm0jVP4aJ3ksJmY2-30" value="" style="rounded=0;whiteSpace=wrap;html=1;fillColor=#009900;" vertex="1" parent="1">
          <mxGeometry x="50.66" y="2159" width="60" height="10" as="geometry" />
        </mxCell>
        <mxCell id="SCrkmm0jVP4aJ3ksJmY2-31" value="" style="rounded=0;whiteSpace=wrap;html=1;fillColor=#009900;" vertex="1" parent="1">
          <mxGeometry x="90.66" y="2116" width="60" height="10" as="geometry" />
        </mxCell>
        <mxCell id="SCrkmm0jVP4aJ3ksJmY2-32" value="&lt;b&gt;&lt;font style=&quot;font-size: 18px&quot; face=&quot;Times New Roman&quot;&gt;...&lt;/font&gt;&lt;/b&gt;" style="text;html=1;strokeColor=none;fillColor=none;align=center;verticalAlign=middle;whiteSpace=wrap;rounded=0;rotation=-45;" vertex="1" parent="1">
          <mxGeometry x="90.66" y="2120" width="40" height="20" as="geometry" />
        </mxCell>
        <mxCell id="SCrkmm0jVP4aJ3ksJmY2-33" value="" style="rounded=0;whiteSpace=wrap;html=1;fillColor=#FF8000;" vertex="1" parent="1">
          <mxGeometry x="242" y="2115" width="60" height="10" as="geometry" />
        </mxCell>
        <mxCell id="SCrkmm0jVP4aJ3ksJmY2-34" value="" style="rounded=0;whiteSpace=wrap;html=1;fillColor=#FF8000;" vertex="1" parent="1">
          <mxGeometry x="234" y="2121" width="60" height="10" as="geometry" />
        </mxCell>
        <mxCell id="SCrkmm0jVP4aJ3ksJmY2-35" value="" style="rounded=0;whiteSpace=wrap;html=1;fillColor=#FF8000;" vertex="1" parent="1">
          <mxGeometry x="225" y="2127" width="60" height="10" as="geometry" />
        </mxCell>
        <mxCell id="SCrkmm0jVP4aJ3ksJmY2-36" value="" style="rounded=0;whiteSpace=wrap;html=1;fillColor=#FF8000;" vertex="1" parent="1">
          <mxGeometry x="217" y="2132" width="60" height="10" as="geometry" />
        </mxCell>
        <mxCell id="SCrkmm0jVP4aJ3ksJmY2-37" value="" style="rounded=0;whiteSpace=wrap;html=1;fillColor=#FF8000;" vertex="1" parent="1">
          <mxGeometry x="257" y="2089" width="60" height="10" as="geometry" />
        </mxCell>
        <mxCell id="SCrkmm0jVP4aJ3ksJmY2-38" value="&lt;b&gt;&lt;font style=&quot;font-size: 18px&quot; face=&quot;Times New Roman&quot;&gt;...&lt;/font&gt;&lt;/b&gt;" style="text;html=1;strokeColor=none;fillColor=none;align=center;verticalAlign=middle;whiteSpace=wrap;rounded=0;rotation=-45;" vertex="1" parent="1">
          <mxGeometry x="257" y="2093" width="40" height="20" as="geometry" />
        </mxCell>
        <mxCell id="SCrkmm0jVP4aJ3ksJmY2-39" value="" style="rounded=0;whiteSpace=wrap;html=1;fillColor=#6666FF;" vertex="1" parent="1">
          <mxGeometry x="384.5" y="2115" width="60" height="10" as="geometry" />
        </mxCell>
        <mxCell id="SCrkmm0jVP4aJ3ksJmY2-40" value="" style="rounded=0;whiteSpace=wrap;html=1;fillColor=#6666FF;" vertex="1" parent="1">
          <mxGeometry x="376.5" y="2121" width="60" height="10" as="geometry" />
        </mxCell>
        <mxCell id="SCrkmm0jVP4aJ3ksJmY2-41" value="" style="rounded=0;whiteSpace=wrap;html=1;fillColor=#6666FF;" vertex="1" parent="1">
          <mxGeometry x="367.5" y="2127" width="60" height="10" as="geometry" />
        </mxCell>
        <mxCell id="SCrkmm0jVP4aJ3ksJmY2-42" value="" style="rounded=0;whiteSpace=wrap;html=1;fillColor=#6666FF;" vertex="1" parent="1">
          <mxGeometry x="359.5" y="2132" width="60" height="10" as="geometry" />
        </mxCell>
        <mxCell id="SCrkmm0jVP4aJ3ksJmY2-43" value="" style="rounded=0;whiteSpace=wrap;html=1;fillColor=#6666FF;" vertex="1" parent="1">
          <mxGeometry x="399.5" y="2089" width="60" height="10" as="geometry" />
        </mxCell>
        <mxCell id="SCrkmm0jVP4aJ3ksJmY2-44" value="&lt;b&gt;&lt;font style=&quot;font-size: 18px&quot; face=&quot;Times New Roman&quot;&gt;...&lt;/font&gt;&lt;/b&gt;" style="text;html=1;strokeColor=none;fillColor=none;align=center;verticalAlign=middle;whiteSpace=wrap;rounded=0;rotation=-45;" vertex="1" parent="1">
          <mxGeometry x="399.5" y="2093" width="40" height="20" as="geometry" />
        </mxCell>
        <mxCell id="SCrkmm0jVP4aJ3ksJmY2-45" value="" style="endArrow=classic;html=1;" edge="1" parent="1">
          <mxGeometry width="50" height="50" relative="1" as="geometry">
            <mxPoint x="143.65999999999985" y="2146.5" as="sourcePoint" />
            <mxPoint x="183.65999999999985" y="2146.5" as="targetPoint" />
          </mxGeometry>
        </mxCell>
        <mxCell id="SCrkmm0jVP4aJ3ksJmY2-46" value="" style="ellipse;whiteSpace=wrap;html=1;flipH=1;fillColor=#FF553B;" vertex="1" parent="1">
          <mxGeometry x="685.1599999999999" y="2483.75" width="50" height="27" as="geometry" />
        </mxCell>
        <mxCell id="SCrkmm0jVP4aJ3ksJmY2-47" value="$$h_2$$" style="text;html=1;strokeColor=none;fillColor=none;align=center;verticalAlign=middle;whiteSpace=wrap;rounded=0;flipH=1;" vertex="1" parent="1">
          <mxGeometry x="693.1599999999999" y="2488.75" width="40" height="20" as="geometry" />
        </mxCell>
        <mxCell id="SCrkmm0jVP4aJ3ksJmY2-48" value="" style="ellipse;whiteSpace=wrap;html=1;flipH=1;fillColor=#FF553B;" vertex="1" parent="1">
          <mxGeometry x="605.1599999999999" y="2483.75" width="50" height="27" as="geometry" />
        </mxCell>
        <mxCell id="SCrkmm0jVP4aJ3ksJmY2-49" value="" style="endArrow=classic;html=1;flipH=1;" edge="1" parent="1">
          <mxGeometry width="50" height="50" relative="1" as="geometry">
            <mxPoint x="657.1599999999996" y="2497.75" as="sourcePoint" />
            <mxPoint x="683.1599999999996" y="2497.75" as="targetPoint" />
          </mxGeometry>
        </mxCell>
        <mxCell id="SCrkmm0jVP4aJ3ksJmY2-50" value="" style="endArrow=classic;html=1;" edge="1" parent="1">
          <mxGeometry width="50" height="50" relative="1" as="geometry">
            <mxPoint y="2146" as="sourcePoint" />
            <mxPoint x="45.659999999999854" y="2146" as="targetPoint" />
          </mxGeometry>
        </mxCell>
        <mxCell id="SCrkmm0jVP4aJ3ksJmY2-51" value="&lt;font style=&quot;font-size: 18px&quot;&gt;&lt;b&gt;...&lt;/b&gt;&lt;/font&gt;" style="text;html=1;strokeColor=none;fillColor=none;align=center;verticalAlign=middle;whiteSpace=wrap;rounded=0;" vertex="1" parent="1">
          <mxGeometry x="679.25" y="2131.25" width="40" height="20" as="geometry" />
        </mxCell>
        <mxCell id="SCrkmm0jVP4aJ3ksJmY2-52" value="" style="rounded=0;whiteSpace=wrap;html=1;flipH=1;fillColor=#FFC847;" vertex="1" parent="1">
          <mxGeometry x="785" y="2138.5" width="60" height="10" as="geometry" />
        </mxCell>
        <mxCell id="SCrkmm0jVP4aJ3ksJmY2-53" value="" style="rounded=0;whiteSpace=wrap;html=1;flipH=1;fillColor=#FFC847;" vertex="1" parent="1">
          <mxGeometry x="777" y="2144.5" width="60" height="10" as="geometry" />
        </mxCell>
        <mxCell id="SCrkmm0jVP4aJ3ksJmY2-54" value="" style="rounded=0;whiteSpace=wrap;html=1;flipH=1;fillColor=#FFC847;" vertex="1" parent="1">
          <mxGeometry x="768" y="2150.5" width="60" height="10" as="geometry" />
        </mxCell>
        <mxCell id="SCrkmm0jVP4aJ3ksJmY2-55" value="" style="rounded=0;whiteSpace=wrap;html=1;flipH=1;fillColor=#FFC847;" vertex="1" parent="1">
          <mxGeometry x="760" y="2155.5" width="60" height="10" as="geometry" />
        </mxCell>
        <mxCell id="SCrkmm0jVP4aJ3ksJmY2-56" value="" style="rounded=0;whiteSpace=wrap;html=1;flipH=1;fillColor=#FFC847;" vertex="1" parent="1">
          <mxGeometry x="800" y="2112.5" width="60" height="10" as="geometry" />
        </mxCell>
        <mxCell id="SCrkmm0jVP4aJ3ksJmY2-57" value="&lt;b&gt;&lt;font style=&quot;font-size: 18px&quot; face=&quot;Times New Roman&quot;&gt;...&lt;/font&gt;&lt;/b&gt;" style="text;html=1;strokeColor=none;fillColor=none;align=center;verticalAlign=middle;whiteSpace=wrap;rounded=0;rotation=-45;flipH=1;" vertex="1" parent="1">
          <mxGeometry x="800" y="2116.5" width="40" height="20" as="geometry" />
        </mxCell>
        <mxCell id="SCrkmm0jVP4aJ3ksJmY2-59" value="" style="rounded=0;whiteSpace=wrap;html=1;fillColor=#009900;" vertex="1" parent="1">
          <mxGeometry x="75.66" y="2252" width="60" height="10" as="geometry" />
        </mxCell>
        <mxCell id="SCrkmm0jVP4aJ3ksJmY2-60" value="" style="rounded=0;whiteSpace=wrap;html=1;fillColor=#009900;" vertex="1" parent="1">
          <mxGeometry x="67.66" y="2258" width="60" height="10" as="geometry" />
        </mxCell>
        <mxCell id="SCrkmm0jVP4aJ3ksJmY2-61" value="" style="rounded=0;whiteSpace=wrap;html=1;fillColor=#009900;" vertex="1" parent="1">
          <mxGeometry x="58.66" y="2264" width="60" height="10" as="geometry" />
        </mxCell>
        <mxCell id="SCrkmm0jVP4aJ3ksJmY2-62" value="" style="rounded=0;whiteSpace=wrap;html=1;fillColor=#009900;" vertex="1" parent="1">
          <mxGeometry x="50.66" y="2269" width="60" height="10" as="geometry" />
        </mxCell>
        <mxCell id="SCrkmm0jVP4aJ3ksJmY2-63" value="" style="rounded=0;whiteSpace=wrap;html=1;fillColor=#009900;" vertex="1" parent="1">
          <mxGeometry x="90.66" y="2226" width="60" height="10" as="geometry" />
        </mxCell>
        <mxCell id="SCrkmm0jVP4aJ3ksJmY2-64" value="&lt;b&gt;&lt;font style=&quot;font-size: 18px&quot; face=&quot;Times New Roman&quot;&gt;...&lt;/font&gt;&lt;/b&gt;" style="text;html=1;strokeColor=none;fillColor=none;align=center;verticalAlign=middle;whiteSpace=wrap;rounded=0;rotation=-45;" vertex="1" parent="1">
          <mxGeometry x="90.66" y="2230" width="40" height="20" as="geometry" />
        </mxCell>
        <mxCell id="SCrkmm0jVP4aJ3ksJmY2-65" value="" style="endArrow=classic;html=1;" edge="1" parent="1">
          <mxGeometry width="50" height="50" relative="1" as="geometry">
            <mxPoint x="143.65999999999985" y="2256.5" as="sourcePoint" />
            <mxPoint x="183.65999999999985" y="2256.5" as="targetPoint" />
          </mxGeometry>
        </mxCell>
        <mxCell id="SCrkmm0jVP4aJ3ksJmY2-66" value="" style="ellipse;whiteSpace=wrap;html=1;aspect=fixed;" vertex="1" parent="1">
          <mxGeometry x="565.66" y="2294" width="21" height="21" as="geometry" />
        </mxCell>
        <mxCell id="SCrkmm0jVP4aJ3ksJmY2-67" value="" style="endArrow=none;html=1;" edge="1" parent="1">
          <mxGeometry width="50" height="50" relative="1" as="geometry">
            <mxPoint x="566.6599999999999" y="2304.5" as="sourcePoint" />
            <mxPoint x="586.6599999999999" y="2304.5" as="targetPoint" />
          </mxGeometry>
        </mxCell>
        <mxCell id="SCrkmm0jVP4aJ3ksJmY2-68" value="" style="endArrow=none;html=1;entryX=0.5;entryY=0;entryDx=0;entryDy=0;" edge="1" parent="1" target="SCrkmm0jVP4aJ3ksJmY2-66">
          <mxGeometry width="50" height="50" relative="1" as="geometry">
            <mxPoint x="576.6599999999999" y="2314.5" as="sourcePoint" />
            <mxPoint x="596.66" y="2314.5" as="targetPoint" />
          </mxGeometry>
        </mxCell>
        <mxCell id="SCrkmm0jVP4aJ3ksJmY2-69" value="" style="ellipse;whiteSpace=wrap;html=1;flipH=1;fillColor=#FF553B;" vertex="1" parent="1">
          <mxGeometry x="685.1599999999999" y="2593.75" width="50" height="27" as="geometry" />
        </mxCell>
        <mxCell id="SCrkmm0jVP4aJ3ksJmY2-70" value="$$h_3$$" style="text;html=1;strokeColor=none;fillColor=none;align=center;verticalAlign=middle;whiteSpace=wrap;rounded=0;flipH=1;" vertex="1" parent="1">
          <mxGeometry x="693.1599999999999" y="2598.75" width="40" height="20" as="geometry" />
        </mxCell>
        <mxCell id="SCrkmm0jVP4aJ3ksJmY2-71" value="" style="ellipse;whiteSpace=wrap;html=1;flipH=1;fillColor=#FF553B;" vertex="1" parent="1">
          <mxGeometry x="605.1599999999999" y="2593.75" width="50" height="27" as="geometry" />
        </mxCell>
        <mxCell id="SCrkmm0jVP4aJ3ksJmY2-72" value="$$h_{3}^{&#39;}$$" style="text;html=1;strokeColor=none;fillColor=none;align=center;verticalAlign=middle;whiteSpace=wrap;rounded=0;flipH=1;" vertex="1" parent="1">
          <mxGeometry x="610.8399999999999" y="2597.5" width="40" height="20" as="geometry" />
        </mxCell>
        <mxCell id="SCrkmm0jVP4aJ3ksJmY2-73" value="" style="endArrow=classic;html=1;flipH=1;" edge="1" parent="1">
          <mxGeometry width="50" height="50" relative="1" as="geometry">
            <mxPoint x="657.1599999999996" y="2607.75" as="sourcePoint" />
            <mxPoint x="683.1599999999996" y="2607.75" as="targetPoint" />
          </mxGeometry>
        </mxCell>
        <mxCell id="SCrkmm0jVP4aJ3ksJmY2-74" value="" style="endArrow=classic;html=1;" edge="1" parent="1">
          <mxGeometry width="50" height="50" relative="1" as="geometry">
            <mxPoint y="2256" as="sourcePoint" />
            <mxPoint x="45.659999999999854" y="2256" as="targetPoint" />
          </mxGeometry>
        </mxCell>
        <mxCell id="SCrkmm0jVP4aJ3ksJmY2-75" value="&lt;font style=&quot;font-size: 18px&quot;&gt;&lt;b&gt;...&lt;/b&gt;&lt;/font&gt;" style="text;html=1;strokeColor=none;fillColor=none;align=center;verticalAlign=middle;whiteSpace=wrap;rounded=0;" vertex="1" parent="1">
          <mxGeometry x="679.25" y="2241.25" width="40" height="20" as="geometry" />
        </mxCell>
        <mxCell id="SCrkmm0jVP4aJ3ksJmY2-76" value="" style="rounded=0;whiteSpace=wrap;html=1;flipH=1;fillColor=#FFC847;" vertex="1" parent="1">
          <mxGeometry x="785" y="2248.5" width="60" height="10" as="geometry" />
        </mxCell>
        <mxCell id="SCrkmm0jVP4aJ3ksJmY2-77" value="" style="rounded=0;whiteSpace=wrap;html=1;flipH=1;fillColor=#FFC847;" vertex="1" parent="1">
          <mxGeometry x="777" y="2254.5" width="60" height="10" as="geometry" />
        </mxCell>
        <mxCell id="SCrkmm0jVP4aJ3ksJmY2-78" value="" style="rounded=0;whiteSpace=wrap;html=1;flipH=1;fillColor=#FFC847;" vertex="1" parent="1">
          <mxGeometry x="768" y="2260.5" width="60" height="10" as="geometry" />
        </mxCell>
        <mxCell id="SCrkmm0jVP4aJ3ksJmY2-79" value="" style="rounded=0;whiteSpace=wrap;html=1;flipH=1;fillColor=#FFC847;" vertex="1" parent="1">
          <mxGeometry x="760" y="2265.5" width="60" height="10" as="geometry" />
        </mxCell>
        <mxCell id="SCrkmm0jVP4aJ3ksJmY2-80" value="" style="rounded=0;whiteSpace=wrap;html=1;flipH=1;fillColor=#FFC847;" vertex="1" parent="1">
          <mxGeometry x="800" y="2222.5" width="60" height="10" as="geometry" />
        </mxCell>
        <mxCell id="SCrkmm0jVP4aJ3ksJmY2-81" value="&lt;b&gt;&lt;font style=&quot;font-size: 18px&quot; face=&quot;Times New Roman&quot;&gt;...&lt;/font&gt;&lt;/b&gt;" style="text;html=1;strokeColor=none;fillColor=none;align=center;verticalAlign=middle;whiteSpace=wrap;rounded=0;rotation=-45;flipH=1;" vertex="1" parent="1">
          <mxGeometry x="800" y="2226.5" width="40" height="20" as="geometry" />
        </mxCell>
        <mxCell id="SCrkmm0jVP4aJ3ksJmY2-83" value="" style="endArrow=classic;html=1;flipH=1;" edge="1" parent="1">
          <mxGeometry width="50" height="50" relative="1" as="geometry">
            <mxPoint x="532.6600000000002" y="2499" as="sourcePoint" />
            <mxPoint x="562.6600000000001" y="2499" as="targetPoint" />
          </mxGeometry>
        </mxCell>
        <mxCell id="SCrkmm0jVP4aJ3ksJmY2-84" value="" style="endArrow=classic;html=1;flipH=1;" edge="1" parent="1">
          <mxGeometry width="50" height="50" relative="1" as="geometry">
            <mxPoint x="427.6600000000002" y="2499.16" as="sourcePoint" />
            <mxPoint x="467.6600000000002" y="2499.16" as="targetPoint" />
          </mxGeometry>
        </mxCell>
        <mxCell id="SCrkmm0jVP4aJ3ksJmY2-85" value="" style="line;strokeWidth=1;html=1;flipH=1;" vertex="1" parent="1">
          <mxGeometry x="564.1599999999999" y="2604.42" width="40" height="5" as="geometry" />
        </mxCell>
        <mxCell id="SCrkmm0jVP4aJ3ksJmY2-86" value="" style="line;strokeWidth=1;html=1;flipH=1;" vertex="1" parent="1">
          <mxGeometry x="564.1599999999999" y="2496.25" width="40" height="5" as="geometry" />
        </mxCell>
        <mxCell id="SCrkmm0jVP4aJ3ksJmY2-87" value="" style="line;strokeWidth=1;html=1;flipH=1;" vertex="1" parent="1">
          <mxGeometry x="564.1599999999999" y="2380.75" width="40" height="5" as="geometry" />
        </mxCell>
        <mxCell id="SCrkmm0jVP4aJ3ksJmY2-88" value="&lt;font style=&quot;font-size: 16px&quot; face=&quot;Times New Roman&quot;&gt;&lt;b&gt;Softmax&lt;/b&gt;&lt;/font&gt;" style="text;html=1;strokeColor=none;fillColor=none;align=center;verticalAlign=middle;whiteSpace=wrap;rounded=0;rotation=90;flipH=1;" vertex="1" parent="1">
          <mxGeometry x="394.6600000000001" y="2491.5" width="40" height="20" as="geometry" />
        </mxCell>
        <mxCell id="SCrkmm0jVP4aJ3ksJmY2-89" value="" style="endArrow=classic;html=1;flipH=1;" edge="1" parent="1">
          <mxGeometry width="50" height="50" relative="1" as="geometry">
            <mxPoint x="712.6600000000001" y="2401.25" as="sourcePoint" />
            <mxPoint x="712.6600000000001" y="2481.25" as="targetPoint" />
          </mxGeometry>
        </mxCell>
        <mxCell id="SCrkmm0jVP4aJ3ksJmY2-90" value="" style="endArrow=classic;html=1;flipH=1;" edge="1" parent="1">
          <mxGeometry width="50" height="50" relative="1" as="geometry">
            <mxPoint x="629.6599999999996" y="2512.75" as="sourcePoint" />
            <mxPoint x="629.6599999999996" y="2592.75" as="targetPoint" />
          </mxGeometry>
        </mxCell>
        <mxCell id="SCrkmm0jVP4aJ3ksJmY2-91" value="" style="endArrow=classic;html=1;flipH=1;" edge="1" parent="1">
          <mxGeometry width="50" height="50" relative="1" as="geometry">
            <mxPoint x="709.6599999999996" y="2513.75" as="sourcePoint" />
            <mxPoint x="709.6599999999996" y="2593.75" as="targetPoint" />
          </mxGeometry>
        </mxCell>
        <mxCell id="SCrkmm0jVP4aJ3ksJmY2-92" value="" style="endArrow=none;html=1;" edge="1" parent="1">
          <mxGeometry width="50" height="50" relative="1" as="geometry">
            <mxPoint x="564.0699999999995" y="2606.5" as="sourcePoint" />
            <mxPoint x="563.9799999999993" y="2382.5" as="targetPoint" />
          </mxGeometry>
        </mxCell>
        <mxCell id="SCrkmm0jVP4aJ3ksJmY2-93" value="" style="endArrow=none;html=1;" edge="1" parent="1">
          <mxGeometry width="50" height="50" relative="1" as="geometry">
            <mxPoint x="868.7499999999995" y="2029.39" as="sourcePoint" />
            <mxPoint x="908.7499999999995" y="2029.39" as="targetPoint" />
          </mxGeometry>
        </mxCell>
        <mxCell id="SCrkmm0jVP4aJ3ksJmY2-94" value="" style="endArrow=none;html=1;" edge="1" parent="1">
          <mxGeometry width="50" height="50" relative="1" as="geometry">
            <mxPoint x="869.5" y="2255.9599999999996" as="sourcePoint" />
            <mxPoint x="909.5" y="2255.9599999999996" as="targetPoint" />
          </mxGeometry>
        </mxCell>
        <mxCell id="SCrkmm0jVP4aJ3ksJmY2-95" value="" style="endArrow=none;html=1;" edge="1" parent="1">
          <mxGeometry width="50" height="50" relative="1" as="geometry">
            <mxPoint x="799.09" y="2499.95" as="sourcePoint" />
            <mxPoint x="909.09" y="2499.95" as="targetPoint" />
          </mxGeometry>
        </mxCell>
        <mxCell id="SCrkmm0jVP4aJ3ksJmY2-96" value="" style="endArrow=none;html=1;" edge="1" parent="1">
          <mxGeometry width="50" height="50" relative="1" as="geometry">
            <mxPoint x="798.9099999999997" y="2610.04" as="sourcePoint" />
            <mxPoint x="798.9099999999997" y="2380.04" as="targetPoint" />
          </mxGeometry>
        </mxCell>
        <mxCell id="SCrkmm0jVP4aJ3ksJmY2-97" value="" style="endArrow=classic;html=1;" edge="1" parent="1">
          <mxGeometry width="50" height="50" relative="1" as="geometry">
            <mxPoint x="798.9099999999997" y="2380.04" as="sourcePoint" />
            <mxPoint x="748.9099999999997" y="2380.04" as="targetPoint" />
          </mxGeometry>
        </mxCell>
        <mxCell id="SCrkmm0jVP4aJ3ksJmY2-98" value="" style="endArrow=classic;html=1;" edge="1" parent="1">
          <mxGeometry width="50" height="50" relative="1" as="geometry">
            <mxPoint x="798.9099999999997" y="2500.1099999999997" as="sourcePoint" />
            <mxPoint x="748.9099999999997" y="2500.1099999999997" as="targetPoint" />
          </mxGeometry>
        </mxCell>
        <mxCell id="SCrkmm0jVP4aJ3ksJmY2-99" value="" style="endArrow=classic;html=1;" edge="1" parent="1">
          <mxGeometry width="50" height="50" relative="1" as="geometry">
            <mxPoint x="798.9099999999997" y="2609.2799999999997" as="sourcePoint" />
            <mxPoint x="748.9099999999997" y="2609.2799999999997" as="targetPoint" />
          </mxGeometry>
        </mxCell>
        <mxCell id="SCrkmm0jVP4aJ3ksJmY2-100" value="" style="endArrow=classic;html=1;" edge="1" parent="1">
          <mxGeometry width="50" height="50" relative="1" as="geometry">
            <mxPoint x="322.00000000000045" y="2116" as="sourcePoint" />
            <mxPoint x="361.99999999999955" y="2116" as="targetPoint" />
          </mxGeometry>
        </mxCell>
        <mxCell id="SCrkmm0jVP4aJ3ksJmY2-101" value="" style="endArrow=none;html=1;" edge="1" parent="1">
          <mxGeometry width="50" height="50" relative="1" as="geometry">
            <mxPoint x="190" y="2306" as="sourcePoint" />
            <mxPoint x="190" y="1946" as="targetPoint" />
          </mxGeometry>
        </mxCell>
        <mxCell id="SCrkmm0jVP4aJ3ksJmY2-102" value="" style="endArrow=none;html=1;" edge="1" parent="1">
          <mxGeometry width="50" height="50" relative="1" as="geometry">
            <mxPoint x="190" y="1946" as="sourcePoint" />
            <mxPoint x="280" y="1946" as="targetPoint" />
          </mxGeometry>
        </mxCell>
        <mxCell id="SCrkmm0jVP4aJ3ksJmY2-103" value="" style="endArrow=classic;html=1;" edge="1" parent="1">
          <mxGeometry width="50" height="50" relative="1" as="geometry">
            <mxPoint x="279.4100000000003" y="1947.5" as="sourcePoint" />
            <mxPoint x="279" y="2080" as="targetPoint" />
          </mxGeometry>
        </mxCell>
        <mxCell id="SCrkmm0jVP4aJ3ksJmY2-104" value="" style="rounded=0;whiteSpace=wrap;html=1;fillColor=#007FFF;" vertex="1" parent="1">
          <mxGeometry x="557" y="1967.5" width="36" height="23" as="geometry" />
        </mxCell>
        <mxCell id="SCrkmm0jVP4aJ3ksJmY2-105" value="$$H_{GP}$$" style="text;html=1;strokeColor=none;fillColor=none;align=center;verticalAlign=middle;whiteSpace=wrap;rounded=0;" vertex="1" parent="1">
          <mxGeometry x="556" y="1967.5" width="40" height="20" as="geometry" />
        </mxCell>
        <mxCell id="SCrkmm0jVP4aJ3ksJmY2-106" value="" style="rounded=0;whiteSpace=wrap;html=1;fillColor=#007FFF;" vertex="1" parent="1">
          <mxGeometry x="557" y="2022.5" width="36" height="23" as="geometry" />
        </mxCell>
        <mxCell id="SCrkmm0jVP4aJ3ksJmY2-107" value="&lt;font face=&quot;Times New Roman&quot; style=&quot;font-size: 16px&quot;&gt;FC&lt;/font&gt;" style="text;html=1;strokeColor=none;fillColor=none;align=center;verticalAlign=middle;whiteSpace=wrap;rounded=0;fontSize=16;" vertex="1" parent="1">
          <mxGeometry x="555" y="2023.5" width="40" height="20" as="geometry" />
        </mxCell>
        <mxCell id="SCrkmm0jVP4aJ3ksJmY2-108" value="" style="rounded=0;whiteSpace=wrap;html=1;fillColor=#007FFF;" vertex="1" parent="1">
          <mxGeometry x="554.5" y="2078" width="45" height="23" as="geometry" />
        </mxCell>
        <mxCell id="SCrkmm0jVP4aJ3ksJmY2-109" value="&lt;font face=&quot;Times New Roman&quot; style=&quot;font-size: 16px&quot;&gt;ReLU&lt;/font&gt;" style="text;html=1;strokeColor=none;fillColor=none;align=center;verticalAlign=middle;whiteSpace=wrap;rounded=0;fontSize=16;" vertex="1" parent="1">
          <mxGeometry x="557.16" y="2079" width="40" height="20" as="geometry" />
        </mxCell>
        <mxCell id="SCrkmm0jVP4aJ3ksJmY2-110" value="" style="rounded=0;whiteSpace=wrap;html=1;fillColor=#007FFF;" vertex="1" parent="1">
          <mxGeometry x="558" y="2132.5" width="36" height="23" as="geometry" />
        </mxCell>
        <mxCell id="SCrkmm0jVP4aJ3ksJmY2-111" value="&lt;font face=&quot;Times New Roman&quot; style=&quot;font-size: 16px&quot;&gt;FC&lt;/font&gt;" style="text;html=1;strokeColor=none;fillColor=none;align=center;verticalAlign=middle;whiteSpace=wrap;rounded=0;fontSize=16;" vertex="1" parent="1">
          <mxGeometry x="555.8199999999999" y="2133.5" width="40" height="20" as="geometry" />
        </mxCell>
        <mxCell id="SCrkmm0jVP4aJ3ksJmY2-112" value="" style="ellipse;whiteSpace=wrap;html=1;aspect=fixed;" vertex="1" parent="1">
          <mxGeometry x="564" y="2244" width="21" height="21" as="geometry" />
        </mxCell>
        <mxCell id="SCrkmm0jVP4aJ3ksJmY2-113" value="" style="endArrow=none;html=1;exitX=0;exitY=1;exitDx=0;exitDy=0;entryX=1;entryY=0;entryDx=0;entryDy=0;" edge="1" parent="1" source="SCrkmm0jVP4aJ3ksJmY2-112" target="SCrkmm0jVP4aJ3ksJmY2-112">
          <mxGeometry width="50" height="50" relative="1" as="geometry">
            <mxPoint x="564" y="2265" as="sourcePoint" />
            <mxPoint x="584" y="2245" as="targetPoint" />
          </mxGeometry>
        </mxCell>
        <mxCell id="SCrkmm0jVP4aJ3ksJmY2-114" value="" style="endArrow=none;html=1;exitX=0;exitY=0;exitDx=0;exitDy=0;entryX=1;entryY=1;entryDx=0;entryDy=0;" edge="1" parent="1" source="SCrkmm0jVP4aJ3ksJmY2-112" target="SCrkmm0jVP4aJ3ksJmY2-112">
          <mxGeometry width="50" height="50" relative="1" as="geometry">
            <mxPoint x="574" y="2250" as="sourcePoint" />
            <mxPoint x="578.92" y="2258.54" as="targetPoint" />
          </mxGeometry>
        </mxCell>
        <mxCell id="SCrkmm0jVP4aJ3ksJmY2-115" value="" style="endArrow=classic;html=1;" edge="1" parent="1">
          <mxGeometry width="50" height="50" relative="1" as="geometry">
            <mxPoint x="575.4999999999995" y="1990.5" as="sourcePoint" />
            <mxPoint x="575.4999999999995" y="2020.5" as="targetPoint" />
          </mxGeometry>
        </mxCell>
        <mxCell id="SCrkmm0jVP4aJ3ksJmY2-116" value="" style="endArrow=classic;html=1;" edge="1" parent="1">
          <mxGeometry width="50" height="50" relative="1" as="geometry">
            <mxPoint x="575.4999999999995" y="2100" as="sourcePoint" />
            <mxPoint x="575.4999999999995" y="2130" as="targetPoint" />
          </mxGeometry>
        </mxCell>
        <mxCell id="SCrkmm0jVP4aJ3ksJmY2-117" value="" style="endArrow=classic;html=1;" edge="1" parent="1">
          <mxGeometry width="50" height="50" relative="1" as="geometry">
            <mxPoint x="575.4999999999995" y="2155.5" as="sourcePoint" />
            <mxPoint x="575.4999999999995" y="2185.5" as="targetPoint" />
          </mxGeometry>
        </mxCell>
        <mxCell id="SCrkmm0jVP4aJ3ksJmY2-118" value="" style="endArrow=classic;html=1;" edge="1" parent="1">
          <mxGeometry width="50" height="50" relative="1" as="geometry">
            <mxPoint x="575" y="1925" as="sourcePoint" />
            <mxPoint x="574.4999999999995" y="1967.5" as="targetPoint" />
          </mxGeometry>
        </mxCell>
        <mxCell id="SCrkmm0jVP4aJ3ksJmY2-119" value="" style="endArrow=none;html=1;" edge="1" parent="1">
          <mxGeometry width="50" height="50" relative="1" as="geometry">
            <mxPoint x="510" y="1925" as="sourcePoint" />
            <mxPoint x="575" y="1925" as="targetPoint" />
          </mxGeometry>
        </mxCell>
        <mxCell id="SCrkmm0jVP4aJ3ksJmY2-120" value="" style="endArrow=classic;html=1;" edge="1" parent="1">
          <mxGeometry width="50" height="50" relative="1" as="geometry">
            <mxPoint x="510" y="2254" as="sourcePoint" />
            <mxPoint x="560" y="2254" as="targetPoint" />
          </mxGeometry>
        </mxCell>
        <mxCell id="SCrkmm0jVP4aJ3ksJmY2-121" value="" style="rounded=0;whiteSpace=wrap;html=1;fillColor=#007FFF;" vertex="1" parent="1">
          <mxGeometry x="547" y="2186" width="60" height="23" as="geometry" />
        </mxCell>
        <mxCell id="SCrkmm0jVP4aJ3ksJmY2-122" value="" style="endArrow=classic;html=1;" edge="1" parent="1">
          <mxGeometry width="50" height="50" relative="1" as="geometry">
            <mxPoint x="574.4999999999995" y="2212" as="sourcePoint" />
            <mxPoint x="574.4999999999995" y="2242" as="targetPoint" />
          </mxGeometry>
        </mxCell>
        <mxCell id="SCrkmm0jVP4aJ3ksJmY2-123" value="" style="endArrow=none;html=1;" edge="1" parent="1">
          <mxGeometry width="50" height="50" relative="1" as="geometry">
            <mxPoint x="510" y="2094" as="sourcePoint" />
            <mxPoint x="510" y="1925" as="targetPoint" />
          </mxGeometry>
        </mxCell>
        <mxCell id="SCrkmm0jVP4aJ3ksJmY2-124" value="" style="endArrow=none;html=1;" edge="1" parent="1">
          <mxGeometry width="50" height="50" relative="1" as="geometry">
            <mxPoint x="470" y="2117" as="sourcePoint" />
            <mxPoint x="510" y="2117" as="targetPoint" />
          </mxGeometry>
        </mxCell>
        <mxCell id="SCrkmm0jVP4aJ3ksJmY2-125" value="" style="endArrow=none;html=1;" edge="1" parent="1">
          <mxGeometry width="50" height="50" relative="1" as="geometry">
            <mxPoint x="510" y="2254" as="sourcePoint" />
            <mxPoint x="510" y="2091.5" as="targetPoint" />
          </mxGeometry>
        </mxCell>
        <mxCell id="SCrkmm0jVP4aJ3ksJmY2-126" value="&lt;font face=&quot;Times New Roman&quot; style=&quot;font-size: 16px&quot;&gt;sigmoid&lt;/font&gt;" style="text;html=1;strokeColor=none;fillColor=none;align=center;verticalAlign=middle;whiteSpace=wrap;rounded=0;fontSize=16;" vertex="1" parent="1">
          <mxGeometry x="556.5" y="2187" width="40" height="20" as="geometry" />
        </mxCell>
        <mxCell id="SCrkmm0jVP4aJ3ksJmY2-127" value="" style="endArrow=classic;html=1;" edge="1" parent="1">
          <mxGeometry width="50" height="50" relative="1" as="geometry">
            <mxPoint x="190" y="2306" as="sourcePoint" />
            <mxPoint x="560" y="2306" as="targetPoint" />
          </mxGeometry>
        </mxCell>
        <mxCell id="SCrkmm0jVP4aJ3ksJmY2-128" value="" style="endArrow=classic;html=1;" edge="1" parent="1">
          <mxGeometry width="50" height="50" relative="1" as="geometry">
            <mxPoint x="576.4099999999999" y="2265" as="sourcePoint" />
            <mxPoint x="576.4099999999999" y="2295" as="targetPoint" />
          </mxGeometry>
        </mxCell>
        <mxCell id="SCrkmm0jVP4aJ3ksJmY2-129" value="" style="endArrow=none;html=1;" edge="1" parent="1">
          <mxGeometry width="50" height="50" relative="1" as="geometry">
            <mxPoint x="589" y="2305" as="sourcePoint" />
            <mxPoint x="639" y="2305" as="targetPoint" />
          </mxGeometry>
        </mxCell>
        <mxCell id="SCrkmm0jVP4aJ3ksJmY2-130" value="" style="endArrow=none;html=1;" edge="1" parent="1">
          <mxGeometry width="50" height="50" relative="1" as="geometry">
            <mxPoint x="640" y="2305" as="sourcePoint" />
            <mxPoint x="640" y="2030" as="targetPoint" />
          </mxGeometry>
        </mxCell>
        <mxCell id="SCrkmm0jVP4aJ3ksJmY2-131" value="" style="endArrow=classic;html=1;" edge="1" parent="1">
          <mxGeometry width="50" height="50" relative="1" as="geometry">
            <mxPoint x="640" y="2030" as="sourcePoint" />
            <mxPoint x="680" y="2030" as="targetPoint" />
          </mxGeometry>
        </mxCell>
        <mxCell id="SCrkmm0jVP4aJ3ksJmY2-132" value="" style="endArrow=classic;html=1;" edge="1" parent="1">
          <mxGeometry width="50" height="50" relative="1" as="geometry">
            <mxPoint x="641" y="2146.41" as="sourcePoint" />
            <mxPoint x="681" y="2146.41" as="targetPoint" />
          </mxGeometry>
        </mxCell>
        <mxCell id="SCrkmm0jVP4aJ3ksJmY2-133" value="" style="endArrow=classic;html=1;" edge="1" parent="1">
          <mxGeometry width="50" height="50" relative="1" as="geometry">
            <mxPoint x="641" y="2256.41" as="sourcePoint" />
            <mxPoint x="681" y="2256.41" as="targetPoint" />
          </mxGeometry>
        </mxCell>
        <mxCell id="SCrkmm0jVP4aJ3ksJmY2-134" value="" style="endArrow=none;html=1;" edge="1" parent="1">
          <mxGeometry width="50" height="50" relative="1" as="geometry">
            <mxPoint x="867.9999999999995" y="2145.5499999999997" as="sourcePoint" />
            <mxPoint x="907.9999999999995" y="2145.5499999999997" as="targetPoint" />
          </mxGeometry>
        </mxCell>
        <mxCell id="SCrkmm0jVP4aJ3ksJmY2-135" value="" style="endArrow=none;html=1;" edge="1" parent="1">
          <mxGeometry width="50" height="50" relative="1" as="geometry">
            <mxPoint x="909" y="2499.14" as="sourcePoint" />
            <mxPoint x="909" y="2029.14" as="targetPoint" />
          </mxGeometry>
        </mxCell>
        <mxCell id="SCrkmm0jVP4aJ3ksJmY2-136" value="" style="endArrow=classic;html=1;" edge="1" parent="1">
          <mxGeometry width="50" height="50" relative="1" as="geometry">
            <mxPoint x="390.84000000000003" y="2499.16" as="sourcePoint" />
            <mxPoint x="340.84000000000003" y="2499.16" as="targetPoint" />
          </mxGeometry>
        </mxCell>
        <mxCell id="SCrkmm0jVP4aJ3ksJmY2-137" value="" style="rounded=0;whiteSpace=wrap;html=1;fillColor=#66B2FF;" vertex="1" parent="1">
          <mxGeometry x="259.34000000000003" y="2433.5" width="72" height="136" as="geometry" />
        </mxCell>
        <mxCell id="SCrkmm0jVP4aJ3ksJmY2-138" value="&lt;font face=&quot;Times New Roman&quot; style=&quot;font-size: 14px&quot;&gt;&lt;b&gt;Interictal&lt;/b&gt;&lt;/font&gt;" style="text;html=1;strokeColor=none;fillColor=none;align=center;verticalAlign=middle;whiteSpace=wrap;rounded=0;" vertex="1" parent="1">
          <mxGeometry x="275.84000000000003" y="2445" width="40" height="20" as="geometry" />
        </mxCell>
        <mxCell id="SCrkmm0jVP4aJ3ksJmY2-139" value="&lt;font face=&quot;Times New Roman&quot; style=&quot;font-size: 14px&quot;&gt;&lt;b&gt;Sezuire&lt;/b&gt;&lt;/font&gt;" style="text;html=1;strokeColor=none;fillColor=none;align=center;verticalAlign=middle;whiteSpace=wrap;rounded=0;" vertex="1" parent="1">
          <mxGeometry x="275.84000000000003" y="2541.5" width="40" height="20" as="geometry" />
        </mxCell>
        <mxCell id="SCrkmm0jVP4aJ3ksJmY2-140" value="&lt;font face=&quot;Times New Roman&quot; style=&quot;font-size: 14px&quot;&gt;&lt;b&gt;Pre&lt;/b&gt;&lt;/font&gt;" style="text;html=1;strokeColor=none;fillColor=none;align=center;verticalAlign=middle;whiteSpace=wrap;rounded=0;" vertex="1" parent="1">
          <mxGeometry x="275.34000000000003" y="2491.5" width="40" height="20" as="geometry" />
        </mxCell>
        <mxCell id="SCrkmm0jVP4aJ3ksJmY2-141" value="&lt;font style=&quot;font-size: 18px&quot;&gt;&lt;b&gt;...&lt;/b&gt;&lt;/font&gt;" style="text;html=1;strokeColor=none;fillColor=none;align=center;verticalAlign=middle;whiteSpace=wrap;rounded=0;" vertex="1" parent="1">
          <mxGeometry x="275.84000000000003" y="2464" width="40" height="20" as="geometry" />
        </mxCell>
        <mxCell id="SCrkmm0jVP4aJ3ksJmY2-142" value="&lt;font style=&quot;font-size: 18px&quot;&gt;&lt;b&gt;...&lt;/b&gt;&lt;/font&gt;" style="text;html=1;strokeColor=none;fillColor=none;align=center;verticalAlign=middle;whiteSpace=wrap;rounded=0;" vertex="1" parent="1">
          <mxGeometry x="275.34000000000003" y="2513.5" width="40" height="20" as="geometry" />
        </mxCell>
        <mxCell id="SCrkmm0jVP4aJ3ksJmY2-143" value="" style="endArrow=none;html=1;" edge="1" parent="1">
          <mxGeometry width="50" height="50" relative="1" as="geometry">
            <mxPoint x="240" y="1640" as="sourcePoint" />
            <mxPoint x="240.00000000000034" y="1792.47" as="targetPoint" />
          </mxGeometry>
        </mxCell>
        <mxCell id="SCrkmm0jVP4aJ3ksJmY2-144" value="" style="endArrow=classic;html=1;" edge="1" parent="1">
          <mxGeometry width="50" height="50" relative="1" as="geometry">
            <mxPoint x="240" y="1640" as="sourcePoint" />
            <mxPoint x="201.57000000000033" y="1640.4099999999999" as="targetPoint" />
          </mxGeometry>
        </mxCell>
        <mxCell id="SCrkmm0jVP4aJ3ksJmY2-145" value="" style="endArrow=classic;html=1;" edge="1" parent="1">
          <mxGeometry width="50" height="50" relative="1" as="geometry">
            <mxPoint x="271.57" y="1718.75" as="sourcePoint" />
            <mxPoint x="201.57000000000033" y="1718.93" as="targetPoint" />
          </mxGeometry>
        </mxCell>
        <mxCell id="SCrkmm0jVP4aJ3ksJmY2-146" value="" style="endArrow=classic;html=1;" edge="1" parent="1">
          <mxGeometry width="50" height="50" relative="1" as="geometry">
            <mxPoint x="240" y="1792" as="sourcePoint" />
            <mxPoint x="198.44000000000034" y="1792.29" as="targetPoint" />
          </mxGeometry>
        </mxCell>
        <mxCell id="SCrkmm0jVP4aJ3ksJmY2-154" value="$$h_{2}^{&#39;}$$" style="text;html=1;strokeColor=none;fillColor=none;align=center;verticalAlign=middle;whiteSpace=wrap;rounded=0;flipH=1;" vertex="1" parent="1">
          <mxGeometry x="609.8399999999999" y="2487.25" width="40" height="20" as="geometry" />
        </mxCell>
        <mxCell id="SCrkmm0jVP4aJ3ksJmY2-155" value="$$S$$" style="text;html=1;strokeColor=none;fillColor=none;align=center;verticalAlign=middle;whiteSpace=wrap;rounded=0;" vertex="1" parent="1">
          <mxGeometry x="334.75" y="1650.13" width="40" height="20" as="geometry" />
        </mxCell>
        <mxCell id="SCrkmm0jVP4aJ3ksJmY2-156" value="$$S_1$$" style="text;html=1;strokeColor=none;fillColor=none;align=center;verticalAlign=middle;whiteSpace=wrap;rounded=0;" vertex="1" parent="1">
          <mxGeometry x="118.66000000000001" y="1600.13" width="40" height="20" as="geometry" />
        </mxCell>
        <mxCell id="SCrkmm0jVP4aJ3ksJmY2-157" value="$$S_2$$" style="text;html=1;strokeColor=none;fillColor=none;align=center;verticalAlign=middle;whiteSpace=wrap;rounded=0;" vertex="1" parent="1">
          <mxGeometry x="122.00000000000001" y="1674.47" width="40" height="20" as="geometry" />
        </mxCell>
        <mxCell id="SCrkmm0jVP4aJ3ksJmY2-158" value="$$S_3$$" style="text;html=1;strokeColor=none;fillColor=none;align=center;verticalAlign=middle;whiteSpace=wrap;rounded=0;" vertex="1" parent="1">
          <mxGeometry x="118.66000000000003" y="1750" width="40" height="20" as="geometry" />
        </mxCell>
        <mxCell id="SCrkmm0jVP4aJ3ksJmY2-159" value="" style="rounded=0;whiteSpace=wrap;html=1;fillColor=#009900;" vertex="1" parent="1">
          <mxGeometry x="90.66" y="2000.5" width="60" height="10" as="geometry" />
        </mxCell>
        <mxCell id="SCrkmm0jVP4aJ3ksJmY2-160" value="&lt;b&gt;Conv&lt;/b&gt;" style="text;html=1;strokeColor=none;fillColor=none;align=center;verticalAlign=middle;whiteSpace=wrap;rounded=0;" vertex="1" parent="1">
          <mxGeometry x="81.5" y="2060" width="40" height="20" as="geometry" />
        </mxCell>
        <mxCell id="SCrkmm0jVP4aJ3ksJmY2-161" value="&lt;b&gt;Conv&lt;/b&gt;" style="text;html=1;strokeColor=none;fillColor=none;align=center;verticalAlign=middle;whiteSpace=wrap;rounded=0;" vertex="1" parent="1">
          <mxGeometry x="82" y="2173.69" width="40" height="20" as="geometry" />
        </mxCell>
        <mxCell id="SCrkmm0jVP4aJ3ksJmY2-162" value="&lt;b&gt;Conv&lt;/b&gt;" style="text;html=1;strokeColor=none;fillColor=none;align=center;verticalAlign=middle;whiteSpace=wrap;rounded=0;" vertex="1" parent="1">
          <mxGeometry x="78.66" y="2283" width="40" height="20" as="geometry" />
        </mxCell>
        <mxCell id="SCrkmm0jVP4aJ3ksJmY2-163" value="" style="endArrow=classic;html=1;flipH=1;" edge="1" parent="1">
          <mxGeometry width="50" height="50" relative="1" as="geometry">
            <mxPoint x="629.8399999999999" y="2400.5" as="sourcePoint" />
            <mxPoint x="629.8399999999999" y="2480.5" as="targetPoint" />
          </mxGeometry>
        </mxCell>
        <mxCell id="SCrkmm0jVP4aJ3ksJmY2-164" value="&lt;b&gt;Conv&lt;/b&gt;" style="text;html=1;strokeColor=none;fillColor=none;align=center;verticalAlign=middle;whiteSpace=wrap;rounded=0;" vertex="1" parent="1">
          <mxGeometry x="235.5" y="2148.25" width="40" height="20" as="geometry" />
        </mxCell>
        <mxCell id="SCrkmm0jVP4aJ3ksJmY2-165" value="&lt;b&gt;Conv&lt;/b&gt;" style="text;html=1;strokeColor=none;fillColor=none;align=center;verticalAlign=middle;whiteSpace=wrap;rounded=0;" vertex="1" parent="1">
          <mxGeometry x="374.5" y="2148" width="40" height="20" as="geometry" />
        </mxCell>
        <mxCell id="SCrkmm0jVP4aJ3ksJmY2-166" value="&lt;b&gt;Pooling&lt;/b&gt;" style="text;html=1;strokeColor=none;fillColor=none;align=center;verticalAlign=middle;whiteSpace=wrap;rounded=0;" vertex="1" parent="1">
          <mxGeometry x="787.6800000000001" y="2054.5" width="40" height="20" as="geometry" />
        </mxCell>
        <mxCell id="SCrkmm0jVP4aJ3ksJmY2-167" value="&lt;b&gt;Pooling&lt;/b&gt;" style="text;html=1;strokeColor=none;fillColor=none;align=center;verticalAlign=middle;whiteSpace=wrap;rounded=0;" vertex="1" parent="1">
          <mxGeometry x="788.1800000000001" y="2169.5" width="40" height="20" as="geometry" />
        </mxCell>
        <mxCell id="SCrkmm0jVP4aJ3ksJmY2-168" value="&lt;b&gt;Pooling&lt;/b&gt;" style="text;html=1;strokeColor=none;fillColor=none;align=center;verticalAlign=middle;whiteSpace=wrap;rounded=0;" vertex="1" parent="1">
          <mxGeometry x="787.6800000000001" y="2281" width="40" height="20" as="geometry" />
        </mxCell>
        <mxCell id="SCrkmm0jVP4aJ3ksJmY2-169" value="$$U_{i}$$" style="text;html=1;strokeColor=none;fillColor=none;align=center;verticalAlign=middle;whiteSpace=wrap;rounded=0;" vertex="1" parent="1">
          <mxGeometry x="514.5" y="2233" width="40" height="20" as="geometry" />
        </mxCell>
        <mxCell id="SCrkmm0jVP4aJ3ksJmY2-170" value="$$S_i$$" style="text;html=1;strokeColor=none;fillColor=none;align=center;verticalAlign=middle;whiteSpace=wrap;rounded=0;" vertex="1" parent="1">
          <mxGeometry x="573.5" y="2216" width="40" height="20" as="geometry" />
        </mxCell>
        <mxCell id="SCrkmm0jVP4aJ3ksJmY2-171" value="$$X_i$$" style="text;html=1;strokeColor=none;fillColor=none;align=center;verticalAlign=middle;whiteSpace=wrap;rounded=0;" vertex="1" parent="1">
          <mxGeometry x="512" y="2310" width="40" height="20" as="geometry" />
        </mxCell>
        <mxCell id="SCrkmm0jVP4aJ3ksJmY2-172" value="$$X_1$$" style="text;html=1;strokeColor=none;fillColor=none;align=center;verticalAlign=middle;whiteSpace=wrap;rounded=0;" vertex="1" parent="1">
          <mxGeometry x="149.5" y="2007.5" width="40" height="20" as="geometry" />
        </mxCell>
        <mxCell id="SCrkmm0jVP4aJ3ksJmY2-173" value="$$X_2$$" style="text;html=1;strokeColor=none;fillColor=none;align=center;verticalAlign=middle;whiteSpace=wrap;rounded=0;" vertex="1" parent="1">
          <mxGeometry x="150.66" y="2120" width="40" height="20" as="geometry" />
        </mxCell>
        <mxCell id="SCrkmm0jVP4aJ3ksJmY2-174" value="$$X_3$$" style="text;html=1;strokeColor=none;fillColor=none;align=center;verticalAlign=middle;whiteSpace=wrap;rounded=0;" vertex="1" parent="1">
          <mxGeometry x="150.5" y="2232" width="40" height="20" as="geometry" />
        </mxCell>
        <mxCell id="SCrkmm0jVP4aJ3ksJmY2-175" value="$$\tilde{X_i}$$" style="text;html=1;strokeColor=none;fillColor=none;align=center;verticalAlign=middle;whiteSpace=wrap;rounded=0;" vertex="1" parent="1">
          <mxGeometry x="574.8199999999999" y="2265" width="40" height="20" as="geometry" />
        </mxCell>
        <mxCell id="SCrkmm0jVP4aJ3ksJmY2-176" value="$$Y_1$$" style="text;html=1;strokeColor=none;fillColor=none;align=center;verticalAlign=middle;whiteSpace=wrap;rounded=0;" vertex="1" parent="1">
          <mxGeometry x="638" y="2005.5" width="40" height="20" as="geometry" />
        </mxCell>
        <mxCell id="SCrkmm0jVP4aJ3ksJmY2-177" value="$$Y_2$$" style="text;html=1;strokeColor=none;fillColor=none;align=center;verticalAlign=middle;whiteSpace=wrap;rounded=0;" vertex="1" parent="1">
          <mxGeometry x="641" y="2122" width="40" height="20" as="geometry" />
        </mxCell>
        <mxCell id="SCrkmm0jVP4aJ3ksJmY2-178" value="$$Y_3$$" style="text;html=1;strokeColor=none;fillColor=none;align=center;verticalAlign=middle;whiteSpace=wrap;rounded=0;" vertex="1" parent="1">
          <mxGeometry x="641" y="2233" width="40" height="20" as="geometry" />
        </mxCell>
        <mxCell id="SCrkmm0jVP4aJ3ksJmY2-179" value="" style="endArrow=classic;html=1;" edge="1" parent="1">
          <mxGeometry width="50" height="50" relative="1" as="geometry">
            <mxPoint x="575.4999999999995" y="2046.5" as="sourcePoint" />
            <mxPoint x="575.4999999999995" y="2076.5" as="targetPoint" />
          </mxGeometry>
        </mxCell>
        <mxCell id="SCrkmm0jVP4aJ3ksJmY2-180" value="&lt;font style=&quot;font-size: 14px&quot;&gt;Residual Block&lt;/font&gt;" style="text;html=1;strokeColor=none;fillColor=none;align=center;verticalAlign=middle;whiteSpace=wrap;rounded=0;" vertex="1" parent="1">
          <mxGeometry x="354.32" y="1880" width="145" height="20" as="geometry" />
        </mxCell>
        <mxCell id="SCrkmm0jVP4aJ3ksJmY2-181" value="$$\times8$$" style="text;html=1;strokeColor=none;fillColor=none;align=center;verticalAlign=middle;whiteSpace=wrap;rounded=0;" vertex="1" parent="1">
          <mxGeometry x="657.5" y="1910" width="40" height="20" as="geometry" />
        </mxCell>
        <mxCell id="SCrkmm0jVP4aJ3ksJmY2-182" value="&lt;font style=&quot;font-size: 14px&quot;&gt;SE Block&lt;/font&gt;" style="text;html=1;strokeColor=none;fillColor=none;align=center;verticalAlign=middle;whiteSpace=wrap;rounded=0;" vertex="1" parent="1">
          <mxGeometry x="541" y="1935.5" width="145" height="20" as="geometry" />
        </mxCell>
        <mxCell id="SCrkmm0jVP4aJ3ksJmY2-183" value="&lt;span style=&quot;font-size: 14px&quot;&gt;&lt;b&gt;Spatial feature extraction module&lt;/b&gt;&lt;/span&gt;" style="text;html=1;strokeColor=none;fillColor=none;align=center;verticalAlign=middle;whiteSpace=wrap;rounded=0;" vertex="1" parent="1">
          <mxGeometry x="334.75" y="1843" width="247.5" height="20" as="geometry" />
        </mxCell>
        <mxCell id="SCrkmm0jVP4aJ3ksJmY2-184" value="&lt;span style=&quot;font-size: 14px&quot;&gt;&lt;b&gt;Temporal feature extraction module&lt;/b&gt;&lt;/span&gt;" style="text;html=1;strokeColor=none;fillColor=none;align=center;verticalAlign=middle;whiteSpace=wrap;rounded=0;" vertex="1" parent="1">
          <mxGeometry x="539.16" y="2659" width="247.5" height="20" as="geometry" />
        </mxCell>
        <mxCell id="SCrkmm0jVP4aJ3ksJmY2-186" value="$$U_{i}$$" style="text;html=1;strokeColor=none;fillColor=none;align=center;verticalAlign=middle;whiteSpace=wrap;rounded=0;" vertex="1" parent="1">
          <mxGeometry x="471.99999999999994" y="2093" width="40" height="20" as="geometry" />
        </mxCell>
        <mxCell id="SCrkmm0jVP4aJ3ksJmY2-187" value="$$X_i$$" style="text;html=1;strokeColor=none;fillColor=none;align=center;verticalAlign=middle;whiteSpace=wrap;rounded=0;" vertex="1" parent="1">
          <mxGeometry x="285" y="2022.5" width="40" height="20" as="geometry" />
        </mxCell>
        <mxCell id="SCrkmm0jVP4aJ3ksJmY2-191" value="" style="endArrow=classic;html=1;" edge="1" parent="1">
          <mxGeometry width="50" height="50" relative="1" as="geometry">
            <mxPoint x="719.25" y="2030" as="sourcePoint" />
            <mxPoint x="759.25" y="2030" as="targetPoint" />
          </mxGeometry>
        </mxCell>
        <mxCell id="SCrkmm0jVP4aJ3ksJmY2-192" value="" style="endArrow=classic;html=1;" edge="1" parent="1">
          <mxGeometry width="50" height="50" relative="1" as="geometry">
            <mxPoint x="720" y="2146.41" as="sourcePoint" />
            <mxPoint x="760" y="2146.41" as="targetPoint" />
          </mxGeometry>
        </mxCell>
        <mxCell id="SCrkmm0jVP4aJ3ksJmY2-193" value="" style="endArrow=classic;html=1;" edge="1" parent="1">
          <mxGeometry width="50" height="50" relative="1" as="geometry">
            <mxPoint x="719.25" y="2254.5" as="sourcePoint" />
            <mxPoint x="759.25" y="2254.5" as="targetPoint" />
          </mxGeometry>
        </mxCell>
        <mxCell id="SCrkmm0jVP4aJ3ksJmY2-194" value="$$Y_1$$" style="text;html=1;strokeColor=none;fillColor=none;align=center;verticalAlign=middle;whiteSpace=wrap;rounded=0;" vertex="1" parent="1">
          <mxGeometry x="870" y="2006.5" width="40" height="20" as="geometry" />
        </mxCell>
        <mxCell id="SCrkmm0jVP4aJ3ksJmY2-197" value="$$Y_2$$" style="text;html=1;strokeColor=none;fillColor=none;align=center;verticalAlign=middle;whiteSpace=wrap;rounded=0;" vertex="1" parent="1">
          <mxGeometry x="870" y="2122.5" width="40" height="20" as="geometry" />
        </mxCell>
        <mxCell id="SCrkmm0jVP4aJ3ksJmY2-198" value="$$Y_3$$" style="text;html=1;strokeColor=none;fillColor=none;align=center;verticalAlign=middle;whiteSpace=wrap;rounded=0;" vertex="1" parent="1">
          <mxGeometry x="870" y="2232" width="40" height="20" as="geometry" />
        </mxCell>
        <mxCell id="SCrkmm0jVP4aJ3ksJmY2-200" value="$$Y_3$$" style="text;html=1;strokeColor=none;fillColor=none;align=center;verticalAlign=middle;whiteSpace=wrap;rounded=0;" vertex="1" parent="1">
          <mxGeometry x="760" y="2586.42" width="40" height="20" as="geometry" />
        </mxCell>
        <mxCell id="SCrkmm0jVP4aJ3ksJmY2-201" value="$$Y_2$$" style="text;html=1;strokeColor=none;fillColor=none;align=center;verticalAlign=middle;whiteSpace=wrap;rounded=0;" vertex="1" parent="1">
          <mxGeometry x="760" y="2476.25" width="40" height="20" as="geometry" />
        </mxCell>
        <mxCell id="SCrkmm0jVP4aJ3ksJmY2-202" value="$$Y_1$$" style="text;html=1;strokeColor=none;fillColor=none;align=center;verticalAlign=middle;whiteSpace=wrap;rounded=0;" vertex="1" parent="1">
          <mxGeometry x="760" y="2357.25" width="40" height="20" as="geometry" />
        </mxCell>
        <mxCell id="SCrkmm0jVP4aJ3ksJmY2-203" value="" style="endArrow=none;html=1;" edge="1" parent="1">
          <mxGeometry width="50" height="50" relative="1" as="geometry">
            <mxPoint y="2257" as="sourcePoint" />
            <mxPoint y="1640" as="targetPoint" />
          </mxGeometry>
        </mxCell>
        <mxCell id="SCrkmm0jVP4aJ3ksJmY2-207" value="" style="endArrow=none;html=1;" edge="1" parent="1">
          <mxGeometry width="50" height="50" relative="1" as="geometry">
            <mxPoint y="1640.42" as="sourcePoint" />
            <mxPoint x="70" y="1640.42" as="targetPoint" />
          </mxGeometry>
        </mxCell>
        <mxCell id="SCrkmm0jVP4aJ3ksJmY2-209" value="" style="endArrow=none;html=1;" edge="1" parent="1">
          <mxGeometry width="50" height="50" relative="1" as="geometry">
            <mxPoint y="1720.61" as="sourcePoint" />
            <mxPoint x="70" y="1720.61" as="targetPoint" />
          </mxGeometry>
        </mxCell>
        <mxCell id="SCrkmm0jVP4aJ3ksJmY2-210" value="" style="endArrow=none;html=1;" edge="1" parent="1">
          <mxGeometry width="50" height="50" relative="1" as="geometry">
            <mxPoint y="1792.29" as="sourcePoint" />
            <mxPoint x="70" y="1792.29" as="targetPoint" />
          </mxGeometry>
        </mxCell>
        <mxCell id="SCrkmm0jVP4aJ3ksJmY2-213" value="" style="endArrow=classic;html=1;" edge="1" parent="1">
          <mxGeometry width="50" height="50" relative="1" as="geometry">
            <mxPoint x="536.5" y="1709.66" as="sourcePoint" />
            <mxPoint x="436.49999999999994" y="1709.66" as="targetPoint" />
          </mxGeometry>
        </mxCell>
        <mxCell id="SCrkmm0jVP4aJ3ksJmY2-214" value="&lt;font face=&quot;Times New Roman&quot; style=&quot;font-size: 14px&quot;&gt;Raw EEG data&lt;/font&gt;" style="text;html=1;strokeColor=none;fillColor=none;align=center;verticalAlign=middle;whiteSpace=wrap;rounded=0;" vertex="1" parent="1">
          <mxGeometry x="594.4300000000001" y="1761.45" width="97" height="20" as="geometry" />
        </mxCell>
        <mxCell id="SCrkmm0jVP4aJ3ksJmY2-219" value="Preprocess" style="text;html=1;strokeColor=none;fillColor=none;align=center;verticalAlign=middle;whiteSpace=wrap;rounded=0;" vertex="1" parent="1">
          <mxGeometry x="465.49999999999994" y="1668.66" width="40" height="20" as="geometry" />
        </mxCell>
        <mxCell id="SCrkmm0jVP4aJ3ksJmY2-222" value="" style="shape=image;verticalLabelPosition=bottom;labelBackgroundColor=#ffffff;verticalAlign=top;aspect=fixed;imageAspect=0;image=data:image/png,iVBORw0KGgoAAAANSUhEUgAAAOYAAABYCAIAAABuyBzpAAAAAXNSR0IArs4c6QAAAARnQU1BAACxjwv8YQUAAAAJcEhZcwAADsMAAA7DAcdvqGQAACu3SURBVHhe7Z13fBXFFseDSJFelE4A6R0iItJ76CWhCtIDBEPvXUAQkKb03qV3pPfeJYC0gGDoHcVIUV/e13sm81l27725CQTJe/f3RzIzOzs7c+bUmdm9MUJDQz3ccCP64B313w03ogncLOtGNIObZd2IZnCzrBvRDG6WdSOawT7Lnj9/PnHixO+++27+/Pnz5Mlz//59dcGC58+fN2nS5PPPPz958qQqeuvx6NGjTZs2/f333yr/f4yHDx/279//8uXLKu/h8eTJk6tXr/7nP/9ReRtCQ0M1uXx8fGLEiJEjR45IEBBGMrU8a9asb775JmLLVtS2gt5UrVpV1fDwmDx5Mk+6c+eOXL127VrdunV/+OEH0kuXLlWVPDySJEmSMWPGIUOG/Pnnn0+fPpXKbw9+/fXXc+fOMbQqVarQW8SMtLrmMm7evKlSbwdQGVOnTvXz87t9+7YqigiaN28OKTJlyvTgwQOymzdvjhcvHiXZs2c/duwYJatXry5btmyiRInix49/6NChVatW/TPTNowaNcrWRuitW7fWrVu3ZcsWdIGUgJ07d3bu3PnKlSuSPXLkyGeffcZdZcqU+e2336RQqzmeIiWuwD7LAuSPfkuLJUuWpN8khE3r168v5e3bt//www8lbcR7773HyE+fPi1NRQ4ICeN89uyZykcQf/zxx19//aUyNiH08vJS/QtD69ateYqq4QK6du3KXT179rx3757pRrp64sQJSSPSO3bs2L17d8uWLU+dOoWoSLkTWLsREhIyduzY69evq3wYTDVbtWolYyGhikJDX7x4gRm5ceOGyoeG0rdFixbBW6Tp/Pbt2+/evdu9e3e5V1C+fPm4ceOqjIcHPDpgwAAUqspbwKVvv/0WltB3pUqVCiXNI1auXBkrVixKaGTmzJlCN43MmTOPGDEC7vf29pYSOM11XeCQZQHssmfPHmlU0LRpU2ihMgYwMfv370dW0L6qyMMjbdq0bdu2FWEVwEPDhg1DOgHqmYFNnDjx4MGD6nIYjh8/jiIMCAigkUaNGjHmSZMmMXncTn9++uknqYZko9FR5xs2bKhQoYKnp+f69evlEnSEWKlTp547dy7GCBVC36RXgrx588pkdOzYESZ4/PhxuLxLm3KvIFeuXCgS7mLsAwcOpDXAuCjBm1KVwrBw4UJphKsYq48++qhDhw5SAjMVKVIkZcqUMKixDw0bNuTG6tWrq7xtOvLly/fpp5/CkUgFVGKacd7kEQBCwej0IV26dFICEdKkSVO8eHEZLHoEzff+++/LVQ25KqhWrRqcXbRoUZX38GjRosXGjRtVxqanfv/99y+++ELlbYDUkhg/fjwzGzNmTMka0aBBAwxCsmTJVP5lJE2a9OLFi2qoTuGMZQFExNbTIq6tNC2oV6/evHnzatasSRoiqtqhocHBwVJBA3IsWLBAri5ZskSVGoA4ii5BUcHQEyZMsNLUiDhx4kyZMgVWVvmXUaBAAc2OGsxr7NixScCgSBETHxQUhBclVxEzSFy6dGm8OipYRQggeAkSJJD6GpTwOJUJg7+/v0oZ8Mknn6B+0Lvp06dXRTbHjrk3TmGPHj1w7GDidu3aqSIPDxQSBpQ+oLmlZNq0acgnCRkU7FWoUCHbFQ8YVBJWpjFqUAG34xjgyGJREUjIjp8qZg36YCqpQ5fEfRozZgxdRSr+IYeNMShBJKhTu3Zt7kL7kNZPQbvhtPTr1w85AQik3IjtZYKQUrqKQ4wqCQwMZEbkLmYBVY08G02ECeGwLNi6dWunTp2MvEhvtLFjbEYPBowcORJJJWhTtT08EiZMiBtElKZ7Bq9jHbJlyyZZjFrFihUlHTkg9EJiDbyXwoULq4wNuNomhw+iq2svg3li1Pz19fVFlaJEceYoL1euHHPDkNGU4ikBRIhx9e7dm+mREgETc+bMmbNnz6q8BRAKK0ECVxIKS6FdoIMRe21GTVi8ePG+fft4nMrbuBx56NatG4xy4MAB+GzXrl0oYBw82LRv377cwtDoniKEDUY/CmDNaFZlbLC6/lADqZM0Ca1r0GK6MsxNbCNpR0BsTNOHalfXLAifZTWgrDQXbg8AUrJixQqGVKxYMblLw+hrY8VUqU0xVKpUyagMmCR4BU8IFiHNMKBj8uTJ33nnHdJ79+4tVaoU1YYPH05TXKpVqxZ8gHuA3aRk7dq10g7AVoiuMgKyGo04nGfUgiZkyJDB6JWimVDJMD3MISXMDSpcKhvHiI8ohQIkR6XCABHgJ60gBUYWtAsog/KePn26difk6ciVLjGB8eLiq0wU4PDhw2hiZBinRRW5DFzbxo0bY2QgHbrWiZMQAZYlJIRGmG+Vdw0MQ0isIcGpQC+vEBv9/PPPlKDDhg4dinMp0b2V+nhaV69elTQ85IQ63I6CxA8mAVTpy8AFx8jOmDEDn5hnIRu5c+eWLhmBDkDdqnscgxbwN/r06WPUWGg4wgsU3tGjR5Fh6tBn1a6HB3MsTI/OQwC4hHdEhEQJmltVMoBuYEDQkdY1GRrHW0OWVP7fABP3yy+/qEzUIAIsG2ngGCh626BKw4BXnjNnTtGLbwkQHpQ9Wr9gwYIffvjhlStXXvua3ffff798+XJkz0mkzPS3adNm/vz5KGbsT4oUKXBb1bX/Y7gPH7oRzeDesHUjmsHNspHHokWLYsSIQayg8hYQOFJh5cqVKv/WAD/n0KFDkTOwo0ePZlA9e/ZUeRsIBhYvXqwyHh7463jzKmPDixcvqIMXpPIv4/nz53hBKhMubO5BNAbU0essbxKPHj1SFLTNhyo1gBBKrhKzqqIoAAGo3YVk5/Dz86Njer1cQFybJUuWli1bqrwDyKCAyoeGEihLCZ73nDlzmBHaJ2AdN24caakzcuRIKhAYwJpSQrAoMTF1ypcvnyBBAmJxueQcb4JlTQt+rxeyotmoUSNZiDh9+nS4oRKUunPnDnE6MdCTJ0/sMly4+Oabb2zT9A9OnTqlSg0YOHCgXIUPVJFteng6UT9hNTxtWtKOBGSTDA0H4xYuXHjTpk3qgg08q3///t9++y1pzT0USsdSpUqF2vP392/WrNnhw4cHDRok5T/99BP89OWXX9avX3/jxo3ciBbkRlizcePGUgdoTTF+/HhVZAOcqlIeHgMGDKACLegV0s8+++z69ev79+9PkyYNhTwXfS+X+vTpIw06RwRY9sSJE3Xq1DEuYdAVaBQUFESiS5cunTt31nTRmDt3LnaEsFflXcbRo0fr1q3L7bpNpLBt27YMTEpgtWnTpsloQa5cub766isSiHK3bt0GDx5Mh+EJouwKFSqI2GzduhUFkCNHDrlFY9iwYVy1dh7A3Hpdb9asWcmSJfvoo492796tD2AA4+ior89gaNy9e5dLsAK3v/POP85YrFix0CvMWbiL3KKKTAgMDETetJ1NlCiR3gBjOlSl0NAJEyZIYfr06SHLxYsXEWxdmCRJkjJlykjatJJvBfytUgYw6RCtdu3aKm8PTJnpjIER8ePHZ4JUxsOjSJEix48fR5s4OZjhjGXR4cHBwSoTGiqjQodLFlmBMyhhMJs3b7Y90WPv3r1cQuyqVKmC9GAO4tlOBgGos27dOq4yyA0bNjB/pGfOnNm8efPJkyczMTwOVcFVyIqJkXMVoFixYjxo0qRJxsUy5kB2CwHMalqHF8AcsqUJ0Ea+vr6mjVwjMmfOHDdu3BYtWjAuGOKPP/5Ad6KiZN+Lflq3iBna559/ToLu/UMRmxQZl3WZS/pGonLlytSB16XcCEgHl6OxEMhVq1a1atXKuFeJMCRNmhTOgLP79evXvn374cOHd+zY0e4mvqB69eroDhxH3M04ceKoUhv0XJiAIKmUBZqAjpA8eXJJ7Nq1Cz7LmTOnZJcsWSIaRANaNWnSRGU8PNKlS6e3P62g/4oEFjhkWR7PLDLHqCXswsOHD6UtOImra9eudTT9JUuWVCkL4DM4EotDGv5bs2aNlANvb+8MGTKQgMshuhTCrCaim8B0Qgj6pt0p0K5du4CAgHLlyqn8yyBaGjt2LIpz6tSpdMBJb+0ClaC3nVEeNCJpFDkqvGDBgqQTJ06MyHXo0AEdT0IqaEyZMsU0l6hb4WwBWViTKKdv376qyDZSlXIMzT0RAv357bffevfujZbBjNSoUQPZRr8gZrhY6CzcmGvXrkFST0/P7du3nzx58uuvv1Y3hwGmF3OB3kEB4RuIcYDCNWvWxD9mWtGdSCOEggFI43ucP39e5pcGGbLxiA/9+YcL7cEhy4qHLkCs582bpzIeHgixSjllUA3jeQPNjs5B71E/8DckQ9XJ9jpTggqkM5AVCtIN2SUSyIGBIUOGSJZ7oS+eA96SqGfU5MKFC6129syZM/QQ9Wbd96pYsaJxZ59HIL2YYxzoZcuW0dSPP/6orhkwceJE1bTNFsG7cINoOAwfhbCCj49PuArMihIlSuB3IsnwEw6AFPI4/NFPP/0URyhFihRSCPLnz49mCQkJQVNgCWEXhi8bbEga6bRp05KQfkYIsHj37t3hXSwD00Sb+KbqWgQBAffs2SNp6All9u3bZ9wftcI+y6K0RInCHzJ+fZ5Ng6hCNqzx/bGeXl5eqDek84svvsDdJPhASfP4Y8eO4Udu2bIFWqs7bd6FJOBCOID6sAuOsj4co02tBpxn9FLsAmUAp6qMARcuXMDWq4xj4NXwaDw8HrRo0SImldb0ygCKUNV7GfCuUUeiVu3Gc0wz2t3oaOIaqXtsmD17NrEjw4RQeAJyfILWMHfY06pVq9IldWcYEDb41SiECLO0hqehSYHm+3d3cV8vHGrZHTt2SFAiDivA3gnbwWdwp/EEN0Yh3Dj90qVL4rvUq1cPKqMC0dxy6FgDKjNnK1ascOXkTVQA0Tp79qzKhEEULayp8hag7N9//300GV6pKnIBDBYOQ8ixjwcOHFClBkRiPQFdg/DD/Sr/vwhn4ZcAnVG8eHHmDEKgKghUX2VpJnIrSv8uiPfDPRMD1zo3Z268LrjPGLgRzeDesHUjmsEZyxIY4bCqjBtuRARDhgxJlixZ3rx533vvvbJlyxLNC+LHj79q1arJkyc3bdpUdhAPHjwol+T1oaFDh8aMGXPw4MG2ZuxB/AMrNm7cmChRonfffVfW/DWidPf1DYBQev369dAlSs/ng9GjRxOnEmteD3tLlphyypQp1vAuSrFr1y4iWpV5Hdi0aROMMWHCBJU3ICQkRI4Q3Lhxw7qgDkcmsLw/t2DBgo8//ljSsWPH1m+pEDJJm1bYZ1nYVPYVQdGiRadNmzZmzJjChQs3adKE7o4fP16qESDL7jP46quv+vXr9+8yNDH43r17TWsXv/76q7ypzFXjVqpsf0catLZixQpHJ9ORB/3CTPbs2WX9eNiwYWTTpEkzf/58KLx582a9JCkgrt22bRstk4aS69atk55HFIGBgXAPiUuXLjGPKDBZmYEUJoF59uzZokWLTPE0bCT7lICAm1v0OhoJvXOrdRld9ff3L1WqVMKECRMnTkyDcvIBBmWkskmZJ08e7pXDMUCzqSBevHjGkiJFiggR7MKhlu3cubOjF6EgQZcuXSZNmhQrVqwPPviAvlauXFku0ePGjRsLHxNlN2/eXK/7QDVhaHrDvRs2bJByI44ePdq6dWv00/79+2/fvt2xY8cff/xRXXMKeAKh6tOnD32Aprly5apVq1amTJnonnRME9qI3r1769NDzpfVUB7oZhgIjcUo7t69u2zZMlqA/wICAhhyvnz5ypUr17dvX+i2cOFC2eYFadOm5W+NGjUYl5QIZGcBIwZ/IGY9e/bMkSOHFCJLMJy8/Ojr66t64ABHjhxp1KjRJ598kiJFirVr11Iyc+ZMbsyWLRt+nfENSnooe+AwBJ1HESJy6CNKvL29kTEo8N1338l2Hab51KlTDx48kHfjPD09ly5dqrf6BBSip2A1ed3Xii1bttCf8+fPt2jR4sKFC6QhY926ddGApK9evSrv+VWtWvXMmTNYP4ggL7E6n3SHLItMAHnp2ajPtfJwAj8/P/kiC2AKaQ09T7pbt27MNzMql8aNG4c+GD58OGSCy5F441kTAYR2InAa8iUSVzBixAimR3MwTAPRkQ2MeLNmzRCkc+fOSZtQfMaMGVu3bqWHTLPUjxCYUdOHIAACr1Iuo3v37nDV559/PmfOHIT5xYsXKD/pJMyqKlmgxfW1A3JlyZJFZcKQLl06Zhk7hlqF81auXCk9dAI41fiZCxcRzrrs/fv3aReDcvz4cURk+fLlaBomUlZqUQzoNv3BGHqcMmVKSUcaSZMmlc8jaMBeckgCEYJ75CgdaR6NAcKRN24+CbCGyAx8nDNnTiwAGpcO49HPnj2bG7kdQXd0RgSgO4HKuAA6jBI1bpHTJcILcezk4AGAgzE1QUFBskWcO3du4y2Abjv/hoMGkQ2RMa1JljhGf/wCcFUf9oOePj4+PAuZhKswfahe4WZMAR5nuJyNnIj5AmgQtCZKhEejmMqUKSOb4RDTuHkepQiHZR2Bid+3b594Wgg9njUMQRo7JWMDgwYNMk2JBlGkWEwrmFfaWb16tZeXl1EAUCeyhwmsXjxAuLG/hJ9YNBT2P70MD6h8jLJsboV77oTpYYw4Z8aXvLFl+v1vvAUm8pdffjG9/o+00/Pt27ervA1iOjCXVM6YMSOEgnTBwcGUY7Ip7NChw4EDB4y73I6AlaApvOpevXoRjGPE4B7UMOLdv39/o5EVcQXQR74VRxoiLFmyBLenZcuWixcvZhTcS/BNO3jbNCjV8CJQAfrdZg2uoggI8lQ+6hFJlnUEBiDHz+TrXShCvKLSpUszWnHm4EJoISOnMoEnPCr+ABXGjh2r4znA5KEstRZ3ApqNNNXw4fAHHj58iA+A/sN7adCgQd68eRESfAN4FOBTGrUI/Ud5M50q/2qAS1BdKmMBPn3FihXl00mwGsobp9nonumTQP8neM0sC1AzcmpWoNeSEHHm3m6IDTc4X/phRolDcUPnzp0rR0XxgzG7PIgQ6lU2kKMpGLJ8gAevMaq/G/C2wb1h60Y0g3vD1o1ohreRZX/99VecfdxKWZeVwuvXr48cOZLwlhCVcLtEiRI4CeIVcLVHjx4xYsSgPrEzoYOnp6fxSP9rAbHm1KlTO3funCZNGp7lZMHBjaiF+AeRBjHBlClTZF+AdKNGjQoWLEh0cvToUbJSR4DvVb169XTp0jVs2HDPnj1Pnz797rvvAgICTHsKx44d0ws0AOYLCQkhgnbyPh3+nEq9DOPWUZ8+ferWrYtj/eDBA7uHUzXoNg63XvgUUGL9rhvx9f2wb8i58cbwqiwLw8n8xY0b17SkJW+n3Lp1C61JcO1kCX39+vXUhFN79uxpfb3E29s7ue2tJoRh+PDh6Ffj1xGdoFChQlu3bqWT+vx/hQoVZP1SFnc1iGBKlSo1dOhQHx8f2bhKnz49vVq2bJnIpOyYW/uGRMm+JcHlX3/9NXny5K+++gpRcfGVfDcigciwLLOI2gsODl6wYIGaOtfg6+s7f/58+Mb5S4g1a9YMCgpi+oEqsvGffnEenD59eunSpSIM0pos1ubKlcvE0MYffdDgFr3LdeTIEetejka1atXkuEXRokUvXbqEDCCKn376qVwVVKxY0WgZBAihozc1MDiyIE8aMtr9MCUysHPnTrsLzCdPnnwD66C3b9+2rsJGGli2Fi1aIM/Hjx8vXLgwjpy6EHE4Y9nnz5/DEypjAA9W0xIGLy8vJpIEOixHjhzMcevWrU2bnBkyZNALXvfu3WvQoEGnTp3gQv2qNGoYbhs9erTRozh8+DDVJk6cqO+1Asp+/fXXmPILFy5w74sXL65cuWJ90RkdCadCOOlY8+bN//zzT9PLotTZvHkz+lXlw1CjRg1jr+g/7g2qGj52Yj2KFy8+adKkbt26LVmyBMF4+PAhChu5lasYJTkyEjNmTGaxQIECuEnFihULDAycPn36GNvbl1WqVLl58yb6W55LAoqJCOlTKa8CBoUndurUqWbNmq1du5bpbtu2LelFixalSpUKchE/jBo1ilFg35gLOSogNyI5WongIMlSI+WYLMKJlStXEmwwF7A+kck/A34ZNEjswbMgjjTiIuyzLHM5bdq0lClTEmTMmDGja9euaC/Z1CEe0g4AbJE/f369lE3/GDO91woMby9fvnzMRO3atR19h4dnQbK7to9T0IIUvjpo9uzZs/Sf3pYvX37QoEHMt7SPxEv/NRjdunXrcAz0HhUKHpoycIKtjz/+WB8gtIKZy549e8mSJWkBbmvZsiVDxk13bkkiBGSMQBNiGr12VADcz+OIOGHxtGnTrlmzxu5riSh7ADPRPe3HY52yZs1q3MkDIgzOMXjwYBqRQx30Yfbs2ZQQaUDnJEmSmJxDIxBL/ZUDEyA7PACjt2nTJtxVdvssiyumv3yhkThxYoIq5oM0LHjjxg3jTtXbCVjNSgImz3jUrX79+pSoa5GC3dsx61CpUqVKfn5+WCFxx1Fd8NnChQvRPRCZSADdJm8vO9rBjijKli2LUqRxTBPmAnMHP+GaEwNIBXTQtm3bHK14wHZ4bipjMwU0iHMFrCzhCFha054l9+LiYyrpG85VxowZP/jgA4J166jbt28P9ZzMiEPH4Msvv8RGDxgwwHpQg5IIvUr6FuLMmTP+/v7MHPL9ZgQPHY/xseveoBoxuFzSK3oauOwzZ86UDT8rsKr6y1+RBn45hoI+4F+isJlZ2AVTvnr1arpkegdTvm0PW9eqVQt569WrF5KA90InUWe7d+9GVNBlUhnaYgTk80eYHSnUEKbkLlsvXgJhyaxZs6SaFeGHX1hY3ER0lehXmpPzA25EBfr37w+R5Sg6zokUYitwgv+ZTNvxq2zZsu3fvx8/QWYde0pggK+MikGDmj6Tg4rVP981YcIEY6BZr149vEn53r+L4InIlYunjjScLwUiBogNlgf3XZ98chKfuTds3YhmcG/YuhHNECUsS2B+08H3ml3HvXv3vv3222vXrpEmWMmUKROuOgZOg4AGA4qzJfU1cGNw4TGXKv86cPfuXUxzw4YNkyZN+sknnxD8LjX8eK8bbxTiH7wKmE5jVPH06dOiRYsSae7YsUMVhQE+Ll68OOFkly5dQkJCjh8/fiLsd181Hj9+PGjQIP2iS65cuU6dOuXkh+xix45Na/Pnz69Tpw5PHD58uP7SqnHDdurUqd26dZs+fToRtLwsYIWEHVu2bPnoo4/oJ32T1wkp1z6WCU4+0OeGXcAqX3/9tbwWFjm8KsvCJXHixMmaNatsOqAXjWv4uNX6IGxgYGCZsA/warzzzjvz5s3j6t+278vqFzacgGcVLFiQ0EHlncLX15c2jZ81BRSaVr6IW2lWXX4ZlSpV0r/62apVq8GDB5u20+gJsXP37t1lMWjkyJFz5szx8/OTleZw8fvvv0f0oIJ+9zqKsG3bNkbh4+NDVIcCQvKJ/fv27Xvp0iVVw4LTp08fOHBAwjJGZDrC+/z589WrV0PzvXv3YqCEbl5eXugmgntVyWVEnmV5GCpNv0oqy/WSNsLT03PXrl3ykQUBSjHly6+IodWMb/MmSJAAzjh8+DBRJA5A3LhxEyZM2KZNG8JkSMOjJVIGdMD6SUYXIZ/ZkoPnrrzZ17NnT3kowPcYOnSo89clcufOfebMGeJxpp/Yf9KkSUgv6X379hEj42N8/PHHGTNmRGgZII3PnDmTKZc9CwZ44cKF6tWrEzijk4zn3//666+8efPS4eXLl0OlI0eOGGfd7laCXVy9ehUTgbRwi9ATlsIEWd8Y1WAu8uTJc8j2uyCwMh3YunXrsWPHsGCyDJc4ceIaNWrIqiiSvGnTJtpHJWk2taJYsWLGFwJcgTOWhYKOVAXeqvEDtEbUrFkTuqO3WrRooYoMkMWLoKCg/Pnzw+UdOnQwLVCbVjeCg4PllXwngHzQEf5AmyLrPJ3ujRkzRpbE9Y7OrFmz1qxZ06tXL8niB6Or9Mf/cVKRJQwWrIxgjB8/HoagTubMmRlIx44djW6GABvXuXPnatWq4QWlSJECC9OvXz9Ha6guAraoXLmy6UW01KlT480jXf7+/rIxbgRmDfVfsmRJuaQJiLZzosOMmylpbL+ArDI25MyZk56ojA1664HBNmvWTL5fHVHQZsuWLc+dO9e1a9cqVaroDUJUGAaZSWSCGKbqogM4ZFl4n4aQm8uXL5v2UX/88Uc5DwU3oD+4evDgQSYPKkBuI4ehF/ECk9heVEJnGHuDZItwE2CNGzcO9YMyXrJkid5Pfy1Yv349TEyohCpVRZbla+j45Zdf2j1N4SLu3LmjDytCN/QlOkyW0AHcwNhNKtnb2/u7777jufgtxt0mE/QlBNvubqfdbWE4e8aMGZgmIlQmRXZB0Q7oZkJYZMzRThtP4ap80hlrTs8pWbZsmewcMShjH+LHj48JxcqhmJET2AAvceDAgaNHj4bm9EFv3mJGGClsKpZNgwbhfqmjgcHBy7IqCA37LPvTTz/p5wEeGRAQwMQjtag0QiIKYWgjHzgB4o6N4EaV/7eBqGhPABUVdV9jvXXrFuItggrpcHnxE5g5dIlUMAKHAfbVZIer5BvIWA+7b6ijztEIWEI5Z0OcwO3WH9t3BfDZggUL1q5dazKqMLrpXT2cVAwODErfnHCVANcOswMRVN4BcDCwEqorYcDiqcsW2GdZJpVW5BV1u0BxRus9W4wDo4vcZ9ejFPimmE7xaDVgdzk9h5cPXxIYwAf6JBeTpbdV0Q442bLAki9fPhQk5kubRNQndgwXVrSs7JPpPbZ/F8g2Zke+JIIuN336yQiHjgF6HhstClWOd5AQMNlIhqoXbSFuSTQCQTcMrTLhAXWot1XxuXXkKmByT548CQW0P/OWAM29ceNG56c+3Bu2bkQzuDds3YhmiBKWvXDhwty5c1HvKm/D/fv38bSI2EaNGoWbQVR46NAhLJ26bAOmKjg4WNKEk9Qh+CBNBDNmzBiihESJEhHgE2r4+fkRz0lNE3hK3759f/jhB5U3gFtkB9gRsKE8S2UcQ07oqYwNDJnQSmVeE2S/QGXeLHjuzJkz5Q05VeQCqIzbrTIOwLQWKlSoevXqNL5jxw5VGiHwmNcLZk42wAjRihcvvnfvXmZ32rRppnU+AYVNmjQhXA0JCaFanTp1KCxatCgcKe9yAScr9lWqVBk7dqy/v//u3bvXr18Pw23atEmvLhHHHDhwgChYFti5CrEIybdt2yZdNYEIgD4TntevXx+Czp49e9iwYbK0efDgQSLlgIAA4oOMGTPSeIYMGVq3bs0txM6EqgQ3sWPHJkDevn07dzVo0MB40pSoQG8OCRjsunXrrHvalCNysk0AcTJlyoT43bx5U11+GVSW7gEesWHDBvpGP2mBEp7o5GAhrMMj0CPacURWISNO8Jo1a2QiwL59+2gZAu7atQuHWC8Fom4gxWeffVazZs0OHTpArgEDBmTOnNnT05PpaNSokf4eFJ2UBDh79qzxJyYZINEhoeSjR4/0Kdtw8Uosi/NuXGoFM2bMcP7tPkI3CelMgMuNi9uOAEtZX87WcLSJBZuaXifMnz+/fAYLvfv999/36NFDn2qwwskGm5ONg5IlSwYFBcEQq1atKlu2LCVQBrsxaNAgHx8f/VuYvr6+48eP37x5M1LN9MvLCyakT59+586desUaIbxy5cro0aNlKQDhMf3UKB1u3769pGEj+A/bxXiZHSxVp06djEcmGEL27Nnz5Mlj2pLUQBqBpKEkDDp06FAn7+hr0GDhwoW5l/aB8Wf05KU3DSEjw4RoyEb//v2d7EhHnmVXrFgRJ06cLFmytGvXbunSpVjG3r17Sw/oX2BgIKqidOnSUgJQXefOnZPVWSRvwoQJOA+dO3dmOhFNVcnDAz1Btm3btsuWLaMFVBeMiDadOHEiKkFLOXyGKKOAkVT9NUwN9N+WLVuMP2ttF6IvjYAJmA90pJ4kI3BI0KM1atRg7EBWZAA9pDOwI1YlceLEUihwtGjvCjA1ixcv1sxdoECBZs2aQUa9SW4XdhdxIwQY6IsvvkAkVN4GZN4kujlz5mTqu3btygxCGeSNvpmGbwVTKWeh4AGcPS8vL3XhZUBnmWgrIsOyaA6mx7TRqoFh0taKbl2+fBkRP3nypFYSVnBp9erV2CnMutGOAKTNVGIEl0Qc+YtjwKTiK6P79S0YbrQL1g3uh1IYyosXL8qHqjVQGKg6lByaTJszOozt27hx45AhQxYuXDhu3DjrVgjODNbQ9I4G7gcuAfOtJxjLgOeAhsudO3etWrUQYyQKT/H06dPTp09v3rw55ShgNCX8Xa9ePeojrnRVRoHFrFatmjRlQpcuXXDNmzZtyhAwFKgARJoOQEncqrp160ITeihMTAn6BfYiW6JEiWLFiiHSSCa3o3GgPFTidvn8I8/l6RUrVkQ14m9oq800wZ34V1gGk4EVQPzr16/TeXQKQF9C1VmzZqHOsmbNijqwziY0h0PwEPSr9qh8HqouWxAZloUK0jQSw4yik5BLtB2EoE92R/K2Afef/qNToanxRzpfL/BrMRfYH5V3DXYJSEgQN25cOBsPCjZCABBOPf1aR2jQiL5K2tF2tKNyAS2Y9uqjGugFNIUT7QZcYlkGhk1H8aBX0EbCr5MnT9ZEEVUq6WgBJHvOnDkoJJWPDrh9+/YT20uqzvnsfx72txIgDZYL5QxTItzWBaN8+fJhc+06fG64EaWwz7K///47oStGQeVtZ3xkyY2Et7c3voErAb4bbrx22FeTuOq49oSNspZBlAD74k4RN+AerFu3zs2vbvxbcJ8xcCOawe2MuhHN8PpZFrcBf1dW+JctWyYesBGEdOPHjyek27lz58aNG1Hzd+7cuX79OpcIh+W3y0gT3lWtWpXWcEU2bdpEqEebRlSsWLFhw4anT58+cuTI06dPt27dOn/+/CRJkqjLMWLEiRMnODj4wIED3bp1k+3yW7duHTp0yNYLh/jtt9/8/Pzwi/CFiM1V6evG33//3bZt2549e6r8W4Y5c+YIDQ8ePKiKXh9khVtlIgFujhwI0YYNG7Z8+XLjOuLYsWMZp2raBh8fn/Pnz48aNapUqVJLly5dsmSJ/vVQgbjLsNeZM2fke3p169adO3eu8z0eExxt1cY1fGsWLpQ2kYR+/frJRjx48uTJhg0bBg8ePHHixHLlyhlfx0AA2rRpU7t27alTp9LzoKCgadOmIUuwGq3pE6jPnj3r2rUrIamQApmk5P79+5s3b6YEaVyzZg2UMR4VmDRpkjzi8OHDeq3QCG6nwcmTJ4d7+B/QgunjWU5ATfSFk7XPc+fO6c1b/XvFJtDtrFmzDh8+XOVtoBs0C5cT/NgdFAgMDEyaNGnevHlXrVrlytCsiCTLXrp0Sb82CR8wf3Tx2rVrMt8tW7bcvn17lbDfBHURjr4VYMK2bduOHz8u73A72g6tU6fOvn37VMYB6tev365dO4irz99EFAkTJtyzZw8KSW/xx4sXr2zZso7O8RQvXhxWZp46duxo3GRPnTo1naEQNv355593795tjG6hM3dZOYASbIjMunyMFiNDifAi4kE3atasuXjxYn34BruBXpBtah5KeH3ixAmuNm7cuK8Nvr6+1atXN75PRgsYQ/js8ePH2Ch504aJ1huz2Lrvv/9+4cKFvXr1YlL0W41Dhw5FBZh2Iuib3uUG9MT1V4I1IsaykOns2bPIqPUtuRYtWsjxn5IlS6raoaHz5s1LlSoVfkKxYsWkGmC0zZs3L1OmTL169W7fvg051q5dq67ZQOX8+fP36dMHrdahQwfI4e/vj5JD5aDUpWUoeMH2tcBTp06hI5nyvXv3osxCQkK4S85M4VQw3zzl3r17coKkR48eTZs2lacYkT59elQpgypSpAiqET1UoEABI1dly5ZNsvI3S5YsuXPnJuHkWIwRKBXrORKjBQgXnrbfOMbLYgpGjBiB7heVQSMzZsyQOgK6qq9qZM+eHYExHkxxDmTG1KwGc1GrVi2VCQ/YYYyMbKrjcelP3DH7ksB7XL16tUnlO9/iiRjLGj8NWbp0aXQtYmT6ELb1XTzREPiFQ4YMsfthZCrIl7Xh5kj8Dq8rQEPI0S2ASyBdFaAsRVfhY0lXAQnoiEQdPXpUShAGOs9f1Dx/ISvCKS0EBARgTFeuXIn/g8IbOXIkFrNZs2ZyNkA+GY3jIZVBsmTJoBL8Bxcivd7e3tavvcq5zRUrVhgdLThPfrr7VYC3w0PhbDndhmEsX748+rVVq1aoRmSVNARBYUt9wC38NfaENJqCG6URBBJ/r0mTJqYjWgIqN2rUSJQFFXAJIAhmUDeYPHlybDKMhNbDB8N47t+/30Z1O3CVZZkktJ08AHh5eeljIszuggUL0LLYCGyN0bV1HShCfIlImInIQRgIbYRGd3R8NlzQW1rA7VZ5C6CMfqkTASAYxQ/GRtnd3MY7pFcwJR3r37+/KrW9xUX92bNnm5x7WI2oFGuu8jbAcBMmTKhRowZpTPCNGzcePXqEp4HKnDVrFtPErBknCP1nst0adF5O2C1atIg0DMCN69evl4+kwN+qns33RbYlzXgvXrw4evRodJBdM2L8tBERc+vWre2et0QLqEoWOGTZ58+fIwcwOz3ATRHDCpBOQhB94imagjnAcVSZtwn4JLikdtkI5kNr4C/BfBhZzfdwJNEk9hffUWSe0eFuvfpRBBxf3CSVCQOMgbWxHsSxArOGRF2+fBlLJVYUJ01dMwB7RUhQtGhRYTBAZX3w3Ar7LIusaFOlnTCkAcFFT6hKbrjhMtDQJ0+edKTRAWIG78LcXbt2xYtTpfbgcPcLH+Xq1auShutxuglxrFGXG268Ybg3bN2IZnBv2LoRzeBmWTeiGdws60Y0g5tl3YhW8PD4L8Z5ViSQWOpwAAAAAElFTkSuQmCC;" vertex="1" parent="1">
          <mxGeometry x="76.66" y="1622.2600000000002" width="119.57" height="45.75" as="geometry" />
        </mxCell>
        <mxCell id="SCrkmm0jVP4aJ3ksJmY2-227" value="" style="rounded=0;whiteSpace=wrap;html=1;strokeColor=#8C8C8C;" vertex="1" parent="1">
          <mxGeometry x="75.98999999999998" y="1694.47" width="122.91" height="50" as="geometry" />
        </mxCell>
        <mxCell id="SCrkmm0jVP4aJ3ksJmY2-228" value="" style="shape=image;verticalLabelPosition=bottom;labelBackgroundColor=#ffffff;verticalAlign=top;aspect=fixed;imageAspect=0;image=data:image/png,iVBORw0KGgoAAAANSUhEUgAAAOYAAABYCAIAAABuyBzpAAAAAXNSR0IArs4c6QAAAARnQU1BAACxjwv8YQUAAAAJcEhZcwAADsMAAA7DAcdvqGQAACu3SURBVHhe7Z13fBXFFseDSJFelE4A6R0iItJ76CWhCtIDBEPvXUAQkKb03qV3pPfeJYC0gGDoHcVIUV/e13sm81l27725CQTJe/f3RzIzOzs7c+bUmdm9MUJDQz3ccCP64B313w03ogncLOtGNIObZd2IZnCzrBvRDG6WdSOawT7Lnj9/PnHixO+++27+/Pnz5Mlz//59dcGC58+fN2nS5PPPPz958qQqeuvx6NGjTZs2/f333yr/f4yHDx/279//8uXLKu/h8eTJk6tXr/7nP/9ReRtCQ0M1uXx8fGLEiJEjR45IEBBGMrU8a9asb775JmLLVtS2gt5UrVpV1fDwmDx5Mk+6c+eOXL127VrdunV/+OEH0kuXLlWVPDySJEmSMWPGIUOG/Pnnn0+fPpXKbw9+/fXXc+fOMbQqVarQW8SMtLrmMm7evKlSbwdQGVOnTvXz87t9+7YqigiaN28OKTJlyvTgwQOymzdvjhcvHiXZs2c/duwYJatXry5btmyiRInix49/6NChVatW/TPTNowaNcrWRuitW7fWrVu3ZcsWdIGUgJ07d3bu3PnKlSuSPXLkyGeffcZdZcqU+e2336RQqzmeIiWuwD7LAuSPfkuLJUuWpN8khE3r168v5e3bt//www8lbcR7773HyE+fPi1NRQ4ICeN89uyZykcQf/zxx19//aUyNiH08vJS/QtD69ateYqq4QK6du3KXT179rx3757pRrp64sQJSSPSO3bs2L17d8uWLU+dOoWoSLkTWLsREhIyduzY69evq3wYTDVbtWolYyGhikJDX7x4gRm5ceOGyoeG0rdFixbBW6Tp/Pbt2+/evdu9e3e5V1C+fPm4ceOqjIcHPDpgwAAUqspbwKVvv/0WltB3pUqVCiXNI1auXBkrVixKaGTmzJlCN43MmTOPGDEC7vf29pYSOM11XeCQZQHssmfPHmlU0LRpU2ihMgYwMfv370dW0L6qyMMjbdq0bdu2FWEVwEPDhg1DOgHqmYFNnDjx4MGD6nIYjh8/jiIMCAigkUaNGjHmSZMmMXncTn9++uknqYZko9FR5xs2bKhQoYKnp+f69evlEnSEWKlTp547dy7GCBVC36RXgrx588pkdOzYESZ4/PhxuLxLm3KvIFeuXCgS7mLsAwcOpDXAuCjBm1KVwrBw4UJphKsYq48++qhDhw5SAjMVKVIkZcqUMKixDw0bNuTG6tWrq7xtOvLly/fpp5/CkUgFVGKacd7kEQBCwej0IV26dFICEdKkSVO8eHEZLHoEzff+++/LVQ25KqhWrRqcXbRoUZX38GjRosXGjRtVxqanfv/99y+++ELlbYDUkhg/fjwzGzNmTMka0aBBAwxCsmTJVP5lJE2a9OLFi2qoTuGMZQFExNbTIq6tNC2oV6/evHnzatasSRoiqtqhocHBwVJBA3IsWLBAri5ZskSVGoA4ii5BUcHQEyZMsNLUiDhx4kyZMgVWVvmXUaBAAc2OGsxr7NixScCgSBETHxQUhBclVxEzSFy6dGm8OipYRQggeAkSJJD6GpTwOJUJg7+/v0oZ8Mknn6B+0Lvp06dXRTbHjrk3TmGPHj1w7GDidu3aqSIPDxQSBpQ+oLmlZNq0acgnCRkU7FWoUCHbFQ8YVBJWpjFqUAG34xjgyGJREUjIjp8qZg36YCqpQ5fEfRozZgxdRSr+IYeNMShBJKhTu3Zt7kL7kNZPQbvhtPTr1w85AQik3IjtZYKQUrqKQ4wqCQwMZEbkLmYBVY08G02ECeGwLNi6dWunTp2MvEhvtLFjbEYPBowcORJJJWhTtT08EiZMiBtElKZ7Bq9jHbJlyyZZjFrFihUlHTkg9EJiDbyXwoULq4wNuNomhw+iq2svg3li1Pz19fVFlaJEceYoL1euHHPDkNGU4ikBRIhx9e7dm+mREgETc+bMmbNnz6q8BRAKK0ECVxIKS6FdoIMRe21GTVi8ePG+fft4nMrbuBx56NatG4xy4MAB+GzXrl0oYBw82LRv377cwtDoniKEDUY/CmDNaFZlbLC6/lADqZM0Ca1r0GK6MsxNbCNpR0BsTNOHalfXLAifZTWgrDQXbg8AUrJixQqGVKxYMblLw+hrY8VUqU0xVKpUyagMmCR4BU8IFiHNMKBj8uTJ33nnHdJ79+4tVaoU1YYPH05TXKpVqxZ8gHuA3aRk7dq10g7AVoiuMgKyGo04nGfUgiZkyJDB6JWimVDJMD3MISXMDSpcKhvHiI8ohQIkR6XCABHgJ60gBUYWtAsog/KePn26difk6ciVLjGB8eLiq0wU4PDhw2hiZBinRRW5DFzbxo0bY2QgHbrWiZMQAZYlJIRGmG+Vdw0MQ0isIcGpQC+vEBv9/PPPlKDDhg4dinMp0b2V+nhaV69elTQ85IQ63I6CxA8mAVTpy8AFx8jOmDEDn5hnIRu5c+eWLhmBDkDdqnscgxbwN/r06WPUWGg4wgsU3tGjR5Fh6tBn1a6HB3MsTI/OQwC4hHdEhEQJmltVMoBuYEDQkdY1GRrHW0OWVP7fABP3yy+/qEzUIAIsG2ngGCh626BKw4BXnjNnTtGLbwkQHpQ9Wr9gwYIffvjhlStXXvua3ffff798+XJkz0mkzPS3adNm/vz5KGbsT4oUKXBb1bX/Y7gPH7oRzeDesHUjmsHNspHHokWLYsSIQayg8hYQOFJh5cqVKv/WAD/n0KFDkTOwo0ePZlA9e/ZUeRsIBhYvXqwyHh7463jzKmPDixcvqIMXpPIv4/nz53hBKhMubO5BNAbU0essbxKPHj1SFLTNhyo1gBBKrhKzqqIoAAGo3YVk5/Dz86Njer1cQFybJUuWli1bqrwDyKCAyoeGEihLCZ73nDlzmBHaJ2AdN24caakzcuRIKhAYwJpSQrAoMTF1ypcvnyBBAmJxueQcb4JlTQt+rxeyotmoUSNZiDh9+nS4oRKUunPnDnE6MdCTJ0/sMly4+Oabb2zT9A9OnTqlSg0YOHCgXIUPVJFteng6UT9hNTxtWtKOBGSTDA0H4xYuXHjTpk3qgg08q3///t9++y1pzT0USsdSpUqF2vP392/WrNnhw4cHDRok5T/99BP89OWXX9avX3/jxo3ciBbkRlizcePGUgdoTTF+/HhVZAOcqlIeHgMGDKACLegV0s8+++z69ev79+9PkyYNhTwXfS+X+vTpIw06RwRY9sSJE3Xq1DEuYdAVaBQUFESiS5cunTt31nTRmDt3LnaEsFflXcbRo0fr1q3L7bpNpLBt27YMTEpgtWnTpsloQa5cub766isSiHK3bt0GDx5Mh+EJouwKFSqI2GzduhUFkCNHDrlFY9iwYVy1dh7A3Hpdb9asWcmSJfvoo492796tD2AA4+ior89gaNy9e5dLsAK3v/POP85YrFix0CvMWbiL3KKKTAgMDETetJ1NlCiR3gBjOlSl0NAJEyZIYfr06SHLxYsXEWxdmCRJkjJlykjatJJvBfytUgYw6RCtdu3aKm8PTJnpjIER8ePHZ4JUxsOjSJEix48fR5s4OZjhjGXR4cHBwSoTGiqjQodLFlmBMyhhMJs3b7Y90WPv3r1cQuyqVKmC9GAO4tlOBgGos27dOq4yyA0bNjB/pGfOnNm8efPJkyczMTwOVcFVyIqJkXMVoFixYjxo0qRJxsUy5kB2CwHMalqHF8AcsqUJ0Ea+vr6mjVwjMmfOHDdu3BYtWjAuGOKPP/5Ad6KiZN+Lflq3iBna559/ToLu/UMRmxQZl3WZS/pGonLlytSB16XcCEgHl6OxEMhVq1a1atXKuFeJMCRNmhTOgLP79evXvn374cOHd+zY0e4mvqB69eroDhxH3M04ceKoUhv0XJiAIKmUBZqAjpA8eXJJ7Nq1Cz7LmTOnZJcsWSIaRANaNWnSRGU8PNKlS6e3P62g/4oEFjhkWR7PLDLHqCXswsOHD6UtOImra9eudTT9JUuWVCkL4DM4EotDGv5bs2aNlANvb+8MGTKQgMshuhTCrCaim8B0Qgj6pt0p0K5du4CAgHLlyqn8yyBaGjt2LIpz6tSpdMBJb+0ClaC3nVEeNCJpFDkqvGDBgqQTJ06MyHXo0AEdT0IqaEyZMsU0l6hb4WwBWViTKKdv376qyDZSlXIMzT0RAv357bffevfujZbBjNSoUQPZRr8gZrhY6CzcmGvXrkFST0/P7du3nzx58uuvv1Y3hwGmF3OB3kEB4RuIcYDCNWvWxD9mWtGdSCOEggFI43ucP39e5pcGGbLxiA/9+YcL7cEhy4qHLkCs582bpzIeHgixSjllUA3jeQPNjs5B71E/8DckQ9XJ9jpTggqkM5AVCtIN2SUSyIGBIUOGSJZ7oS+eA96SqGfU5MKFC6129syZM/QQ9Wbd96pYsaJxZ59HIL2YYxzoZcuW0dSPP/6orhkwceJE1bTNFsG7cINoOAwfhbCCj49PuArMihIlSuB3IsnwEw6AFPI4/NFPP/0URyhFihRSCPLnz49mCQkJQVNgCWEXhi8bbEga6bRp05KQfkYIsHj37t3hXSwD00Sb+KbqWgQBAffs2SNp6All9u3bZ9wftcI+y6K0RInCHzJ+fZ5Ng6hCNqzx/bGeXl5eqDek84svvsDdJPhASfP4Y8eO4Udu2bIFWqs7bd6FJOBCOID6sAuOsj4co02tBpxn9FLsAmUAp6qMARcuXMDWq4xj4NXwaDw8HrRo0SImldb0ygCKUNV7GfCuUUeiVu3Gc0wz2t3oaOIaqXtsmD17NrEjw4RQeAJyfILWMHfY06pVq9IldWcYEDb41SiECLO0hqehSYHm+3d3cV8vHGrZHTt2SFAiDivA3gnbwWdwp/EEN0Yh3Dj90qVL4rvUq1cPKqMC0dxy6FgDKjNnK1ascOXkTVQA0Tp79qzKhEEULayp8hag7N9//300GV6pKnIBDBYOQ8ixjwcOHFClBkRiPQFdg/DD/Sr/vwhn4ZcAnVG8eHHmDEKgKghUX2VpJnIrSv8uiPfDPRMD1zo3Z268LrjPGLgRzeDesHUjmsEZyxIY4bCqjBtuRARDhgxJlixZ3rx533vvvbJlyxLNC+LHj79q1arJkyc3bdpUdhAPHjwol+T1oaFDh8aMGXPw4MG2ZuxB/AMrNm7cmChRonfffVfW/DWidPf1DYBQev369dAlSs/ng9GjRxOnEmteD3tLlphyypQp1vAuSrFr1y4iWpV5Hdi0aROMMWHCBJU3ICQkRI4Q3Lhxw7qgDkcmsLw/t2DBgo8//ljSsWPH1m+pEDJJm1bYZ1nYVPYVQdGiRadNmzZmzJjChQs3adKE7o4fP16qESDL7jP46quv+vXr9+8yNDH43r17TWsXv/76q7ypzFXjVqpsf0catLZixQpHJ9ORB/3CTPbs2WX9eNiwYWTTpEkzf/58KLx582a9JCkgrt22bRstk4aS69atk55HFIGBgXAPiUuXLjGPKDBZmYEUJoF59uzZokWLTPE0bCT7lICAm1v0OhoJvXOrdRld9ff3L1WqVMKECRMnTkyDcvIBBmWkskmZJ08e7pXDMUCzqSBevHjGkiJFiggR7MKhlu3cubOjF6EgQZcuXSZNmhQrVqwPPviAvlauXFku0ePGjRsLHxNlN2/eXK/7QDVhaHrDvRs2bJByI44ePdq6dWv00/79+2/fvt2xY8cff/xRXXMKeAKh6tOnD32Aprly5apVq1amTJnonnRME9qI3r1769NDzpfVUB7oZhgIjcUo7t69u2zZMlqA/wICAhhyvnz5ypUr17dvX+i2cOFC2eYFadOm5W+NGjUYl5QIZGcBIwZ/IGY9e/bMkSOHFCJLMJy8/Ojr66t64ABHjhxp1KjRJ598kiJFirVr11Iyc+ZMbsyWLRt+nfENSnooe+AwBJ1HESJy6CNKvL29kTEo8N1338l2Hab51KlTDx48kHfjPD09ly5dqrf6BBSip2A1ed3Xii1bttCf8+fPt2jR4sKFC6QhY926ddGApK9evSrv+VWtWvXMmTNYP4ggL7E6n3SHLItMAHnp2ajPtfJwAj8/P/kiC2AKaQ09T7pbt27MNzMql8aNG4c+GD58OGSCy5F441kTAYR2InAa8iUSVzBixAimR3MwTAPRkQ2MeLNmzRCkc+fOSZtQfMaMGVu3bqWHTLPUjxCYUdOHIAACr1Iuo3v37nDV559/PmfOHIT5xYsXKD/pJMyqKlmgxfW1A3JlyZJFZcKQLl06Zhk7hlqF81auXCk9dAI41fiZCxcRzrrs/fv3aReDcvz4cURk+fLlaBomUlZqUQzoNv3BGHqcMmVKSUcaSZMmlc8jaMBeckgCEYJ75CgdaR6NAcKRN24+CbCGyAx8nDNnTiwAGpcO49HPnj2bG7kdQXd0RgSgO4HKuAA6jBI1bpHTJcILcezk4AGAgzE1QUFBskWcO3du4y2Abjv/hoMGkQ2RMa1JljhGf/wCcFUf9oOePj4+PAuZhKswfahe4WZMAR5nuJyNnIj5AmgQtCZKhEejmMqUKSOb4RDTuHkepQiHZR2Bid+3b594Wgg9njUMQRo7JWMDgwYNMk2JBlGkWEwrmFfaWb16tZeXl1EAUCeyhwmsXjxAuLG/hJ9YNBT2P70MD6h8jLJsboV77oTpYYw4Z8aXvLFl+v1vvAUm8pdffjG9/o+00/Pt27ervA1iOjCXVM6YMSOEgnTBwcGUY7Ip7NChw4EDB4y73I6AlaApvOpevXoRjGPE4B7UMOLdv39/o5EVcQXQR74VRxoiLFmyBLenZcuWixcvZhTcS/BNO3jbNCjV8CJQAfrdZg2uoggI8lQ+6hFJlnUEBiDHz+TrXShCvKLSpUszWnHm4EJoISOnMoEnPCr+ABXGjh2r4znA5KEstRZ3ApqNNNXw4fAHHj58iA+A/sN7adCgQd68eRESfAN4FOBTGrUI/Ud5M50q/2qAS1BdKmMBPn3FihXl00mwGsobp9nonumTQP8neM0sC1AzcmpWoNeSEHHm3m6IDTc4X/phRolDcUPnzp0rR0XxgzG7PIgQ6lU2kKMpGLJ8gAevMaq/G/C2wb1h60Y0g3vD1o1ohreRZX/99VecfdxKWZeVwuvXr48cOZLwlhCVcLtEiRI4CeIVcLVHjx4xYsSgPrEzoYOnp6fxSP9rAbHm1KlTO3funCZNGp7lZMHBjaiF+AeRBjHBlClTZF+AdKNGjQoWLEh0cvToUbJSR4DvVb169XTp0jVs2HDPnj1Pnz797rvvAgICTHsKx44d0ws0AOYLCQkhgnbyPh3+nEq9DOPWUZ8+ferWrYtj/eDBA7uHUzXoNg63XvgUUGL9rhvx9f2wb8i58cbwqiwLw8n8xY0b17SkJW+n3Lp1C61JcO1kCX39+vXUhFN79uxpfb3E29s7ue2tJoRh+PDh6Ffj1xGdoFChQlu3bqWT+vx/hQoVZP1SFnc1iGBKlSo1dOhQHx8f2bhKnz49vVq2bJnIpOyYW/uGRMm+JcHlX3/9NXny5K+++gpRcfGVfDcigciwLLOI2gsODl6wYIGaOtfg6+s7f/58+Mb5S4g1a9YMCgpi+oEqsvGffnEenD59eunSpSIM0pos1ubKlcvE0MYffdDgFr3LdeTIEetejka1atXkuEXRokUvXbqEDCCKn376qVwVVKxY0WgZBAihozc1MDiyIE8aMtr9MCUysHPnTrsLzCdPnnwD66C3b9+2rsJGGli2Fi1aIM/Hjx8vXLgwjpy6EHE4Y9nnz5/DEypjAA9W0xIGLy8vJpIEOixHjhzMcevWrU2bnBkyZNALXvfu3WvQoEGnTp3gQv2qNGoYbhs9erTRozh8+DDVJk6cqO+1Asp+/fXXmPILFy5w74sXL65cuWJ90RkdCadCOOlY8+bN//zzT9PLotTZvHkz+lXlw1CjRg1jr+g/7g2qGj52Yj2KFy8+adKkbt26LVmyBMF4+PAhChu5lasYJTkyEjNmTGaxQIECuEnFihULDAycPn36GNvbl1WqVLl58yb6W55LAoqJCOlTKa8CBoUndurUqWbNmq1du5bpbtu2LelFixalSpUKchE/jBo1ilFg35gLOSogNyI5WongIMlSI+WYLMKJlStXEmwwF7A+kck/A34ZNEjswbMgjjTiIuyzLHM5bdq0lClTEmTMmDGja9euaC/Z1CEe0g4AbJE/f369lE3/GDO91woMby9fvnzMRO3atR19h4dnQbK7to9T0IIUvjpo9uzZs/Sf3pYvX37QoEHMt7SPxEv/NRjdunXrcAz0HhUKHpoycIKtjz/+WB8gtIKZy549e8mSJWkBbmvZsiVDxk13bkkiBGSMQBNiGr12VADcz+OIOGHxtGnTrlmzxu5riSh7ADPRPe3HY52yZs1q3MkDIgzOMXjwYBqRQx30Yfbs2ZQQaUDnJEmSmJxDIxBL/ZUDEyA7PACjt2nTJtxVdvssiyumv3yhkThxYoIq5oM0LHjjxg3jTtXbCVjNSgImz3jUrX79+pSoa5GC3dsx61CpUqVKfn5+WCFxx1Fd8NnChQvRPRCZSADdJm8vO9rBjijKli2LUqRxTBPmAnMHP+GaEwNIBXTQtm3bHK14wHZ4bipjMwU0iHMFrCzhCFha054l9+LiYyrpG85VxowZP/jgA4J166jbt28P9ZzMiEPH4Msvv8RGDxgwwHpQg5IIvUr6FuLMmTP+/v7MHPL9ZgQPHY/xseveoBoxuFzSK3oauOwzZ86UDT8rsKr6y1+RBn45hoI+4F+isJlZ2AVTvnr1arpkegdTvm0PW9eqVQt569WrF5KA90InUWe7d+9GVNBlUhnaYgTk80eYHSnUEKbkLlsvXgJhyaxZs6SaFeGHX1hY3ER0lehXmpPzA25EBfr37w+R5Sg6zokUYitwgv+ZTNvxq2zZsu3fvx8/QWYde0pggK+MikGDmj6Tg4rVP981YcIEY6BZr149vEn53r+L4InIlYunjjScLwUiBogNlgf3XZ98chKfuTds3YhmcG/YuhHNECUsS2B+08H3ml3HvXv3vv3222vXrpEmWMmUKROuOgZOg4AGA4qzJfU1cGNw4TGXKv86cPfuXUxzw4YNkyZN+sknnxD8LjX8eK8bbxTiH7wKmE5jVPH06dOiRYsSae7YsUMVhQE+Ll68OOFkly5dQkJCjh8/fiLsd181Hj9+PGjQIP2iS65cuU6dOuXkh+xix45Na/Pnz69Tpw5PHD58uP7SqnHDdurUqd26dZs+fToRtLwsYIWEHVu2bPnoo4/oJ32T1wkp1z6WCU4+0OeGXcAqX3/9tbwWFjm8KsvCJXHixMmaNatsOqAXjWv4uNX6IGxgYGCZsA/warzzzjvz5s3j6t+278vqFzacgGcVLFiQ0EHlncLX15c2jZ81BRSaVr6IW2lWXX4ZlSpV0r/62apVq8GDB5u20+gJsXP37t1lMWjkyJFz5szx8/OTleZw8fvvv0f0oIJ+9zqKsG3bNkbh4+NDVIcCQvKJ/fv27Xvp0iVVw4LTp08fOHBAwjJGZDrC+/z589WrV0PzvXv3YqCEbl5eXugmgntVyWVEnmV5GCpNv0oqy/WSNsLT03PXrl3ykQUBSjHly6+IodWMb/MmSJAAzjh8+DBRJA5A3LhxEyZM2KZNG8JkSMOjJVIGdMD6SUYXIZ/ZkoPnrrzZ17NnT3kowPcYOnSo89clcufOfebMGeJxpp/Yf9KkSUgv6X379hEj42N8/PHHGTNmRGgZII3PnDmTKZc9CwZ44cKF6tWrEzijk4zn3//666+8efPS4eXLl0OlI0eOGGfd7laCXVy9ehUTgbRwi9ATlsIEWd8Y1WAu8uTJc8j2uyCwMh3YunXrsWPHsGCyDJc4ceIaNWrIqiiSvGnTJtpHJWk2taJYsWLGFwJcgTOWhYKOVAXeqvEDtEbUrFkTuqO3WrRooYoMkMWLoKCg/Pnzw+UdOnQwLVCbVjeCg4PllXwngHzQEf5AmyLrPJ3ujRkzRpbE9Y7OrFmz1qxZ06tXL8niB6Or9Mf/cVKRJQwWrIxgjB8/HoagTubMmRlIx44djW6GABvXuXPnatWq4QWlSJECC9OvXz9Ha6guAraoXLmy6UW01KlT480jXf7+/rIxbgRmDfVfsmRJuaQJiLZzosOMmylpbL+ArDI25MyZk56ojA1664HBNmvWTL5fHVHQZsuWLc+dO9e1a9cqVaroDUJUGAaZSWSCGKbqogM4ZFl4n4aQm8uXL5v2UX/88Uc5DwU3oD+4evDgQSYPKkBuI4ehF/ECk9heVEJnGHuDZItwE2CNGzcO9YMyXrJkid5Pfy1Yv349TEyohCpVRZbla+j45Zdf2j1N4SLu3LmjDytCN/QlOkyW0AHcwNhNKtnb2/u7777jufgtxt0mE/QlBNvubqfdbWE4e8aMGZgmIlQmRXZB0Q7oZkJYZMzRThtP4ap80hlrTs8pWbZsmewcMShjH+LHj48JxcqhmJET2AAvceDAgaNHj4bm9EFv3mJGGClsKpZNgwbhfqmjgcHBy7IqCA37LPvTTz/p5wEeGRAQwMQjtag0QiIKYWgjHzgB4o6N4EaV/7eBqGhPABUVdV9jvXXrFuItggrpcHnxE5g5dIlUMAKHAfbVZIer5BvIWA+7b6ijztEIWEI5Z0OcwO3WH9t3BfDZggUL1q5dazKqMLrpXT2cVAwODErfnHCVANcOswMRVN4BcDCwEqorYcDiqcsW2GdZJpVW5BV1u0BxRus9W4wDo4vcZ9ejFPimmE7xaDVgdzk9h5cPXxIYwAf6JBeTpbdV0Q442bLAki9fPhQk5kubRNQndgwXVrSs7JPpPbZ/F8g2Zke+JIIuN336yQiHjgF6HhstClWOd5AQMNlIhqoXbSFuSTQCQTcMrTLhAXWot1XxuXXkKmByT548CQW0P/OWAM29ceNG56c+3Bu2bkQzuDds3YhmiBKWvXDhwty5c1HvKm/D/fv38bSI2EaNGoWbQVR46NAhLJ26bAOmKjg4WNKEk9Qh+CBNBDNmzBiihESJEhHgE2r4+fkRz0lNE3hK3759f/jhB5U3gFtkB9gRsKE8S2UcQ07oqYwNDJnQSmVeE2S/QGXeLHjuzJkz5Q05VeQCqIzbrTIOwLQWKlSoevXqNL5jxw5VGiHwmNcLZk42wAjRihcvvnfvXmZ32rRppnU+AYVNmjQhXA0JCaFanTp1KCxatCgcKe9yAScr9lWqVBk7dqy/v//u3bvXr18Pw23atEmvLhHHHDhwgChYFti5CrEIybdt2yZdNYEIgD4TntevXx+Czp49e9iwYbK0efDgQSLlgIAA4oOMGTPSeIYMGVq3bs0txM6EqgQ3sWPHJkDevn07dzVo0MB40pSoQG8OCRjsunXrrHvalCNysk0AcTJlyoT43bx5U11+GVSW7gEesWHDBvpGP2mBEp7o5GAhrMMj0CPacURWISNO8Jo1a2QiwL59+2gZAu7atQuHWC8Fom4gxWeffVazZs0OHTpArgEDBmTOnNnT05PpaNSokf4eFJ2UBDh79qzxJyYZINEhoeSjR4/0Kdtw8Uosi/NuXGoFM2bMcP7tPkI3CelMgMuNi9uOAEtZX87WcLSJBZuaXifMnz+/fAYLvfv999/36NFDn2qwwskGm5ONg5IlSwYFBcEQq1atKlu2LCVQBrsxaNAgHx8f/VuYvr6+48eP37x5M1LN9MvLCyakT59+586desUaIbxy5cro0aNlKQDhMf3UKB1u3769pGEj+A/bxXiZHSxVp06djEcmGEL27Nnz5Mlj2pLUQBqBpKEkDDp06FAn7+hr0GDhwoW5l/aB8Wf05KU3DSEjw4RoyEb//v2d7EhHnmVXrFgRJ06cLFmytGvXbunSpVjG3r17Sw/oX2BgIKqidOnSUgJQXefOnZPVWSRvwoQJOA+dO3dmOhFNVcnDAz1Btm3btsuWLaMFVBeMiDadOHEiKkFLOXyGKKOAkVT9NUwN9N+WLVuMP2ttF6IvjYAJmA90pJ4kI3BI0KM1atRg7EBWZAA9pDOwI1YlceLEUihwtGjvCjA1ixcv1sxdoECBZs2aQUa9SW4XdhdxIwQY6IsvvkAkVN4GZN4kujlz5mTqu3btygxCGeSNvpmGbwVTKWeh4AGcPS8vL3XhZUBnmWgrIsOyaA6mx7TRqoFh0taKbl2+fBkRP3nypFYSVnBp9erV2CnMutGOAKTNVGIEl0Qc+YtjwKTiK6P79S0YbrQL1g3uh1IYyosXL8qHqjVQGKg6lByaTJszOozt27hx45AhQxYuXDhu3DjrVgjODNbQ9I4G7gcuAfOtJxjLgOeAhsudO3etWrUQYyQKT/H06dPTp09v3rw55ShgNCX8Xa9ePeojrnRVRoHFrFatmjRlQpcuXXDNmzZtyhAwFKgARJoOQEncqrp160ITeihMTAn6BfYiW6JEiWLFiiHSSCa3o3GgPFTidvn8I8/l6RUrVkQ14m9oq800wZ34V1gGk4EVQPzr16/TeXQKQF9C1VmzZqHOsmbNijqwziY0h0PwEPSr9qh8HqouWxAZloUK0jQSw4yik5BLtB2EoE92R/K2Afef/qNToanxRzpfL/BrMRfYH5V3DXYJSEgQN25cOBsPCjZCABBOPf1aR2jQiL5K2tF2tKNyAS2Y9uqjGugFNIUT7QZcYlkGhk1H8aBX0EbCr5MnT9ZEEVUq6WgBJHvOnDkoJJWPDrh9+/YT20uqzvnsfx72txIgDZYL5QxTItzWBaN8+fJhc+06fG64EaWwz7K///47oStGQeVtZ3xkyY2Et7c3voErAb4bbrx22FeTuOq49oSNspZBlAD74k4RN+AerFu3zs2vbvxbcJ8xcCOawe2MuhHN8PpZFrcBf1dW+JctWyYesBGEdOPHjyek27lz58aNG1Hzd+7cuX79OpcIh+W3y0gT3lWtWpXWcEU2bdpEqEebRlSsWLFhw4anT58+cuTI06dPt27dOn/+/CRJkqjLMWLEiRMnODj4wIED3bp1k+3yW7duHTp0yNYLh/jtt9/8/Pzwi/CFiM1V6evG33//3bZt2549e6r8W4Y5c+YIDQ8ePKiKXh9khVtlIgFujhwI0YYNG7Z8+XLjOuLYsWMZp2raBh8fn/Pnz48aNapUqVJLly5dsmSJ/vVQgbjLsNeZM2fke3p169adO3eu8z0eExxt1cY1fGsWLpQ2kYR+/frJRjx48uTJhg0bBg8ePHHixHLlyhlfx0AA2rRpU7t27alTp9LzoKCgadOmIUuwGq3pE6jPnj3r2rUrIamQApmk5P79+5s3b6YEaVyzZg2UMR4VmDRpkjzi8OHDeq3QCG6nwcmTJ4d7+B/QgunjWU5ATfSFk7XPc+fO6c1b/XvFJtDtrFmzDh8+XOVtoBs0C5cT/NgdFAgMDEyaNGnevHlXrVrlytCsiCTLXrp0Sb82CR8wf3Tx2rVrMt8tW7bcvn17lbDfBHURjr4VYMK2bduOHz8u73A72g6tU6fOvn37VMYB6tev365dO4irz99EFAkTJtyzZw8KSW/xx4sXr2zZso7O8RQvXhxWZp46duxo3GRPnTo1naEQNv355593795tjG6hM3dZOYASbIjMunyMFiNDifAi4kE3atasuXjxYn34BruBXpBtah5KeH3ixAmuNm7cuK8Nvr6+1atXN75PRgsYQ/js8ePH2Ch504aJ1huz2Lrvv/9+4cKFvXr1YlL0W41Dhw5FBZh2Iuib3uUG9MT1V4I1IsaykOns2bPIqPUtuRYtWsjxn5IlS6raoaHz5s1LlSoVfkKxYsWkGmC0zZs3L1OmTL169W7fvg051q5dq67ZQOX8+fP36dMHrdahQwfI4e/vj5JD5aDUpWUoeMH2tcBTp06hI5nyvXv3osxCQkK4S85M4VQw3zzl3r17coKkR48eTZs2lacYkT59elQpgypSpAiqET1UoEABI1dly5ZNsvI3S5YsuXPnJuHkWIwRKBXrORKjBQgXnrbfOMbLYgpGjBiB7heVQSMzZsyQOgK6qq9qZM+eHYExHkxxDmTG1KwGc1GrVi2VCQ/YYYyMbKrjcelP3DH7ksB7XL16tUnlO9/iiRjLGj8NWbp0aXQtYmT6ELb1XTzREPiFQ4YMsfthZCrIl7Xh5kj8Dq8rQEPI0S2ASyBdFaAsRVfhY0lXAQnoiEQdPXpUShAGOs9f1Dx/ISvCKS0EBARgTFeuXIn/g8IbOXIkFrNZs2ZyNkA+GY3jIZVBsmTJoBL8Bxcivd7e3tavvcq5zRUrVhgdLThPfrr7VYC3w0PhbDndhmEsX748+rVVq1aoRmSVNARBYUt9wC38NfaENJqCG6URBBJ/r0mTJqYjWgIqN2rUSJQFFXAJIAhmUDeYPHlybDKMhNbDB8N47t+/30Z1O3CVZZkktJ08AHh5eeljIszuggUL0LLYCGyN0bV1HShCfIlImInIQRgIbYRGd3R8NlzQW1rA7VZ5C6CMfqkTASAYxQ/GRtnd3MY7pFcwJR3r37+/KrW9xUX92bNnm5x7WI2oFGuu8jbAcBMmTKhRowZpTPCNGzcePXqEp4HKnDVrFtPErBknCP1nst0adF5O2C1atIg0DMCN69evl4+kwN+qns33RbYlzXgvXrw4evRodJBdM2L8tBERc+vWre2et0QLqEoWOGTZ58+fIwcwOz3ATRHDCpBOQhB94imagjnAcVSZtwn4JLikdtkI5kNr4C/BfBhZzfdwJNEk9hffUWSe0eFuvfpRBBxf3CSVCQOMgbWxHsSxArOGRF2+fBlLJVYUJ01dMwB7RUhQtGhRYTBAZX3w3Ar7LIusaFOlnTCkAcFFT6hKbrjhMtDQJ0+edKTRAWIG78LcXbt2xYtTpfbgcPcLH+Xq1auShutxuglxrFGXG268Ybg3bN2IZnBv2LoRzeBmWTeiGdws60Y0g5tl3YhW8PD4L8Z5ViSQWOpwAAAAAElFTkSuQmCC;" vertex="1" parent="1">
          <mxGeometry x="76.66" y="1696.6000000000001" width="119.57" height="45.75" as="geometry" />
        </mxCell>
        <mxCell id="SCrkmm0jVP4aJ3ksJmY2-229" value="" style="rounded=0;whiteSpace=wrap;html=1;strokeColor=#8C8C8C;" vertex="1" parent="1">
          <mxGeometry x="73.31999999999998" y="1770" width="122.91" height="50" as="geometry" />
        </mxCell>
        <mxCell id="SCrkmm0jVP4aJ3ksJmY2-230" value="" style="shape=image;verticalLabelPosition=bottom;labelBackgroundColor=#ffffff;verticalAlign=top;aspect=fixed;imageAspect=0;image=data:image/png,iVBORw0KGgoAAAANSUhEUgAAAOYAAABYCAIAAABuyBzpAAAAAXNSR0IArs4c6QAAAARnQU1BAACxjwv8YQUAAAAJcEhZcwAADsMAAA7DAcdvqGQAACu3SURBVHhe7Z13fBXFFseDSJFelE4A6R0iItJ76CWhCtIDBEPvXUAQkKb03qV3pPfeJYC0gGDoHcVIUV/e13sm81l27725CQTJe/f3RzIzOzs7c+bUmdm9MUJDQz3ccCP64B313w03ogncLOtGNIObZd2IZnCzrBvRDG6WdSOawT7Lnj9/PnHixO+++27+/Pnz5Mlz//59dcGC58+fN2nS5PPPPz958qQqeuvx6NGjTZs2/f333yr/f4yHDx/279//8uXLKu/h8eTJk6tXr/7nP/9ReRtCQ0M1uXx8fGLEiJEjR45IEBBGMrU8a9asb775JmLLVtS2gt5UrVpV1fDwmDx5Mk+6c+eOXL127VrdunV/+OEH0kuXLlWVPDySJEmSMWPGIUOG/Pnnn0+fPpXKbw9+/fXXc+fOMbQqVarQW8SMtLrmMm7evKlSbwdQGVOnTvXz87t9+7YqigiaN28OKTJlyvTgwQOymzdvjhcvHiXZs2c/duwYJatXry5btmyiRInix49/6NChVatW/TPTNowaNcrWRuitW7fWrVu3ZcsWdIGUgJ07d3bu3PnKlSuSPXLkyGeffcZdZcqU+e2336RQqzmeIiWuwD7LAuSPfkuLJUuWpN8khE3r168v5e3bt//www8lbcR7773HyE+fPi1NRQ4ICeN89uyZykcQf/zxx19//aUyNiH08vJS/QtD69ateYqq4QK6du3KXT179rx3757pRrp64sQJSSPSO3bs2L17d8uWLU+dOoWoSLkTWLsREhIyduzY69evq3wYTDVbtWolYyGhikJDX7x4gRm5ceOGyoeG0rdFixbBW6Tp/Pbt2+/evdu9e3e5V1C+fPm4ceOqjIcHPDpgwAAUqspbwKVvv/0WltB3pUqVCiXNI1auXBkrVixKaGTmzJlCN43MmTOPGDEC7vf29pYSOM11XeCQZQHssmfPHmlU0LRpU2ihMgYwMfv370dW0L6qyMMjbdq0bdu2FWEVwEPDhg1DOgHqmYFNnDjx4MGD6nIYjh8/jiIMCAigkUaNGjHmSZMmMXncTn9++uknqYZko9FR5xs2bKhQoYKnp+f69evlEnSEWKlTp547dy7GCBVC36RXgrx588pkdOzYESZ4/PhxuLxLm3KvIFeuXCgS7mLsAwcOpDXAuCjBm1KVwrBw4UJphKsYq48++qhDhw5SAjMVKVIkZcqUMKixDw0bNuTG6tWrq7xtOvLly/fpp5/CkUgFVGKacd7kEQBCwej0IV26dFICEdKkSVO8eHEZLHoEzff+++/LVQ25KqhWrRqcXbRoUZX38GjRosXGjRtVxqanfv/99y+++ELlbYDUkhg/fjwzGzNmTMka0aBBAwxCsmTJVP5lJE2a9OLFi2qoTuGMZQFExNbTIq6tNC2oV6/evHnzatasSRoiqtqhocHBwVJBA3IsWLBAri5ZskSVGoA4ii5BUcHQEyZMsNLUiDhx4kyZMgVWVvmXUaBAAc2OGsxr7NixScCgSBETHxQUhBclVxEzSFy6dGm8OipYRQggeAkSJJD6GpTwOJUJg7+/v0oZ8Mknn6B+0Lvp06dXRTbHjrk3TmGPHj1w7GDidu3aqSIPDxQSBpQ+oLmlZNq0acgnCRkU7FWoUCHbFQ8YVBJWpjFqUAG34xjgyGJREUjIjp8qZg36YCqpQ5fEfRozZgxdRSr+IYeNMShBJKhTu3Zt7kL7kNZPQbvhtPTr1w85AQik3IjtZYKQUrqKQ4wqCQwMZEbkLmYBVY08G02ECeGwLNi6dWunTp2MvEhvtLFjbEYPBowcORJJJWhTtT08EiZMiBtElKZ7Bq9jHbJlyyZZjFrFihUlHTkg9EJiDbyXwoULq4wNuNomhw+iq2svg3li1Pz19fVFlaJEceYoL1euHHPDkNGU4ikBRIhx9e7dm+mREgETc+bMmbNnz6q8BRAKK0ECVxIKS6FdoIMRe21GTVi8ePG+fft4nMrbuBx56NatG4xy4MAB+GzXrl0oYBw82LRv377cwtDoniKEDUY/CmDNaFZlbLC6/lADqZM0Ca1r0GK6MsxNbCNpR0BsTNOHalfXLAifZTWgrDQXbg8AUrJixQqGVKxYMblLw+hrY8VUqU0xVKpUyagMmCR4BU8IFiHNMKBj8uTJ33nnHdJ79+4tVaoU1YYPH05TXKpVqxZ8gHuA3aRk7dq10g7AVoiuMgKyGo04nGfUgiZkyJDB6JWimVDJMD3MISXMDSpcKhvHiI8ohQIkR6XCABHgJ60gBUYWtAsog/KePn26difk6ciVLjGB8eLiq0wU4PDhw2hiZBinRRW5DFzbxo0bY2QgHbrWiZMQAZYlJIRGmG+Vdw0MQ0isIcGpQC+vEBv9/PPPlKDDhg4dinMp0b2V+nhaV69elTQ85IQ63I6CxA8mAVTpy8AFx8jOmDEDn5hnIRu5c+eWLhmBDkDdqnscgxbwN/r06WPUWGg4wgsU3tGjR5Fh6tBn1a6HB3MsTI/OQwC4hHdEhEQJmltVMoBuYEDQkdY1GRrHW0OWVP7fABP3yy+/qEzUIAIsG2ngGCh626BKw4BXnjNnTtGLbwkQHpQ9Wr9gwYIffvjhlStXXvua3ffff798+XJkz0mkzPS3adNm/vz5KGbsT4oUKXBb1bX/Y7gPH7oRzeDesHUjmsHNspHHokWLYsSIQayg8hYQOFJh5cqVKv/WAD/n0KFDkTOwo0ePZlA9e/ZUeRsIBhYvXqwyHh7463jzKmPDixcvqIMXpPIv4/nz53hBKhMubO5BNAbU0essbxKPHj1SFLTNhyo1gBBKrhKzqqIoAAGo3YVk5/Dz86Njer1cQFybJUuWli1bqrwDyKCAyoeGEihLCZ73nDlzmBHaJ2AdN24caakzcuRIKhAYwJpSQrAoMTF1ypcvnyBBAmJxueQcb4JlTQt+rxeyotmoUSNZiDh9+nS4oRKUunPnDnE6MdCTJ0/sMly4+Oabb2zT9A9OnTqlSg0YOHCgXIUPVJFteng6UT9hNTxtWtKOBGSTDA0H4xYuXHjTpk3qgg08q3///t9++y1pzT0USsdSpUqF2vP392/WrNnhw4cHDRok5T/99BP89OWXX9avX3/jxo3ciBbkRlizcePGUgdoTTF+/HhVZAOcqlIeHgMGDKACLegV0s8+++z69ev79+9PkyYNhTwXfS+X+vTpIw06RwRY9sSJE3Xq1DEuYdAVaBQUFESiS5cunTt31nTRmDt3LnaEsFflXcbRo0fr1q3L7bpNpLBt27YMTEpgtWnTpsloQa5cub766isSiHK3bt0GDx5Mh+EJouwKFSqI2GzduhUFkCNHDrlFY9iwYVy1dh7A3Hpdb9asWcmSJfvoo492796tD2AA4+ior89gaNy9e5dLsAK3v/POP85YrFix0CvMWbiL3KKKTAgMDETetJ1NlCiR3gBjOlSl0NAJEyZIYfr06SHLxYsXEWxdmCRJkjJlykjatJJvBfytUgYw6RCtdu3aKm8PTJnpjIER8ePHZ4JUxsOjSJEix48fR5s4OZjhjGXR4cHBwSoTGiqjQodLFlmBMyhhMJs3b7Y90WPv3r1cQuyqVKmC9GAO4tlOBgGos27dOq4yyA0bNjB/pGfOnNm8efPJkyczMTwOVcFVyIqJkXMVoFixYjxo0qRJxsUy5kB2CwHMalqHF8AcsqUJ0Ea+vr6mjVwjMmfOHDdu3BYtWjAuGOKPP/5Ad6KiZN+Lflq3iBna559/ToLu/UMRmxQZl3WZS/pGonLlytSB16XcCEgHl6OxEMhVq1a1atXKuFeJMCRNmhTOgLP79evXvn374cOHd+zY0e4mvqB69eroDhxH3M04ceKoUhv0XJiAIKmUBZqAjpA8eXJJ7Nq1Cz7LmTOnZJcsWSIaRANaNWnSRGU8PNKlS6e3P62g/4oEFjhkWR7PLDLHqCXswsOHD6UtOImra9eudTT9JUuWVCkL4DM4EotDGv5bs2aNlANvb+8MGTKQgMshuhTCrCaim8B0Qgj6pt0p0K5du4CAgHLlyqn8yyBaGjt2LIpz6tSpdMBJb+0ClaC3nVEeNCJpFDkqvGDBgqQTJ06MyHXo0AEdT0IqaEyZMsU0l6hb4WwBWViTKKdv376qyDZSlXIMzT0RAv357bffevfujZbBjNSoUQPZRr8gZrhY6CzcmGvXrkFST0/P7du3nzx58uuvv1Y3hwGmF3OB3kEB4RuIcYDCNWvWxD9mWtGdSCOEggFI43ucP39e5pcGGbLxiA/9+YcL7cEhy4qHLkCs582bpzIeHgixSjllUA3jeQPNjs5B71E/8DckQ9XJ9jpTggqkM5AVCtIN2SUSyIGBIUOGSJZ7oS+eA96SqGfU5MKFC6129syZM/QQ9Wbd96pYsaJxZ59HIL2YYxzoZcuW0dSPP/6orhkwceJE1bTNFsG7cINoOAwfhbCCj49PuArMihIlSuB3IsnwEw6AFPI4/NFPP/0URyhFihRSCPLnz49mCQkJQVNgCWEXhi8bbEga6bRp05KQfkYIsHj37t3hXSwD00Sb+KbqWgQBAffs2SNp6All9u3bZ9wftcI+y6K0RInCHzJ+fZ5Ng6hCNqzx/bGeXl5eqDek84svvsDdJPhASfP4Y8eO4Udu2bIFWqs7bd6FJOBCOID6sAuOsj4co02tBpxn9FLsAmUAp6qMARcuXMDWq4xj4NXwaDw8HrRo0SImldb0ygCKUNV7GfCuUUeiVu3Gc0wz2t3oaOIaqXtsmD17NrEjw4RQeAJyfILWMHfY06pVq9IldWcYEDb41SiECLO0hqehSYHm+3d3cV8vHGrZHTt2SFAiDivA3gnbwWdwp/EEN0Yh3Dj90qVL4rvUq1cPKqMC0dxy6FgDKjNnK1ascOXkTVQA0Tp79qzKhEEULayp8hag7N9//300GV6pKnIBDBYOQ8ixjwcOHFClBkRiPQFdg/DD/Sr/vwhn4ZcAnVG8eHHmDEKgKghUX2VpJnIrSv8uiPfDPRMD1zo3Z268LrjPGLgRzeDesHUjmsEZyxIY4bCqjBtuRARDhgxJlixZ3rx533vvvbJlyxLNC+LHj79q1arJkyc3bdpUdhAPHjwol+T1oaFDh8aMGXPw4MG2ZuxB/AMrNm7cmChRonfffVfW/DWidPf1DYBQev369dAlSs/ng9GjRxOnEmteD3tLlphyypQp1vAuSrFr1y4iWpV5Hdi0aROMMWHCBJU3ICQkRI4Q3Lhxw7qgDkcmsLw/t2DBgo8//ljSsWPH1m+pEDJJm1bYZ1nYVPYVQdGiRadNmzZmzJjChQs3adKE7o4fP16qESDL7jP46quv+vXr9+8yNDH43r17TWsXv/76q7ypzFXjVqpsf0catLZixQpHJ9ORB/3CTPbs2WX9eNiwYWTTpEkzf/58KLx582a9JCkgrt22bRstk4aS69atk55HFIGBgXAPiUuXLjGPKDBZmYEUJoF59uzZokWLTPE0bCT7lICAm1v0OhoJvXOrdRld9ff3L1WqVMKECRMnTkyDcvIBBmWkskmZJ08e7pXDMUCzqSBevHjGkiJFiggR7MKhlu3cubOjF6EgQZcuXSZNmhQrVqwPPviAvlauXFku0ePGjRsLHxNlN2/eXK/7QDVhaHrDvRs2bJByI44ePdq6dWv00/79+2/fvt2xY8cff/xRXXMKeAKh6tOnD32Aprly5apVq1amTJnonnRME9qI3r1769NDzpfVUB7oZhgIjcUo7t69u2zZMlqA/wICAhhyvnz5ypUr17dvX+i2cOFC2eYFadOm5W+NGjUYl5QIZGcBIwZ/IGY9e/bMkSOHFCJLMJy8/Ojr66t64ABHjhxp1KjRJ598kiJFirVr11Iyc+ZMbsyWLRt+nfENSnooe+AwBJ1HESJy6CNKvL29kTEo8N1338l2Hab51KlTDx48kHfjPD09ly5dqrf6BBSip2A1ed3Xii1bttCf8+fPt2jR4sKFC6QhY926ddGApK9evSrv+VWtWvXMmTNYP4ggL7E6n3SHLItMAHnp2ajPtfJwAj8/P/kiC2AKaQ09T7pbt27MNzMql8aNG4c+GD58OGSCy5F441kTAYR2InAa8iUSVzBixAimR3MwTAPRkQ2MeLNmzRCkc+fOSZtQfMaMGVu3bqWHTLPUjxCYUdOHIAACr1Iuo3v37nDV559/PmfOHIT5xYsXKD/pJMyqKlmgxfW1A3JlyZJFZcKQLl06Zhk7hlqF81auXCk9dAI41fiZCxcRzrrs/fv3aReDcvz4cURk+fLlaBomUlZqUQzoNv3BGHqcMmVKSUcaSZMmlc8jaMBeckgCEYJ75CgdaR6NAcKRN24+CbCGyAx8nDNnTiwAGpcO49HPnj2bG7kdQXd0RgSgO4HKuAA6jBI1bpHTJcILcezk4AGAgzE1QUFBskWcO3du4y2Abjv/hoMGkQ2RMa1JljhGf/wCcFUf9oOePj4+PAuZhKswfahe4WZMAR5nuJyNnIj5AmgQtCZKhEejmMqUKSOb4RDTuHkepQiHZR2Bid+3b594Wgg9njUMQRo7JWMDgwYNMk2JBlGkWEwrmFfaWb16tZeXl1EAUCeyhwmsXjxAuLG/hJ9YNBT2P70MD6h8jLJsboV77oTpYYw4Z8aXvLFl+v1vvAUm8pdffjG9/o+00/Pt27ervA1iOjCXVM6YMSOEgnTBwcGUY7Ip7NChw4EDB4y73I6AlaApvOpevXoRjGPE4B7UMOLdv39/o5EVcQXQR74VRxoiLFmyBLenZcuWixcvZhTcS/BNO3jbNCjV8CJQAfrdZg2uoggI8lQ+6hFJlnUEBiDHz+TrXShCvKLSpUszWnHm4EJoISOnMoEnPCr+ABXGjh2r4znA5KEstRZ3ApqNNNXw4fAHHj58iA+A/sN7adCgQd68eRESfAN4FOBTGrUI/Ud5M50q/2qAS1BdKmMBPn3FihXl00mwGsobp9nonumTQP8neM0sC1AzcmpWoNeSEHHm3m6IDTc4X/phRolDcUPnzp0rR0XxgzG7PIgQ6lU2kKMpGLJ8gAevMaq/G/C2wb1h60Y0g3vD1o1ohreRZX/99VecfdxKWZeVwuvXr48cOZLwlhCVcLtEiRI4CeIVcLVHjx4xYsSgPrEzoYOnp6fxSP9rAbHm1KlTO3funCZNGp7lZMHBjaiF+AeRBjHBlClTZF+AdKNGjQoWLEh0cvToUbJSR4DvVb169XTp0jVs2HDPnj1Pnz797rvvAgICTHsKx44d0ws0AOYLCQkhgnbyPh3+nEq9DOPWUZ8+ferWrYtj/eDBA7uHUzXoNg63XvgUUGL9rhvx9f2wb8i58cbwqiwLw8n8xY0b17SkJW+n3Lp1C61JcO1kCX39+vXUhFN79uxpfb3E29s7ue2tJoRh+PDh6Ffj1xGdoFChQlu3bqWT+vx/hQoVZP1SFnc1iGBKlSo1dOhQHx8f2bhKnz49vVq2bJnIpOyYW/uGRMm+JcHlX3/9NXny5K+++gpRcfGVfDcigciwLLOI2gsODl6wYIGaOtfg6+s7f/58+Mb5S4g1a9YMCgpi+oEqsvGffnEenD59eunSpSIM0pos1ubKlcvE0MYffdDgFr3LdeTIEetejka1atXkuEXRokUvXbqEDCCKn376qVwVVKxY0WgZBAihozc1MDiyIE8aMtr9MCUysHPnTrsLzCdPnnwD66C3b9+2rsJGGli2Fi1aIM/Hjx8vXLgwjpy6EHE4Y9nnz5/DEypjAA9W0xIGLy8vJpIEOixHjhzMcevWrU2bnBkyZNALXvfu3WvQoEGnTp3gQv2qNGoYbhs9erTRozh8+DDVJk6cqO+1Asp+/fXXmPILFy5w74sXL65cuWJ90RkdCadCOOlY8+bN//zzT9PLotTZvHkz+lXlw1CjRg1jr+g/7g2qGj52Yj2KFy8+adKkbt26LVmyBMF4+PAhChu5lasYJTkyEjNmTGaxQIECuEnFihULDAycPn36GNvbl1WqVLl58yb6W55LAoqJCOlTKa8CBoUndurUqWbNmq1du5bpbtu2LelFixalSpUKchE/jBo1ilFg35gLOSogNyI5WongIMlSI+WYLMKJlStXEmwwF7A+kck/A34ZNEjswbMgjjTiIuyzLHM5bdq0lClTEmTMmDGja9euaC/Z1CEe0g4AbJE/f369lE3/GDO91woMby9fvnzMRO3atR19h4dnQbK7to9T0IIUvjpo9uzZs/Sf3pYvX37QoEHMt7SPxEv/NRjdunXrcAz0HhUKHpoycIKtjz/+WB8gtIKZy549e8mSJWkBbmvZsiVDxk13bkkiBGSMQBNiGr12VADcz+OIOGHxtGnTrlmzxu5riSh7ADPRPe3HY52yZs1q3MkDIgzOMXjwYBqRQx30Yfbs2ZQQaUDnJEmSmJxDIxBL/ZUDEyA7PACjt2nTJtxVdvssiyumv3yhkThxYoIq5oM0LHjjxg3jTtXbCVjNSgImz3jUrX79+pSoa5GC3dsx61CpUqVKfn5+WCFxx1Fd8NnChQvRPRCZSADdJm8vO9rBjijKli2LUqRxTBPmAnMHP+GaEwNIBXTQtm3bHK14wHZ4bipjMwU0iHMFrCzhCFha054l9+LiYyrpG85VxowZP/jgA4J166jbt28P9ZzMiEPH4Msvv8RGDxgwwHpQg5IIvUr6FuLMmTP+/v7MHPL9ZgQPHY/xseveoBoxuFzSK3oauOwzZ86UDT8rsKr6y1+RBn45hoI+4F+isJlZ2AVTvnr1arpkegdTvm0PW9eqVQt569WrF5KA90InUWe7d+9GVNBlUhnaYgTk80eYHSnUEKbkLlsvXgJhyaxZs6SaFeGHX1hY3ER0lehXmpPzA25EBfr37w+R5Sg6zokUYitwgv+ZTNvxq2zZsu3fvx8/QWYde0pggK+MikGDmj6Tg4rVP981YcIEY6BZr149vEn53r+L4InIlYunjjScLwUiBogNlgf3XZ98chKfuTds3YhmcG/YuhHNECUsS2B+08H3ml3HvXv3vv3222vXrpEmWMmUKROuOgZOg4AGA4qzJfU1cGNw4TGXKv86cPfuXUxzw4YNkyZN+sknnxD8LjX8eK8bbxTiH7wKmE5jVPH06dOiRYsSae7YsUMVhQE+Ll68OOFkly5dQkJCjh8/fiLsd181Hj9+PGjQIP2iS65cuU6dOuXkh+xix45Na/Pnz69Tpw5PHD58uP7SqnHDdurUqd26dZs+fToRtLwsYIWEHVu2bPnoo4/oJ32T1wkp1z6WCU4+0OeGXcAqX3/9tbwWFjm8KsvCJXHixMmaNatsOqAXjWv4uNX6IGxgYGCZsA/warzzzjvz5s3j6t+278vqFzacgGcVLFiQ0EHlncLX15c2jZ81BRSaVr6IW2lWXX4ZlSpV0r/62apVq8GDB5u20+gJsXP37t1lMWjkyJFz5szx8/OTleZw8fvvv0f0oIJ+9zqKsG3bNkbh4+NDVIcCQvKJ/fv27Xvp0iVVw4LTp08fOHBAwjJGZDrC+/z589WrV0PzvXv3YqCEbl5eXugmgntVyWVEnmV5GCpNv0oqy/WSNsLT03PXrl3ykQUBSjHly6+IodWMb/MmSJAAzjh8+DBRJA5A3LhxEyZM2KZNG8JkSMOjJVIGdMD6SUYXIZ/ZkoPnrrzZ17NnT3kowPcYOnSo89clcufOfebMGeJxpp/Yf9KkSUgv6X379hEj42N8/PHHGTNmRGgZII3PnDmTKZc9CwZ44cKF6tWrEzijk4zn3//666+8efPS4eXLl0OlI0eOGGfd7laCXVy9ehUTgbRwi9ATlsIEWd8Y1WAu8uTJc8j2uyCwMh3YunXrsWPHsGCyDJc4ceIaNWrIqiiSvGnTJtpHJWk2taJYsWLGFwJcgTOWhYKOVAXeqvEDtEbUrFkTuqO3WrRooYoMkMWLoKCg/Pnzw+UdOnQwLVCbVjeCg4PllXwngHzQEf5AmyLrPJ3ujRkzRpbE9Y7OrFmz1qxZ06tXL8niB6Or9Mf/cVKRJQwWrIxgjB8/HoagTubMmRlIx44djW6GABvXuXPnatWq4QWlSJECC9OvXz9Ha6guAraoXLmy6UW01KlT480jXf7+/rIxbgRmDfVfsmRJuaQJiLZzosOMmylpbL+ArDI25MyZk56ojA1664HBNmvWTL5fHVHQZsuWLc+dO9e1a9cqVaroDUJUGAaZSWSCGKbqogM4ZFl4n4aQm8uXL5v2UX/88Uc5DwU3oD+4evDgQSYPKkBuI4ehF/ECk9heVEJnGHuDZItwE2CNGzcO9YMyXrJkid5Pfy1Yv349TEyohCpVRZbla+j45Zdf2j1N4SLu3LmjDytCN/QlOkyW0AHcwNhNKtnb2/u7777jufgtxt0mE/QlBNvubqfdbWE4e8aMGZgmIlQmRXZB0Q7oZkJYZMzRThtP4ap80hlrTs8pWbZsmewcMShjH+LHj48JxcqhmJET2AAvceDAgaNHj4bm9EFv3mJGGClsKpZNgwbhfqmjgcHBy7IqCA37LPvTTz/p5wEeGRAQwMQjtag0QiIKYWgjHzgB4o6N4EaV/7eBqGhPABUVdV9jvXXrFuItggrpcHnxE5g5dIlUMAKHAfbVZIer5BvIWA+7b6ijztEIWEI5Z0OcwO3WH9t3BfDZggUL1q5dazKqMLrpXT2cVAwODErfnHCVANcOswMRVN4BcDCwEqorYcDiqcsW2GdZJpVW5BV1u0BxRus9W4wDo4vcZ9ejFPimmE7xaDVgdzk9h5cPXxIYwAf6JBeTpbdV0Q442bLAki9fPhQk5kubRNQndgwXVrSs7JPpPbZ/F8g2Zke+JIIuN336yQiHjgF6HhstClWOd5AQMNlIhqoXbSFuSTQCQTcMrTLhAXWot1XxuXXkKmByT548CQW0P/OWAM29ceNG56c+3Bu2bkQzuDds3YhmiBKWvXDhwty5c1HvKm/D/fv38bSI2EaNGoWbQVR46NAhLJ26bAOmKjg4WNKEk9Qh+CBNBDNmzBiihESJEhHgE2r4+fkRz0lNE3hK3759f/jhB5U3gFtkB9gRsKE8S2UcQ07oqYwNDJnQSmVeE2S/QGXeLHjuzJkz5Q05VeQCqIzbrTIOwLQWKlSoevXqNL5jxw5VGiHwmNcLZk42wAjRihcvvnfvXmZ32rRppnU+AYVNmjQhXA0JCaFanTp1KCxatCgcKe9yAScr9lWqVBk7dqy/v//u3bvXr18Pw23atEmvLhHHHDhwgChYFti5CrEIybdt2yZdNYEIgD4TntevXx+Czp49e9iwYbK0efDgQSLlgIAA4oOMGTPSeIYMGVq3bs0txM6EqgQ3sWPHJkDevn07dzVo0MB40pSoQG8OCRjsunXrrHvalCNysk0AcTJlyoT43bx5U11+GVSW7gEesWHDBvpGP2mBEp7o5GAhrMMj0CPacURWISNO8Jo1a2QiwL59+2gZAu7atQuHWC8Fom4gxWeffVazZs0OHTpArgEDBmTOnNnT05PpaNSokf4eFJ2UBDh79qzxJyYZINEhoeSjR4/0Kdtw8Uosi/NuXGoFM2bMcP7tPkI3CelMgMuNi9uOAEtZX87WcLSJBZuaXifMnz+/fAYLvfv999/36NFDn2qwwskGm5ONg5IlSwYFBcEQq1atKlu2LCVQBrsxaNAgHx8f/VuYvr6+48eP37x5M1LN9MvLCyakT59+586desUaIbxy5cro0aNlKQDhMf3UKB1u3769pGEj+A/bxXiZHSxVp06djEcmGEL27Nnz5Mlj2pLUQBqBpKEkDDp06FAn7+hr0GDhwoW5l/aB8Wf05KU3DSEjw4RoyEb//v2d7EhHnmVXrFgRJ06cLFmytGvXbunSpVjG3r17Sw/oX2BgIKqidOnSUgJQXefOnZPVWSRvwoQJOA+dO3dmOhFNVcnDAz1Btm3btsuWLaMFVBeMiDadOHEiKkFLOXyGKKOAkVT9NUwN9N+WLVuMP2ttF6IvjYAJmA90pJ4kI3BI0KM1atRg7EBWZAA9pDOwI1YlceLEUihwtGjvCjA1ixcv1sxdoECBZs2aQUa9SW4XdhdxIwQY6IsvvkAkVN4GZN4kujlz5mTqu3btygxCGeSNvpmGbwVTKWeh4AGcPS8vL3XhZUBnmWgrIsOyaA6mx7TRqoFh0taKbl2+fBkRP3nypFYSVnBp9erV2CnMutGOAKTNVGIEl0Qc+YtjwKTiK6P79S0YbrQL1g3uh1IYyosXL8qHqjVQGKg6lByaTJszOozt27hx45AhQxYuXDhu3DjrVgjODNbQ9I4G7gcuAfOtJxjLgOeAhsudO3etWrUQYyQKT/H06dPTp09v3rw55ShgNCX8Xa9ePeojrnRVRoHFrFatmjRlQpcuXXDNmzZtyhAwFKgARJoOQEncqrp160ITeihMTAn6BfYiW6JEiWLFiiHSSCa3o3GgPFTidvn8I8/l6RUrVkQ14m9oq800wZ34V1gGk4EVQPzr16/TeXQKQF9C1VmzZqHOsmbNijqwziY0h0PwEPSr9qh8HqouWxAZloUK0jQSw4yik5BLtB2EoE92R/K2Afef/qNToanxRzpfL/BrMRfYH5V3DXYJSEgQN25cOBsPCjZCABBOPf1aR2jQiL5K2tF2tKNyAS2Y9uqjGugFNIUT7QZcYlkGhk1H8aBX0EbCr5MnT9ZEEVUq6WgBJHvOnDkoJJWPDrh9+/YT20uqzvnsfx72txIgDZYL5QxTItzWBaN8+fJhc+06fG64EaWwz7K///47oStGQeVtZ3xkyY2Et7c3voErAb4bbrx22FeTuOq49oSNspZBlAD74k4RN+AerFu3zs2vbvxbcJ8xcCOawe2MuhHN8PpZFrcBf1dW+JctWyYesBGEdOPHjyek27lz58aNG1Hzd+7cuX79OpcIh+W3y0gT3lWtWpXWcEU2bdpEqEebRlSsWLFhw4anT58+cuTI06dPt27dOn/+/CRJkqjLMWLEiRMnODj4wIED3bp1k+3yW7duHTp0yNYLh/jtt9/8/Pzwi/CFiM1V6evG33//3bZt2549e6r8W4Y5c+YIDQ8ePKiKXh9khVtlIgFujhwI0YYNG7Z8+XLjOuLYsWMZp2raBh8fn/Pnz48aNapUqVJLly5dsmSJ/vVQgbjLsNeZM2fke3p169adO3eu8z0eExxt1cY1fGsWLpQ2kYR+/frJRjx48uTJhg0bBg8ePHHixHLlyhlfx0AA2rRpU7t27alTp9LzoKCgadOmIUuwGq3pE6jPnj3r2rUrIamQApmk5P79+5s3b6YEaVyzZg2UMR4VmDRpkjzi8OHDeq3QCG6nwcmTJ4d7+B/QgunjWU5ATfSFk7XPc+fO6c1b/XvFJtDtrFmzDh8+XOVtoBs0C5cT/NgdFAgMDEyaNGnevHlXrVrlytCsiCTLXrp0Sb82CR8wf3Tx2rVrMt8tW7bcvn17lbDfBHURjr4VYMK2bduOHz8u73A72g6tU6fOvn37VMYB6tev365dO4irz99EFAkTJtyzZw8KSW/xx4sXr2zZso7O8RQvXhxWZp46duxo3GRPnTo1naEQNv355593795tjG6hM3dZOYASbIjMunyMFiNDifAi4kE3atasuXjxYn34BruBXpBtah5KeH3ixAmuNm7cuK8Nvr6+1atXN75PRgsYQ/js8ePH2Ch504aJ1huz2Lrvv/9+4cKFvXr1YlL0W41Dhw5FBZh2Iuib3uUG9MT1V4I1IsaykOns2bPIqPUtuRYtWsjxn5IlS6raoaHz5s1LlSoVfkKxYsWkGmC0zZs3L1OmTL169W7fvg051q5dq67ZQOX8+fP36dMHrdahQwfI4e/vj5JD5aDUpWUoeMH2tcBTp06hI5nyvXv3osxCQkK4S85M4VQw3zzl3r17coKkR48eTZs2lacYkT59elQpgypSpAiqET1UoEABI1dly5ZNsvI3S5YsuXPnJuHkWIwRKBXrORKjBQgXnrbfOMbLYgpGjBiB7heVQSMzZsyQOgK6qq9qZM+eHYExHkxxDmTG1KwGc1GrVi2VCQ/YYYyMbKrjcelP3DH7ksB7XL16tUnlO9/iiRjLGj8NWbp0aXQtYmT6ELb1XTzREPiFQ4YMsfthZCrIl7Xh5kj8Dq8rQEPI0S2ASyBdFaAsRVfhY0lXAQnoiEQdPXpUShAGOs9f1Dx/ISvCKS0EBARgTFeuXIn/g8IbOXIkFrNZs2ZyNkA+GY3jIZVBsmTJoBL8Bxcivd7e3tavvcq5zRUrVhgdLThPfrr7VYC3w0PhbDndhmEsX748+rVVq1aoRmSVNARBYUt9wC38NfaENJqCG6URBBJ/r0mTJqYjWgIqN2rUSJQFFXAJIAhmUDeYPHlybDKMhNbDB8N47t+/30Z1O3CVZZkktJ08AHh5eeljIszuggUL0LLYCGyN0bV1HShCfIlImInIQRgIbYRGd3R8NlzQW1rA7VZ5C6CMfqkTASAYxQ/GRtnd3MY7pFcwJR3r37+/KrW9xUX92bNnm5x7WI2oFGuu8jbAcBMmTKhRowZpTPCNGzcePXqEp4HKnDVrFtPErBknCP1nst0adF5O2C1atIg0DMCN69evl4+kwN+qns33RbYlzXgvXrw4evRodJBdM2L8tBERc+vWre2et0QLqEoWOGTZ58+fIwcwOz3ATRHDCpBOQhB94imagjnAcVSZtwn4JLikdtkI5kNr4C/BfBhZzfdwJNEk9hffUWSe0eFuvfpRBBxf3CSVCQOMgbWxHsSxArOGRF2+fBlLJVYUJ01dMwB7RUhQtGhRYTBAZX3w3Ar7LIusaFOlnTCkAcFFT6hKbrjhMtDQJ0+edKTRAWIG78LcXbt2xYtTpfbgcPcLH+Xq1auShutxuglxrFGXG268Ybg3bN2IZnBv2LoRzeBmWTeiGdws60Y0g5tl3YhW8PD4L8Z5ViSQWOpwAAAAAElFTkSuQmCC;" vertex="1" parent="1">
          <mxGeometry x="73.99" y="1772.13" width="119.57" height="45.75" as="geometry" />
        </mxCell>
        <mxCell id="SCrkmm0jVP4aJ3ksJmY2-232" value="" style="rounded=0;whiteSpace=wrap;html=1;strokeColor=#8C8C8C;" vertex="1" parent="1">
          <mxGeometry x="277" y="1697.7900000000002" width="122.91" height="50" as="geometry" />
        </mxCell>
        <mxCell id="SCrkmm0jVP4aJ3ksJmY2-234" value="" style="shape=image;verticalLabelPosition=bottom;labelBackgroundColor=#ffffff;verticalAlign=top;aspect=fixed;imageAspect=0;image=data:image/png,iVBORw0KGgoAAAANSUhEUgAAAOYAAABYCAIAAABuyBzpAAAAAXNSR0IArs4c6QAAAARnQU1BAACxjwv8YQUAAAAJcEhZcwAADsMAAA7DAcdvqGQAACu3SURBVHhe7Z13fBXFFseDSJFelE4A6R0iItJ76CWhCtIDBEPvXUAQkKb03qV3pPfeJYC0gGDoHcVIUV/e13sm81l27725CQTJe/f3RzIzOzs7c+bUmdm9MUJDQz3ccCP64B313w03ogncLOtGNIObZd2IZnCzrBvRDG6WdSOawT7Lnj9/PnHixO+++27+/Pnz5Mlz//59dcGC58+fN2nS5PPPPz958qQqeuvx6NGjTZs2/f333yr/f4yHDx/279//8uXLKu/h8eTJk6tXr/7nP/9ReRtCQ0M1uXx8fGLEiJEjR45IEBBGMrU8a9asb775JmLLVtS2gt5UrVpV1fDwmDx5Mk+6c+eOXL127VrdunV/+OEH0kuXLlWVPDySJEmSMWPGIUOG/Pnnn0+fPpXKbw9+/fXXc+fOMbQqVarQW8SMtLrmMm7evKlSbwdQGVOnTvXz87t9+7YqigiaN28OKTJlyvTgwQOymzdvjhcvHiXZs2c/duwYJatXry5btmyiRInix49/6NChVatW/TPTNowaNcrWRuitW7fWrVu3ZcsWdIGUgJ07d3bu3PnKlSuSPXLkyGeffcZdZcqU+e2336RQqzmeIiWuwD7LAuSPfkuLJUuWpN8khE3r168v5e3bt//www8lbcR7773HyE+fPi1NRQ4ICeN89uyZykcQf/zxx19//aUyNiH08vJS/QtD69ateYqq4QK6du3KXT179rx3757pRrp64sQJSSPSO3bs2L17d8uWLU+dOoWoSLkTWLsREhIyduzY69evq3wYTDVbtWolYyGhikJDX7x4gRm5ceOGyoeG0rdFixbBW6Tp/Pbt2+/evdu9e3e5V1C+fPm4ceOqjIcHPDpgwAAUqspbwKVvv/0WltB3pUqVCiXNI1auXBkrVixKaGTmzJlCN43MmTOPGDEC7vf29pYSOM11XeCQZQHssmfPHmlU0LRpU2ihMgYwMfv370dW0L6qyMMjbdq0bdu2FWEVwEPDhg1DOgHqmYFNnDjx4MGD6nIYjh8/jiIMCAigkUaNGjHmSZMmMXncTn9++uknqYZko9FR5xs2bKhQoYKnp+f69evlEnSEWKlTp547dy7GCBVC36RXgrx588pkdOzYESZ4/PhxuLxLm3KvIFeuXCgS7mLsAwcOpDXAuCjBm1KVwrBw4UJphKsYq48++qhDhw5SAjMVKVIkZcqUMKixDw0bNuTG6tWrq7xtOvLly/fpp5/CkUgFVGKacd7kEQBCwej0IV26dFICEdKkSVO8eHEZLHoEzff+++/LVQ25KqhWrRqcXbRoUZX38GjRosXGjRtVxqanfv/99y+++ELlbYDUkhg/fjwzGzNmTMka0aBBAwxCsmTJVP5lJE2a9OLFi2qoTuGMZQFExNbTIq6tNC2oV6/evHnzatasSRoiqtqhocHBwVJBA3IsWLBAri5ZskSVGoA4ii5BUcHQEyZMsNLUiDhx4kyZMgVWVvmXUaBAAc2OGsxr7NixScCgSBETHxQUhBclVxEzSFy6dGm8OipYRQggeAkSJJD6GpTwOJUJg7+/v0oZ8Mknn6B+0Lvp06dXRTbHjrk3TmGPHj1w7GDidu3aqSIPDxQSBpQ+oLmlZNq0acgnCRkU7FWoUCHbFQ8YVBJWpjFqUAG34xjgyGJREUjIjp8qZg36YCqpQ5fEfRozZgxdRSr+IYeNMShBJKhTu3Zt7kL7kNZPQbvhtPTr1w85AQik3IjtZYKQUrqKQ4wqCQwMZEbkLmYBVY08G02ECeGwLNi6dWunTp2MvEhvtLFjbEYPBowcORJJJWhTtT08EiZMiBtElKZ7Bq9jHbJlyyZZjFrFihUlHTkg9EJiDbyXwoULq4wNuNomhw+iq2svg3li1Pz19fVFlaJEceYoL1euHHPDkNGU4ikBRIhx9e7dm+mREgETc+bMmbNnz6q8BRAKK0ECVxIKS6FdoIMRe21GTVi8ePG+fft4nMrbuBx56NatG4xy4MAB+GzXrl0oYBw82LRv377cwtDoniKEDUY/CmDNaFZlbLC6/lADqZM0Ca1r0GK6MsxNbCNpR0BsTNOHalfXLAifZTWgrDQXbg8AUrJixQqGVKxYMblLw+hrY8VUqU0xVKpUyagMmCR4BU8IFiHNMKBj8uTJ33nnHdJ79+4tVaoU1YYPH05TXKpVqxZ8gHuA3aRk7dq10g7AVoiuMgKyGo04nGfUgiZkyJDB6JWimVDJMD3MISXMDSpcKhvHiI8ohQIkR6XCABHgJ60gBUYWtAsog/KePn26difk6ciVLjGB8eLiq0wU4PDhw2hiZBinRRW5DFzbxo0bY2QgHbrWiZMQAZYlJIRGmG+Vdw0MQ0isIcGpQC+vEBv9/PPPlKDDhg4dinMp0b2V+nhaV69elTQ85IQ63I6CxA8mAVTpy8AFx8jOmDEDn5hnIRu5c+eWLhmBDkDdqnscgxbwN/r06WPUWGg4wgsU3tGjR5Fh6tBn1a6HB3MsTI/OQwC4hHdEhEQJmltVMoBuYEDQkdY1GRrHW0OWVP7fABP3yy+/qEzUIAIsG2ngGCh626BKw4BXnjNnTtGLbwkQHpQ9Wr9gwYIffvjhlStXXvua3ffff798+XJkz0mkzPS3adNm/vz5KGbsT4oUKXBb1bX/Y7gPH7oRzeDesHUjmsHNspHHokWLYsSIQayg8hYQOFJh5cqVKv/WAD/n0KFDkTOwo0ePZlA9e/ZUeRsIBhYvXqwyHh7463jzKmPDixcvqIMXpPIv4/nz53hBKhMubO5BNAbU0essbxKPHj1SFLTNhyo1gBBKrhKzqqIoAAGo3YVk5/Dz86Njer1cQFybJUuWli1bqrwDyKCAyoeGEihLCZ73nDlzmBHaJ2AdN24caakzcuRIKhAYwJpSQrAoMTF1ypcvnyBBAmJxueQcb4JlTQt+rxeyotmoUSNZiDh9+nS4oRKUunPnDnE6MdCTJ0/sMly4+Oabb2zT9A9OnTqlSg0YOHCgXIUPVJFteng6UT9hNTxtWtKOBGSTDA0H4xYuXHjTpk3qgg08q3///t9++y1pzT0USsdSpUqF2vP392/WrNnhw4cHDRok5T/99BP89OWXX9avX3/jxo3ciBbkRlizcePGUgdoTTF+/HhVZAOcqlIeHgMGDKACLegV0s8+++z69ev79+9PkyYNhTwXfS+X+vTpIw06RwRY9sSJE3Xq1DEuYdAVaBQUFESiS5cunTt31nTRmDt3LnaEsFflXcbRo0fr1q3L7bpNpLBt27YMTEpgtWnTpsloQa5cub766isSiHK3bt0GDx5Mh+EJouwKFSqI2GzduhUFkCNHDrlFY9iwYVy1dh7A3Hpdb9asWcmSJfvoo492796tD2AA4+ior89gaNy9e5dLsAK3v/POP85YrFix0CvMWbiL3KKKTAgMDETetJ1NlCiR3gBjOlSl0NAJEyZIYfr06SHLxYsXEWxdmCRJkjJlykjatJJvBfytUgYw6RCtdu3aKm8PTJnpjIER8ePHZ4JUxsOjSJEix48fR5s4OZjhjGXR4cHBwSoTGiqjQodLFlmBMyhhMJs3b7Y90WPv3r1cQuyqVKmC9GAO4tlOBgGos27dOq4yyA0bNjB/pGfOnNm8efPJkyczMTwOVcFVyIqJkXMVoFixYjxo0qRJxsUy5kB2CwHMalqHF8AcsqUJ0Ea+vr6mjVwjMmfOHDdu3BYtWjAuGOKPP/5Ad6KiZN+Lflq3iBna559/ToLu/UMRmxQZl3WZS/pGonLlytSB16XcCEgHl6OxEMhVq1a1atXKuFeJMCRNmhTOgLP79evXvn374cOHd+zY0e4mvqB69eroDhxH3M04ceKoUhv0XJiAIKmUBZqAjpA8eXJJ7Nq1Cz7LmTOnZJcsWSIaRANaNWnSRGU8PNKlS6e3P62g/4oEFjhkWR7PLDLHqCXswsOHD6UtOImra9eudTT9JUuWVCkL4DM4EotDGv5bs2aNlANvb+8MGTKQgMshuhTCrCaim8B0Qgj6pt0p0K5du4CAgHLlyqn8yyBaGjt2LIpz6tSpdMBJb+0ClaC3nVEeNCJpFDkqvGDBgqQTJ06MyHXo0AEdT0IqaEyZMsU0l6hb4WwBWViTKKdv376qyDZSlXIMzT0RAv357bffevfujZbBjNSoUQPZRr8gZrhY6CzcmGvXrkFST0/P7du3nzx58uuvv1Y3hwGmF3OB3kEB4RuIcYDCNWvWxD9mWtGdSCOEggFI43ucP39e5pcGGbLxiA/9+YcL7cEhy4qHLkCs582bpzIeHgixSjllUA3jeQPNjs5B71E/8DckQ9XJ9jpTggqkM5AVCtIN2SUSyIGBIUOGSJZ7oS+eA96SqGfU5MKFC6129syZM/QQ9Wbd96pYsaJxZ59HIL2YYxzoZcuW0dSPP/6orhkwceJE1bTNFsG7cINoOAwfhbCCj49PuArMihIlSuB3IsnwEw6AFPI4/NFPP/0URyhFihRSCPLnz49mCQkJQVNgCWEXhi8bbEga6bRp05KQfkYIsHj37t3hXSwD00Sb+KbqWgQBAffs2SNp6All9u3bZ9wftcI+y6K0RInCHzJ+fZ5Ng6hCNqzx/bGeXl5eqDek84svvsDdJPhASfP4Y8eO4Udu2bIFWqs7bd6FJOBCOID6sAuOsj4co02tBpxn9FLsAmUAp6qMARcuXMDWq4xj4NXwaDw8HrRo0SImldb0ygCKUNV7GfCuUUeiVu3Gc0wz2t3oaOIaqXtsmD17NrEjw4RQeAJyfILWMHfY06pVq9IldWcYEDb41SiECLO0hqehSYHm+3d3cV8vHGrZHTt2SFAiDivA3gnbwWdwp/EEN0Yh3Dj90qVL4rvUq1cPKqMC0dxy6FgDKjNnK1ascOXkTVQA0Tp79qzKhEEULayp8hag7N9//300GV6pKnIBDBYOQ8ixjwcOHFClBkRiPQFdg/DD/Sr/vwhn4ZcAnVG8eHHmDEKgKghUX2VpJnIrSv8uiPfDPRMD1zo3Z268LrjPGLgRzeDesHUjmsEZyxIY4bCqjBtuRARDhgxJlixZ3rx533vvvbJlyxLNC+LHj79q1arJkyc3bdpUdhAPHjwol+T1oaFDh8aMGXPw4MG2ZuxB/AMrNm7cmChRonfffVfW/DWidPf1DYBQev369dAlSs/ng9GjRxOnEmteD3tLlphyypQp1vAuSrFr1y4iWpV5Hdi0aROMMWHCBJU3ICQkRI4Q3Lhxw7qgDkcmsLw/t2DBgo8//ljSsWPH1m+pEDJJm1bYZ1nYVPYVQdGiRadNmzZmzJjChQs3adKE7o4fP16qESDL7jP46quv+vXr9+8yNDH43r17TWsXv/76q7ypzFXjVqpsf0catLZixQpHJ9ORB/3CTPbs2WX9eNiwYWTTpEkzf/58KLx582a9JCkgrt22bRstk4aS69atk55HFIGBgXAPiUuXLjGPKDBZmYEUJoF59uzZokWLTPE0bCT7lICAm1v0OhoJvXOrdRld9ff3L1WqVMKECRMnTkyDcvIBBmWkskmZJ08e7pXDMUCzqSBevHjGkiJFiggR7MKhlu3cubOjF6EgQZcuXSZNmhQrVqwPPviAvlauXFku0ePGjRsLHxNlN2/eXK/7QDVhaHrDvRs2bJByI44ePdq6dWv00/79+2/fvt2xY8cff/xRXXMKeAKh6tOnD32Aprly5apVq1amTJnonnRME9qI3r1769NDzpfVUB7oZhgIjcUo7t69u2zZMlqA/wICAhhyvnz5ypUr17dvX+i2cOFC2eYFadOm5W+NGjUYl5QIZGcBIwZ/IGY9e/bMkSOHFCJLMJy8/Ojr66t64ABHjhxp1KjRJ598kiJFirVr11Iyc+ZMbsyWLRt+nfENSnooe+AwBJ1HESJy6CNKvL29kTEo8N1338l2Hab51KlTDx48kHfjPD09ly5dqrf6BBSip2A1ed3Xii1bttCf8+fPt2jR4sKFC6QhY926ddGApK9evSrv+VWtWvXMmTNYP4ggL7E6n3SHLItMAHnp2ajPtfJwAj8/P/kiC2AKaQ09T7pbt27MNzMql8aNG4c+GD58OGSCy5F441kTAYR2InAa8iUSVzBixAimR3MwTAPRkQ2MeLNmzRCkc+fOSZtQfMaMGVu3bqWHTLPUjxCYUdOHIAACr1Iuo3v37nDV559/PmfOHIT5xYsXKD/pJMyqKlmgxfW1A3JlyZJFZcKQLl06Zhk7hlqF81auXCk9dAI41fiZCxcRzrrs/fv3aReDcvz4cURk+fLlaBomUlZqUQzoNv3BGHqcMmVKSUcaSZMmlc8jaMBeckgCEYJ75CgdaR6NAcKRN24+CbCGyAx8nDNnTiwAGpcO49HPnj2bG7kdQXd0RgSgO4HKuAA6jBI1bpHTJcILcezk4AGAgzE1QUFBskWcO3du4y2Abjv/hoMGkQ2RMa1JljhGf/wCcFUf9oOePj4+PAuZhKswfahe4WZMAR5nuJyNnIj5AmgQtCZKhEejmMqUKSOb4RDTuHkepQiHZR2Bid+3b594Wgg9njUMQRo7JWMDgwYNMk2JBlGkWEwrmFfaWb16tZeXl1EAUCeyhwmsXjxAuLG/hJ9YNBT2P70MD6h8jLJsboV77oTpYYw4Z8aXvLFl+v1vvAUm8pdffjG9/o+00/Pt27ervA1iOjCXVM6YMSOEgnTBwcGUY7Ip7NChw4EDB4y73I6AlaApvOpevXoRjGPE4B7UMOLdv39/o5EVcQXQR74VRxoiLFmyBLenZcuWixcvZhTcS/BNO3jbNCjV8CJQAfrdZg2uoggI8lQ+6hFJlnUEBiDHz+TrXShCvKLSpUszWnHm4EJoISOnMoEnPCr+ABXGjh2r4znA5KEstRZ3ApqNNNXw4fAHHj58iA+A/sN7adCgQd68eRESfAN4FOBTGrUI/Ud5M50q/2qAS1BdKmMBPn3FihXl00mwGsobp9nonumTQP8neM0sC1AzcmpWoNeSEHHm3m6IDTc4X/phRolDcUPnzp0rR0XxgzG7PIgQ6lU2kKMpGLJ8gAevMaq/G/C2wb1h60Y0g3vD1o1ohreRZX/99VecfdxKWZeVwuvXr48cOZLwlhCVcLtEiRI4CeIVcLVHjx4xYsSgPrEzoYOnp6fxSP9rAbHm1KlTO3funCZNGp7lZMHBjaiF+AeRBjHBlClTZF+AdKNGjQoWLEh0cvToUbJSR4DvVb169XTp0jVs2HDPnj1Pnz797rvvAgICTHsKx44d0ws0AOYLCQkhgnbyPh3+nEq9DOPWUZ8+ferWrYtj/eDBA7uHUzXoNg63XvgUUGL9rhvx9f2wb8i58cbwqiwLw8n8xY0b17SkJW+n3Lp1C61JcO1kCX39+vXUhFN79uxpfb3E29s7ue2tJoRh+PDh6Ffj1xGdoFChQlu3bqWT+vx/hQoVZP1SFnc1iGBKlSo1dOhQHx8f2bhKnz49vVq2bJnIpOyYW/uGRMm+JcHlX3/9NXny5K+++gpRcfGVfDcigciwLLOI2gsODl6wYIGaOtfg6+s7f/58+Mb5S4g1a9YMCgpi+oEqsvGffnEenD59eunSpSIM0pos1ubKlcvE0MYffdDgFr3LdeTIEetejka1atXkuEXRokUvXbqEDCCKn376qVwVVKxY0WgZBAihozc1MDiyIE8aMtr9MCUysHPnTrsLzCdPnnwD66C3b9+2rsJGGli2Fi1aIM/Hjx8vXLgwjpy6EHE4Y9nnz5/DEypjAA9W0xIGLy8vJpIEOixHjhzMcevWrU2bnBkyZNALXvfu3WvQoEGnTp3gQv2qNGoYbhs9erTRozh8+DDVJk6cqO+1Asp+/fXXmPILFy5w74sXL65cuWJ90RkdCadCOOlY8+bN//zzT9PLotTZvHkz+lXlw1CjRg1jr+g/7g2qGj52Yj2KFy8+adKkbt26LVmyBMF4+PAhChu5lasYJTkyEjNmTGaxQIECuEnFihULDAycPn36GNvbl1WqVLl58yb6W55LAoqJCOlTKa8CBoUndurUqWbNmq1du5bpbtu2LelFixalSpUKchE/jBo1ilFg35gLOSogNyI5WongIMlSI+WYLMKJlStXEmwwF7A+kck/A34ZNEjswbMgjjTiIuyzLHM5bdq0lClTEmTMmDGja9euaC/Z1CEe0g4AbJE/f369lE3/GDO91woMby9fvnzMRO3atR19h4dnQbK7to9T0IIUvjpo9uzZs/Sf3pYvX37QoEHMt7SPxEv/NRjdunXrcAz0HhUKHpoycIKtjz/+WB8gtIKZy549e8mSJWkBbmvZsiVDxk13bkkiBGSMQBNiGr12VADcz+OIOGHxtGnTrlmzxu5riSh7ADPRPe3HY52yZs1q3MkDIgzOMXjwYBqRQx30Yfbs2ZQQaUDnJEmSmJxDIxBL/ZUDEyA7PACjt2nTJtxVdvssiyumv3yhkThxYoIq5oM0LHjjxg3jTtXbCVjNSgImz3jUrX79+pSoa5GC3dsx61CpUqVKfn5+WCFxx1Fd8NnChQvRPRCZSADdJm8vO9rBjijKli2LUqRxTBPmAnMHP+GaEwNIBXTQtm3bHK14wHZ4bipjMwU0iHMFrCzhCFha054l9+LiYyrpG85VxowZP/jgA4J166jbt28P9ZzMiEPH4Msvv8RGDxgwwHpQg5IIvUr6FuLMmTP+/v7MHPL9ZgQPHY/xseveoBoxuFzSK3oauOwzZ86UDT8rsKr6y1+RBn45hoI+4F+isJlZ2AVTvnr1arpkegdTvm0PW9eqVQt569WrF5KA90InUWe7d+9GVNBlUhnaYgTk80eYHSnUEKbkLlsvXgJhyaxZs6SaFeGHX1hY3ER0lehXmpPzA25EBfr37w+R5Sg6zokUYitwgv+ZTNvxq2zZsu3fvx8/QWYde0pggK+MikGDmj6Tg4rVP981YcIEY6BZr149vEn53r+L4InIlYunjjScLwUiBogNlgf3XZ98chKfuTds3YhmcG/YuhHNECUsS2B+08H3ml3HvXv3vv3222vXrpEmWMmUKROuOgZOg4AGA4qzJfU1cGNw4TGXKv86cPfuXUxzw4YNkyZN+sknnxD8LjX8eK8bbxTiH7wKmE5jVPH06dOiRYsSae7YsUMVhQE+Ll68OOFkly5dQkJCjh8/fiLsd181Hj9+PGjQIP2iS65cuU6dOuXkh+xix45Na/Pnz69Tpw5PHD58uP7SqnHDdurUqd26dZs+fToRtLwsYIWEHVu2bPnoo4/oJ32T1wkp1z6WCU4+0OeGXcAqX3/9tbwWFjm8KsvCJXHixMmaNatsOqAXjWv4uNX6IGxgYGCZsA/warzzzjvz5s3j6t+278vqFzacgGcVLFiQ0EHlncLX15c2jZ81BRSaVr6IW2lWXX4ZlSpV0r/62apVq8GDB5u20+gJsXP37t1lMWjkyJFz5szx8/OTleZw8fvvv0f0oIJ+9zqKsG3bNkbh4+NDVIcCQvKJ/fv27Xvp0iVVw4LTp08fOHBAwjJGZDrC+/z589WrV0PzvXv3YqCEbl5eXugmgntVyWVEnmV5GCpNv0oqy/WSNsLT03PXrl3ykQUBSjHly6+IodWMb/MmSJAAzjh8+DBRJA5A3LhxEyZM2KZNG8JkSMOjJVIGdMD6SUYXIZ/ZkoPnrrzZ17NnT3kowPcYOnSo89clcufOfebMGeJxpp/Yf9KkSUgv6X379hEj42N8/PHHGTNmRGgZII3PnDmTKZc9CwZ44cKF6tWrEzijk4zn3//666+8efPS4eXLl0OlI0eOGGfd7laCXVy9ehUTgbRwi9ATlsIEWd8Y1WAu8uTJc8j2uyCwMh3YunXrsWPHsGCyDJc4ceIaNWrIqiiSvGnTJtpHJWk2taJYsWLGFwJcgTOWhYKOVAXeqvEDtEbUrFkTuqO3WrRooYoMkMWLoKCg/Pnzw+UdOnQwLVCbVjeCg4PllXwngHzQEf5AmyLrPJ3ujRkzRpbE9Y7OrFmz1qxZ06tXL8niB6Or9Mf/cVKRJQwWrIxgjB8/HoagTubMmRlIx44djW6GABvXuXPnatWq4QWlSJECC9OvXz9Ha6guAraoXLmy6UW01KlT480jXf7+/rIxbgRmDfVfsmRJuaQJiLZzosOMmylpbL+ArDI25MyZk56ojA1664HBNmvWTL5fHVHQZsuWLc+dO9e1a9cqVaroDUJUGAaZSWSCGKbqogM4ZFl4n4aQm8uXL5v2UX/88Uc5DwU3oD+4evDgQSYPKkBuI4ehF/ECk9heVEJnGHuDZItwE2CNGzcO9YMyXrJkid5Pfy1Yv349TEyohCpVRZbla+j45Zdf2j1N4SLu3LmjDytCN/QlOkyW0AHcwNhNKtnb2/u7777jufgtxt0mE/QlBNvubqfdbWE4e8aMGZgmIlQmRXZB0Q7oZkJYZMzRThtP4ap80hlrTs8pWbZsmewcMShjH+LHj48JxcqhmJET2AAvceDAgaNHj4bm9EFv3mJGGClsKpZNgwbhfqmjgcHBy7IqCA37LPvTTz/p5wEeGRAQwMQjtag0QiIKYWgjHzgB4o6N4EaV/7eBqGhPABUVdV9jvXXrFuItggrpcHnxE5g5dIlUMAKHAfbVZIer5BvIWA+7b6ijztEIWEI5Z0OcwO3WH9t3BfDZggUL1q5dazKqMLrpXT2cVAwODErfnHCVANcOswMRVN4BcDCwEqorYcDiqcsW2GdZJpVW5BV1u0BxRus9W4wDo4vcZ9ejFPimmE7xaDVgdzk9h5cPXxIYwAf6JBeTpbdV0Q442bLAki9fPhQk5kubRNQndgwXVrSs7JPpPbZ/F8g2Zke+JIIuN336yQiHjgF6HhstClWOd5AQMNlIhqoXbSFuSTQCQTcMrTLhAXWot1XxuXXkKmByT548CQW0P/OWAM29ceNG56c+3Bu2bkQzuDds3YhmiBKWvXDhwty5c1HvKm/D/fv38bSI2EaNGoWbQVR46NAhLJ26bAOmKjg4WNKEk9Qh+CBNBDNmzBiihESJEhHgE2r4+fkRz0lNE3hK3759f/jhB5U3gFtkB9gRsKE8S2UcQ07oqYwNDJnQSmVeE2S/QGXeLHjuzJkz5Q05VeQCqIzbrTIOwLQWKlSoevXqNL5jxw5VGiHwmNcLZk42wAjRihcvvnfvXmZ32rRppnU+AYVNmjQhXA0JCaFanTp1KCxatCgcKe9yAScr9lWqVBk7dqy/v//u3bvXr18Pw23atEmvLhHHHDhwgChYFti5CrEIybdt2yZdNYEIgD4TntevXx+Czp49e9iwYbK0efDgQSLlgIAA4oOMGTPSeIYMGVq3bs0txM6EqgQ3sWPHJkDevn07dzVo0MB40pSoQG8OCRjsunXrrHvalCNysk0AcTJlyoT43bx5U11+GVSW7gEesWHDBvpGP2mBEp7o5GAhrMMj0CPacURWISNO8Jo1a2QiwL59+2gZAu7atQuHWC8Fom4gxWeffVazZs0OHTpArgEDBmTOnNnT05PpaNSokf4eFJ2UBDh79qzxJyYZINEhoeSjR4/0Kdtw8Uosi/NuXGoFM2bMcP7tPkI3CelMgMuNi9uOAEtZX87WcLSJBZuaXifMnz+/fAYLvfv999/36NFDn2qwwskGm5ONg5IlSwYFBcEQq1atKlu2LCVQBrsxaNAgHx8f/VuYvr6+48eP37x5M1LN9MvLCyakT59+586desUaIbxy5cro0aNlKQDhMf3UKB1u3769pGEj+A/bxXiZHSxVp06djEcmGEL27Nnz5Mlj2pLUQBqBpKEkDDp06FAn7+hr0GDhwoW5l/aB8Wf05KU3DSEjw4RoyEb//v2d7EhHnmVXrFgRJ06cLFmytGvXbunSpVjG3r17Sw/oX2BgIKqidOnSUgJQXefOnZPVWSRvwoQJOA+dO3dmOhFNVcnDAz1Btm3btsuWLaMFVBeMiDadOHEiKkFLOXyGKKOAkVT9NUwN9N+WLVuMP2ttF6IvjYAJmA90pJ4kI3BI0KM1atRg7EBWZAA9pDOwI1YlceLEUihwtGjvCjA1ixcv1sxdoECBZs2aQUa9SW4XdhdxIwQY6IsvvkAkVN4GZN4kujlz5mTqu3btygxCGeSNvpmGbwVTKWeh4AGcPS8vL3XhZUBnmWgrIsOyaA6mx7TRqoFh0taKbl2+fBkRP3nypFYSVnBp9erV2CnMutGOAKTNVGIEl0Qc+YtjwKTiK6P79S0YbrQL1g3uh1IYyosXL8qHqjVQGKg6lByaTJszOozt27hx45AhQxYuXDhu3DjrVgjODNbQ9I4G7gcuAfOtJxjLgOeAhsudO3etWrUQYyQKT/H06dPTp09v3rw55ShgNCX8Xa9ePeojrnRVRoHFrFatmjRlQpcuXXDNmzZtyhAwFKgARJoOQEncqrp160ITeihMTAn6BfYiW6JEiWLFiiHSSCa3o3GgPFTidvn8I8/l6RUrVkQ14m9oq800wZ34V1gGk4EVQPzr16/TeXQKQF9C1VmzZqHOsmbNijqwziY0h0PwEPSr9qh8HqouWxAZloUK0jQSw4yik5BLtB2EoE92R/K2Afef/qNToanxRzpfL/BrMRfYH5V3DXYJSEgQN25cOBsPCjZCABBOPf1aR2jQiL5K2tF2tKNyAS2Y9uqjGugFNIUT7QZcYlkGhk1H8aBX0EbCr5MnT9ZEEVUq6WgBJHvOnDkoJJWPDrh9+/YT20uqzvnsfx72txIgDZYL5QxTItzWBaN8+fJhc+06fG64EaWwz7K///47oStGQeVtZ3xkyY2Et7c3voErAb4bbrx22FeTuOq49oSNspZBlAD74k4RN+AerFu3zs2vbvxbcJ8xcCOawe2MuhHN8PpZFrcBf1dW+JctWyYesBGEdOPHjyek27lz58aNG1Hzd+7cuX79OpcIh+W3y0gT3lWtWpXWcEU2bdpEqEebRlSsWLFhw4anT58+cuTI06dPt27dOn/+/CRJkqjLMWLEiRMnODj4wIED3bp1k+3yW7duHTp0yNYLh/jtt9/8/Pzwi/CFiM1V6evG33//3bZt2549e6r8W4Y5c+YIDQ8ePKiKXh9khVtlIgFujhwI0YYNG7Z8+XLjOuLYsWMZp2raBh8fn/Pnz48aNapUqVJLly5dsmSJ/vVQgbjLsNeZM2fke3p169adO3eu8z0eExxt1cY1fGsWLpQ2kYR+/frJRjx48uTJhg0bBg8ePHHixHLlyhlfx0AA2rRpU7t27alTp9LzoKCgadOmIUuwGq3pE6jPnj3r2rUrIamQApmk5P79+5s3b6YEaVyzZg2UMR4VmDRpkjzi8OHDeq3QCG6nwcmTJ4d7+B/QgunjWU5ATfSFk7XPc+fO6c1b/XvFJtDtrFmzDh8+XOVtoBs0C5cT/NgdFAgMDEyaNGnevHlXrVrlytCsiCTLXrp0Sb82CR8wf3Tx2rVrMt8tW7bcvn17lbDfBHURjr4VYMK2bduOHz8u73A72g6tU6fOvn37VMYB6tev365dO4irz99EFAkTJtyzZw8KSW/xx4sXr2zZso7O8RQvXhxWZp46duxo3GRPnTo1naEQNv355593795tjG6hM3dZOYASbIjMunyMFiNDifAi4kE3atasuXjxYn34BruBXpBtah5KeH3ixAmuNm7cuK8Nvr6+1atXN75PRgsYQ/js8ePH2Ch504aJ1huz2Lrvv/9+4cKFvXr1YlL0W41Dhw5FBZh2Iuib3uUG9MT1V4I1IsaykOns2bPIqPUtuRYtWsjxn5IlS6raoaHz5s1LlSoVfkKxYsWkGmC0zZs3L1OmTL169W7fvg051q5dq67ZQOX8+fP36dMHrdahQwfI4e/vj5JD5aDUpWUoeMH2tcBTp06hI5nyvXv3osxCQkK4S85M4VQw3zzl3r17coKkR48eTZs2lacYkT59elQpgypSpAiqET1UoEABI1dly5ZNsvI3S5YsuXPnJuHkWIwRKBXrORKjBQgXnrbfOMbLYgpGjBiB7heVQSMzZsyQOgK6qq9qZM+eHYExHkxxDmTG1KwGc1GrVi2VCQ/YYYyMbKrjcelP3DH7ksB7XL16tUnlO9/iiRjLGj8NWbp0aXQtYmT6ELb1XTzREPiFQ4YMsfthZCrIl7Xh5kj8Dq8rQEPI0S2ASyBdFaAsRVfhY0lXAQnoiEQdPXpUShAGOs9f1Dx/ISvCKS0EBARgTFeuXIn/g8IbOXIkFrNZs2ZyNkA+GY3jIZVBsmTJoBL8Bxcivd7e3tavvcq5zRUrVhgdLThPfrr7VYC3w0PhbDndhmEsX748+rVVq1aoRmSVNARBYUt9wC38NfaENJqCG6URBBJ/r0mTJqYjWgIqN2rUSJQFFXAJIAhmUDeYPHlybDKMhNbDB8N47t+/30Z1O3CVZZkktJ08AHh5eeljIszuggUL0LLYCGyN0bV1HShCfIlImInIQRgIbYRGd3R8NlzQW1rA7VZ5C6CMfqkTASAYxQ/GRtnd3MY7pFcwJR3r37+/KrW9xUX92bNnm5x7WI2oFGuu8jbAcBMmTKhRowZpTPCNGzcePXqEp4HKnDVrFtPErBknCP1nst0adF5O2C1atIg0DMCN69evl4+kwN+qns33RbYlzXgvXrw4evRodJBdM2L8tBERc+vWre2et0QLqEoWOGTZ58+fIwcwOz3ATRHDCpBOQhB94imagjnAcVSZtwn4JLikdtkI5kNr4C/BfBhZzfdwJNEk9hffUWSe0eFuvfpRBBxf3CSVCQOMgbWxHsSxArOGRF2+fBlLJVYUJ01dMwB7RUhQtGhRYTBAZX3w3Ar7LIusaFOlnTCkAcFFT6hKbrjhMtDQJ0+edKTRAWIG78LcXbt2xYtTpfbgcPcLH+Xq1auShutxuglxrFGXG268Ybg3bN2IZnBv2LoRzeBmWTeiGdws60Y0g5tl3YhW8PD4L8Z5ViSQWOpwAAAAAElFTkSuQmCC;" vertex="1" parent="1">
          <mxGeometry x="277.66999999999996" y="1699.9200000000003" width="119.57" height="45.75" as="geometry" />
        </mxCell>
      </root>
    </mxGraphModel>
  </diagram>
</mxfile>
